<svg width="100" height="80" viewBox="0 0 100 80" fill="none" xmlns="http://www.w3.org/2000/svg">
<path opacity="0.5" d="M22.6107 0C29.1375 0 34.4988 2.11766 38.6946 6.35295C42.8904 10.4314 44.9883 15.8431 44.9883 22.5882C44.9883 25.7255 44.5998 28.8628 43.8228 32C43.0458 35.1373 41.4141 39.8431 38.9277 46.1176L25.4079 80H2.331L12.3543 42.8235C8.46931 41.098 5.43901 38.5098 3.2634 35.0588C1.0878 31.6079 0 27.451 0 22.5882C0 15.8431 2.0979 10.4314 6.29371 6.35295C10.6449 2.11766 16.0839 0 22.6107 0ZM77.6224 0C84.1492 0 89.5105 2.11766 93.7063 6.35295C97.9021 10.4314 100 15.8431 100 22.5882C100 25.7255 99.6115 28.8628 98.8345 32C98.0575 35.1373 96.4258 39.8431 93.9394 46.1176L80.4196 80H57.3427L67.366 42.8235C63.481 41.098 60.4507 38.5098 58.2751 35.0588C56.0995 31.6079 55.0117 27.451 55.0117 22.5882C55.0117 15.8431 57.1096 10.4314 61.3054 6.35295C65.6566 2.11766 71.0956 0 77.6224 0Z" fill="#DCE3EF"/>
</svg>
