<svg width="30" height="31" viewBox="0 0 30 31" fill="none" xmlns="http://www.w3.org/2000/svg">
<g clip-path="url(#clip0_1012_46750)">
<path d="M26.3508 6.80362L25.952 6.40483L20.7304 1.18328L20.3316 0.784483C20.1511 0.603966 19.9008 0.5 19.6447 0.5H4.63334C4.01989 0.5 3.35938 0.973793 3.35938 2.01345V20.6724V29.226V29.4655C3.35938 29.8984 3.79489 30.3205 4.31006 30.4534C4.33593 30.4602 4.36075 30.47 4.38765 30.4752C4.46834 30.4912 4.55058 30.5 4.63334 30.5H25.3613C25.444 30.5 25.5263 30.4912 25.607 30.4752C25.6339 30.47 25.6587 30.4602 25.6845 30.4534C26.1997 30.3205 26.6352 29.8984 26.6352 29.4655V29.226V20.6724V7.73C26.6352 7.33328 26.5877 7.04052 26.3508 6.80362ZM24.7913 6.7069H20.4283V2.34397L24.7913 6.7069ZM4.63334 29.4655C4.59662 29.4655 4.56351 29.4521 4.53093 29.4402C4.45024 29.4019 4.39386 29.3212 4.39386 29.226V21.7069H25.6008V29.226C25.6008 29.3212 25.5444 29.4014 25.4637 29.4402C25.4311 29.4521 25.398 29.4655 25.3613 29.4655H4.63334ZM4.39386 20.6724V2.01345C4.39386 1.90121 4.41093 1.53448 4.63334 1.53448H19.4239C19.4068 1.59966 19.3939 1.6669 19.3939 1.73672V7.74138H25.3985C25.4683 7.74138 25.5351 7.72845 25.6002 7.71138C25.6002 7.71914 25.6008 7.72224 25.6008 7.73V20.6724H4.39386Z" fill="white"/>
<path d="M11.3961 23.6429C11.2238 23.5017 11.0294 23.3951 10.8126 23.3248C10.5959 23.2539 10.3766 23.2188 10.1552 23.2188H8.65625V28.4305H9.50504V26.5493H10.1345C10.4076 26.5493 10.658 26.5094 10.884 26.4293C11.11 26.3491 11.3035 26.2358 11.4638 26.09C11.6242 25.9441 11.7488 25.7636 11.8388 25.5489C11.9283 25.3343 11.9733 25.0953 11.9733 24.831C11.9733 24.5812 11.92 24.3562 11.814 24.1555C11.708 23.9548 11.5683 23.7846 11.3961 23.6429ZM11.0744 25.3648C11.0221 25.5086 10.9544 25.6203 10.8695 25.7005C10.7847 25.7806 10.6916 25.8386 10.5902 25.8737C10.4888 25.9089 10.3859 25.927 10.2825 25.927H9.50453V23.8622H10.1407C10.3575 23.8622 10.5318 23.8963 10.6642 23.9646C10.7961 24.0329 10.8985 24.1177 10.9719 24.2191C11.0449 24.3205 11.093 24.4265 11.1168 24.5372C11.14 24.6479 11.1519 24.7456 11.1519 24.8305C11.1519 25.0431 11.1261 25.221 11.0744 25.3648Z" fill="white"/>
<path d="M16.5261 23.9822C16.3068 23.7515 16.0311 23.5658 15.6985 23.4272C15.3659 23.2886 14.9806 23.2188 14.5425 23.2188H12.9727V28.4305H14.9454C15.0111 28.4305 15.1125 28.4222 15.2496 28.4056C15.3861 28.3891 15.5371 28.3519 15.7021 28.2924C15.8671 28.2334 16.0378 28.145 16.2147 28.027C16.3916 27.9091 16.5504 27.7477 16.6921 27.5424C16.8339 27.337 16.9502 27.0825 17.0423 26.7784C17.1344 26.4743 17.1804 26.1075 17.1804 25.6788C17.1804 25.3674 17.1261 25.0643 17.018 24.77C16.9089 24.4762 16.7454 24.2134 16.5261 23.9822ZM15.9075 27.2563C15.653 27.6241 15.2382 27.8077 14.663 27.8077H13.8214V23.8617H14.3164C14.722 23.8617 15.052 23.915 15.3065 24.021C15.5609 24.127 15.7627 24.2662 15.9111 24.4384C16.0596 24.6106 16.1594 24.8025 16.2116 25.0146C16.2633 25.2267 16.2892 25.4413 16.2892 25.6581C16.2892 26.3558 16.162 26.8891 15.9075 27.2563Z" fill="white"/>
<path d="M18.4102 28.4315H19.2729V26.0837H21.451V25.5039H19.2729V23.8632H21.6698V23.2197H18.4102V28.4315Z" fill="white"/>
<path d="M19.8733 12.3769C19.398 12.3769 18.8145 12.439 18.1364 12.5621C17.1899 11.5576 16.2019 10.0907 15.5047 8.65071C16.1962 5.73915 15.8502 5.32691 15.6976 5.13243C15.5352 4.92553 15.3061 4.58984 15.0454 4.58984C14.9362 4.58984 14.6383 4.6395 14.5199 4.67881C14.2219 4.77812 14.0616 5.00777 13.9333 5.30726C13.5676 6.16226 14.0694 7.61984 14.5856 8.74329C14.1444 10.4983 13.4042 12.5988 12.6262 14.3036C10.6659 15.2016 9.6247 16.0835 9.53056 16.925C9.49642 17.2312 9.56884 17.6807 10.1073 18.0847C10.2547 18.1948 10.4275 18.2533 10.6075 18.2533C11.06 18.2533 11.5173 17.9067 12.0464 17.1635C12.4323 16.6214 12.8466 15.8823 13.279 14.9647C14.6642 14.359 16.3778 13.8117 17.8452 13.505C18.6625 14.2897 19.3944 14.6869 20.0233 14.6869C20.4868 14.6869 20.884 14.4738 21.1716 14.0709C21.4711 13.6514 21.5394 13.2759 21.3733 12.9536C21.1742 12.5662 20.6833 12.3769 19.8733 12.3769ZM10.6188 17.3802C10.3768 17.1945 10.3907 17.0693 10.3959 17.0223C10.428 16.7347 10.8785 16.2242 11.9838 15.6029C11.1459 17.1505 10.6959 17.3559 10.6188 17.3802ZM14.8602 5.52398C14.8825 5.51674 15.4007 6.09346 14.9099 7.18743C14.1723 6.43277 14.8095 5.54105 14.8602 5.52398ZM13.7911 13.8133C14.3161 12.5621 14.8044 11.1805 15.1742 9.90088C15.755 10.9447 16.4528 11.9574 17.1511 12.7685C16.0473 13.0276 14.8721 13.3933 13.7911 13.8133ZM20.464 13.5655C20.3047 13.7885 19.9592 13.7936 19.8381 13.7936C19.5625 13.7936 19.4595 13.6297 19.038 13.3054C19.3856 13.2609 19.7135 13.2495 19.9747 13.2495C20.4345 13.2495 20.5188 13.3173 20.5825 13.3514C20.5711 13.3881 20.5411 13.4574 20.464 13.5655Z" fill="white"/>
</g>
<defs>
<clipPath id="clip0_1012_46750">
<rect width="30" height="30" fill="white" transform="translate(0 0.5)"/>
</clipPath>
</defs>
</svg>
