<svg width="60" height="60" viewBox="0 0 60 60" fill="none" xmlns="http://www.w3.org/2000/svg">
<path d="M12.4531 16.0669L15.8505 12.6694L20.0348 16.8536L16.6374 20.251L12.4531 16.0669Z" fill="#0040BC"/>
<path d="M30.0026 51.0764C40.1393 51.0764 48.3567 42.859 48.3567 32.7223C48.3567 22.5856 40.1393 14.3682 30.0026 14.3682C19.8659 14.3682 11.6484 22.5856 11.6484 32.7223C11.6484 42.859 19.8659 51.0764 30.0026 51.0764Z" fill="white"/>
<path d="M30.0051 24.4875C25.4568 24.4875 21.7697 28.1746 21.7697 32.7228C21.7697 32.7531 21.7717 32.7829 21.772 32.813H15.4855C15.4853 32.7829 15.4844 32.753 15.4844 32.7228C15.4844 24.7034 21.9855 18.2021 30.0051 18.2021C30.0442 18.2021 30.0831 18.2033 30.1223 18.2037V24.4905C30.0831 24.4898 30.0443 24.4875 30.0051 24.4875Z" fill="#CDD2E1"/>
<path fill-rule="evenodd" clip-rule="evenodd" d="M31.7604 9.72656V12.6881C34.2093 12.9012 36.5339 13.5549 38.6543 14.5694L37.0039 17.6761C34.8755 16.6817 32.5027 16.1261 30.0026 16.1261C20.8513 16.1261 13.4062 23.5712 13.4062 32.7225C13.4062 41.8738 20.8513 49.3188 30.0026 49.3188C38.7879 49.3188 46.0006 42.4574 46.5635 33.812L50.0092 30.6558C50.0788 31.3353 50.1145 32.0248 50.1145 32.7224C50.1145 43.8122 41.0924 52.8343 30.0026 52.8343C18.9128 52.8343 9.89062 43.8122 9.89062 32.7224C9.89062 22.225 17.9752 13.5817 28.2448 12.6881V9.72656H31.7604Z" fill="#0040BC"/>
<path d="M26.0781 6.62109H33.9297V11.4258H26.0781V6.62109Z" fill="#0040BC"/>
<path d="M21.5938 27.8604L24.0005 25.2977L31.0126 31.8834L28.6058 34.446L21.5938 27.8604Z" fill="#0040BC"/>
<path d="M47.121 21.7037L55.4064 9H44.2481L36 24.6462H42.72L36.9103 38.8845L56.4545 21.7037H47.121Z" fill="url(#paint0_linear_730_11789)"/>
<defs>
<linearGradient id="paint0_linear_730_11789" x1="46.2272" y1="38.8845" x2="46.2272" y2="9" gradientUnits="userSpaceOnUse">
<stop stop-color="#D31924" stop-opacity="0.93"/>
<stop offset="1" stop-color="#FF2F3B"/>
</linearGradient>
</defs>
</svg>
