<svg width="360" height="360" viewBox="0 0 360 360" fill="none" xmlns="http://www.w3.org/2000/svg">
<path d="M270 45.5736C256.719 33.4702 241.154 24.1402 224.219 18.1305C207.285 12.1209 189.321 9.55257 171.381 10.5761C153.44 11.5997 135.885 16.1945 119.744 24.0913C103.603 31.988 89.2002 43.0277 77.3812 56.5632C65.5622 70.0987 56.5643 85.8575 50.9151 102.916C45.266 119.974 43.0791 137.989 44.4829 155.903C45.8866 173.817 50.8527 191.271 59.0899 207.242C67.3272 223.212 78.6698 237.377 92.4529 248.906C123.964 275.104 150.292 306.969 170.078 342.855C171.045 344.642 172.478 346.134 174.226 347.172C175.973 348.21 177.968 348.755 180 348.75C182.031 348.749 184.023 348.198 185.766 347.156C187.509 346.114 188.938 344.62 189.9 342.832L190.823 341.1C210.751 305.648 237.025 274.162 268.335 248.209C282.845 235.669 294.514 220.18 302.564 202.773C310.614 185.367 314.859 166.445 315.016 147.268C315.174 128.091 311.24 109.101 303.478 91.565C295.715 74.0289 284.302 58.3497 270 45.5736ZM180 202.5C168.875 202.5 158 199.201 148.75 193.02C139.499 186.839 132.29 178.054 128.032 167.776C123.775 157.497 122.661 146.187 124.831 135.276C127.002 124.365 132.359 114.342 140.226 106.475C148.092 98.6083 158.115 93.2511 169.027 91.0806C179.938 88.9102 191.248 90.0242 201.526 94.2816C211.805 98.539 220.59 105.749 226.771 114.999C232.951 124.249 236.25 135.125 236.25 146.25C236.233 161.163 230.3 175.46 219.755 186.005C209.21 196.55 194.913 202.482 180 202.5Z" fill="#F1F4F9"/>
</svg>
