<svg width="290" height="325" viewBox="0 0 290 325" fill="none" xmlns="http://www.w3.org/2000/svg">
<g opacity="0.1" clip-path="url(#clip0_723_10059)">
<path fill-rule="evenodd" clip-rule="evenodd" d="M0 72.0171V252.06L54.1456 279.297L90.8508 261.404V297.766L145 325V144.957L0 72.0171Z" fill="#BBC6D1"/>
<path d="M145 325L290 252.06V202.942L198.579 248.93V168.588L290 122.6V72.0171L145 144.957V325Z" fill="#9DA9B9"/>
<path fill-rule="evenodd" clip-rule="evenodd" d="M245.575 180.608L198.594 204.257L198.594 248.917L290.009 202.933L245.575 180.608Z" fill="#535A63"/>
<path fill-rule="evenodd" clip-rule="evenodd" d="M198.578 168.59L245.568 144.957V180.604L198.578 204.256V168.59Z" fill="#2D3136"/>
<path fill-rule="evenodd" clip-rule="evenodd" d="M290 72.017L145 144.957L0 72.017L145 0L198.583 26.6061V63.5308L235.528 44.9529L290 72.017Z" fill="#D3DAE2"/>
<path fill-rule="evenodd" clip-rule="evenodd" d="M54.1406 279.303V225.745L90.8495 244.211V261.403L54.1406 279.303Z" fill="#2D3136"/>
<path fill-rule="evenodd" clip-rule="evenodd" d="M90.8495 117.72V171.271L54.1406 152.805L54.1406 99.2541L100.027 76.1772L136.734 94.6349L90.8495 117.72Z" fill="#535A63"/>
<path fill-rule="evenodd" clip-rule="evenodd" d="M100.031 76.1772L136.733 94.6382L100.031 113.104V76.1772Z" fill="#2D3136"/>
<path fill-rule="evenodd" clip-rule="evenodd" d="M90.8495 134.338L54.1406 152.805L90.8495 171.271V134.338Z" fill="#2D3136"/>
<path fill-rule="evenodd" clip-rule="evenodd" d="M136.745 94.6411L190.881 121.883L145.005 144.957L90.8594 117.72L136.745 94.6411Z" fill="#636A73"/>
<path fill-rule="evenodd" clip-rule="evenodd" d="M289.991 72.0167L245.481 94.4067L191.336 67.1694L235.516 44.9526L289.991 72.0167Z" fill="#636A73"/>
<path fill-rule="evenodd" clip-rule="evenodd" d="M198.58 26.6025L154.641 48.7018L191.349 67.1662L198.58 63.5363V26.6025Z" fill="#2D3136"/>
</g>
<defs>
<clipPath id="clip0_723_10059">
<rect width="290" height="325" fill="white"/>
</clipPath>
</defs>
</svg>
