<svg width="360" height="360" viewBox="0 0 360 360" fill="none" xmlns="http://www.w3.org/2000/svg">
<path d="M235.389 196.873V55.3846C235.389 24.7965 210.593 0 180.005 0C149.417 0 124.62 24.7965 124.62 55.3846V196.873C102.985 213.523 89.0156 239.664 89.0156 269.011C89.0156 319.182 129.834 360 180.005 360C230.175 360 270.994 319.182 270.994 269.011C270.994 239.664 257.024 213.523 235.389 196.873ZM180.005 304.615C160.372 304.615 144.4 288.643 144.4 269.011C144.4 253.54 154.324 240.348 168.137 235.448V116.703H191.873V235.448C205.686 240.347 215.609 253.539 215.609 269.011C215.609 288.643 199.637 304.615 180.005 304.615Z" fill="#F1F4F9"/>
</svg>
