<svg width="360" height="360" viewBox="0 0 360 360" fill="none" xmlns="http://www.w3.org/2000/svg">
<path d="M29.1915 346.181C31.671 346.208 34.1369 345.812 36.4838 345.012C81.3429 329.513 179.629 296.177 233.141 269.41C237.585 267.199 243.219 264.031 247.534 258.567C251.871 253.103 254.486 245.173 253.062 235.436C253.005 235.074 252.912 234.718 252.786 234.373L230.037 170.677L201.017 199.719C195.615 205.12 188.289 208.154 180.65 208.154C173.011 208.154 165.685 205.12 160.282 199.719C149.099 188.557 149.099 170.167 160.282 158.984L189.324 129.964L125.628 107.216C125.288 107.088 124.926 107.003 124.565 106.96C114.828 105.536 106.919 108.151 101.434 112.488C95.97 116.804 92.8022 122.438 90.5911 126.881C63.8245 180.393 30.4883 278.68 14.9896 323.539C12.7573 329.959 13.4376 336.465 18.5188 341.504C21.3233 344.405 25.1574 346.085 29.1915 346.181ZM180.65 196.934C185.309 196.925 189.775 195.067 193.066 191.768L239.881 144.931L215.049 120.099L168.234 166.957C165.789 169.417 164.126 172.545 163.454 175.947C162.783 179.35 163.133 182.875 164.46 186.08C165.787 189.284 168.032 192.024 170.913 193.956C173.794 195.887 177.181 196.923 180.65 196.934ZM259.015 141.232C261.227 141.242 263.419 140.816 265.466 139.977C267.513 139.138 269.374 137.902 270.942 136.342L338.975 68.3517C345.235 62.0678 348.75 53.5592 348.75 44.6891C348.75 35.819 345.235 27.3104 338.975 21.0264C332.69 14.7597 324.177 11.2406 315.301 11.2406C306.426 11.2406 297.913 14.7597 291.628 21.0264L223.638 88.9955C220.492 92.1723 218.727 96.4623 218.727 100.933C218.727 105.404 220.492 109.694 223.638 112.871L247.13 136.342C248.696 137.9 250.553 139.134 252.596 139.973C254.639 140.812 256.806 141.24 259.015 141.232Z" fill="#F1F4F9"/>
</svg>
