<svg width="24" height="24" viewBox="0 0 24 24" fill="none" xmlns="http://www.w3.org/2000/svg">
<g clip-path="url(#clip0_775_20515)">
<path d="M12 24C5.38317 24 0 18.6168 0 12C0 5.38317 5.38317 0 12 0C18.6168 0 24 5.38317 24 12C24 18.6168 18.6168 24 12 24Z" fill="url(#paint0_linear_775_20515)"/>
<path d="M13.1169 14.8359C12.7852 15.057 12.3999 15.1739 12.0026 15.1739C11.6054 15.1739 11.2201 15.057 10.8883 14.8359L5.42471 11.1933C5.39455 11.1732 5.36495 11.1522 5.33594 11.1304V15.7657C5.33594 16.4501 5.89128 16.9932 6.56336 16.9932H17.4418C18.1261 16.9932 18.6692 16.4378 18.6692 15.7657V11.1304C18.6402 11.1522 18.6105 11.1732 18.5803 11.1934L13.1169 14.8359Z" fill="white"/>
<path d="M5.85807 9.21L11.3217 12.8525C11.5285 12.9904 11.7655 13.0594 12.0026 13.0594C12.2396 13.0594 12.4767 12.9904 12.6835 12.8525L18.1471 9.21C18.4741 8.99216 18.6693 8.62757 18.6693 8.23409C18.6693 7.5575 18.1188 7.00708 17.4423 7.00708H6.56294C5.88638 7.00711 5.33594 7.55752 5.33594 8.23474C5.33574 8.42776 5.38331 8.61783 5.47441 8.788C5.56552 8.95817 5.69732 9.10315 5.85807 9.21Z" fill="white"/>
</g>
<defs>
<linearGradient id="paint0_linear_775_20515" x1="12" y1="24" x2="12" y2="-3.87964e-07" gradientUnits="userSpaceOnUse">
<stop stop-color="#0040BC"/>
<stop offset="1" stop-color="#0047FF"/>
</linearGradient>
<clipPath id="clip0_775_20515">
<rect width="24" height="24" fill="white"/>
</clipPath>
</defs>
</svg>
