<svg width="24" height="24" viewBox="0 0 24 24" fill="none" xmlns="http://www.w3.org/2000/svg">
<circle cx="12" cy="12" r="12" fill="url(#paint0_linear_775_20523)"/>
<path d="M16.9907 17.1324C16.6079 17.6963 15.3202 18.0612 14.7273 18.0119C14.2167 17.9806 13.5586 17.8359 12.9344 17.5367C12.557 17.2917 12.0151 17.0105 11.4249 16.5567C8.71798 14.7464 7.43739 11.5486 7.32382 11.2806C7.19326 11.0899 6.41257 9.54106 6.71838 8.15014C7.0242 6.75923 7.90055 6.30384 8.21532 6.04901C8.53009 5.79419 8.85918 5.86654 9.10599 5.92081C9.27053 5.95699 9.51734 6.01125 9.68188 6.04743C9.84642 6.08361 10.1102 6.0606 10.2381 6.65578C10.366 7.25095 10.6361 8.76849 10.7014 8.86385C10.7496 9.03648 10.7157 9.19103 10.5994 9.32749C10.4832 9.46395 10.3669 9.6004 10.1684 9.71877C9.96987 9.83714 9.75436 10.0328 9.6551 10.092C9.45658 10.2103 9.25806 10.3287 9.37163 10.5967C9.46821 10.942 9.85722 11.9186 10.5923 12.8903C11.5402 14.0708 12.3772 14.5789 12.6723 14.8058C12.9674 15.0327 13.149 14.9916 13.3475 14.8732C13.546 14.7548 14.2578 14.2633 14.4903 13.9904C14.7228 13.7175 14.9526 13.849 15.1825 13.9805C15.4123 14.1121 16.7403 15.1331 16.9531 15.3419C17.2482 15.5688 17.3957 15.6823 17.461 15.7776C17.4923 16.0276 17.3734 16.5685 16.9907 17.1324Z" fill="white"/>
<defs>
<linearGradient id="paint0_linear_775_20523" x1="12" y1="24" x2="12" y2="-3.87964e-07" gradientUnits="userSpaceOnUse">
<stop stop-color="#0040BC"/>
<stop offset="1" stop-color="#0047FF"/>
</linearGradient>
</defs>
</svg>
