<svg width="170" height="83" viewBox="0 0 170 83" fill="none" xmlns="http://www.w3.org/2000/svg">
<g clip-path="url(#clip0_674_6850)">
<g clip-path="url(#clip1_674_6850)">
<path fill-rule="evenodd" clip-rule="evenodd" d="M0 18.3129V64.0949L13.7623 71.0209L23.0918 66.4711V75.7174L36.855 82.6425V36.8605L0 18.3129Z" fill="#BBC6D1"/>
<path d="M36.8555 82.6425L73.7104 64.0949V51.605L50.4738 63.2991V42.8693L73.7104 31.1753V18.3129L36.8555 36.8605V82.6425Z" fill="#9DA9B9"/>
<path fill-rule="evenodd" clip-rule="evenodd" d="M62.4179 45.9258L50.4766 51.9393L50.4766 63.2958L73.7119 51.6027L62.4179 45.9258Z" fill="#535A63"/>
<path fill-rule="evenodd" clip-rule="evenodd" d="M50.4727 42.8699L62.4163 36.8604V45.9248L50.4727 51.9392V42.8699Z" fill="#2D3136"/>
<path fill-rule="evenodd" clip-rule="evenodd" d="M73.7099 18.3128L36.855 36.8604L0 18.3128L36.855 0L50.4742 6.7655V16.1549L59.8647 11.4308L73.7099 18.3128Z" fill="#D3DAE2"/>
<path fill-rule="evenodd" clip-rule="evenodd" d="M13.7617 71.0224V57.4033L23.0921 62.0989V66.4708L13.7617 71.0224Z" fill="#2D3136"/>
<path fill-rule="evenodd" clip-rule="evenodd" d="M23.0921 29.9344V43.5516L13.7617 38.856L13.7617 25.2388L25.4247 19.3707L34.7546 24.0642L23.0921 29.9344Z" fill="#535A63"/>
<path fill-rule="evenodd" clip-rule="evenodd" d="M25.4258 19.3707L34.7543 24.0651L25.4258 28.7607V19.3707Z" fill="#2D3136"/>
<path fill-rule="evenodd" clip-rule="evenodd" d="M23.0921 34.1602L13.7617 38.856L23.0921 43.5516V34.1602Z" fill="#2D3136"/>
<path fill-rule="evenodd" clip-rule="evenodd" d="M34.7567 24.0658L48.5165 30.993L36.856 36.8604L23.0938 29.9344L34.7567 24.0658Z" fill="#636A73"/>
<path fill-rule="evenodd" clip-rule="evenodd" d="M73.7082 18.3128L62.3951 24.0062L48.6328 17.0802L59.8621 11.4308L73.7082 18.3128Z" fill="#636A73"/>
<path fill-rule="evenodd" clip-rule="evenodd" d="M50.4728 6.76453L39.3047 12.384L48.6349 17.0792L50.4728 16.1562V6.76453Z" fill="#2D3136"/>
</g>
<path d="M90.0391 19.2893L90.7342 18.4897C91.5353 19.2293 92.3364 19.7691 93.1375 20.109C93.9453 20.4488 94.8589 20.6187 95.8785 20.6187C96.9312 20.6187 97.8051 20.3355 98.5003 19.7691C99.2021 19.2027 99.553 18.463 99.553 17.5501C99.553 16.6238 99.1822 15.8974 98.4407 15.371C97.6992 14.8445 96.6664 14.5813 95.3422 14.5813H93.8029V13.6417H95.3621C96.4744 13.6417 97.3847 13.3718 98.0931 12.8321C98.8081 12.2923 99.1657 11.5526 99.1657 10.613C99.1657 9.78003 98.8313 9.09366 98.1626 8.55389C97.5006 8.01412 96.6564 7.74423 95.6302 7.74423C94.0677 7.74423 92.6311 8.284 91.3202 9.36354L90.6846 8.54389C91.4261 7.94415 92.1875 7.501 92.9687 7.21446C93.7566 6.92791 94.657 6.78464 95.6699 6.78464C97.0272 6.78464 98.1328 7.14449 98.9869 7.86418C99.841 8.58387 100.268 9.50015 100.268 10.613C100.268 11.0861 100.192 11.5193 100.04 11.9125C99.8873 12.299 99.6755 12.6255 99.404 12.892C99.1392 13.1586 98.8545 13.3818 98.5499 13.5618C98.252 13.7417 97.9243 13.8916 97.5668 14.0116C98.5069 14.2848 99.255 14.7179 99.8112 15.311C100.374 15.9041 100.655 16.6571 100.655 17.57C100.655 18.6962 100.202 19.6492 99.2948 20.4288C98.3944 21.2018 97.2424 21.5883 95.8388 21.5883C94.7133 21.5883 93.6804 21.4017 92.7403 21.0286C91.8068 20.6487 90.9064 20.069 90.0391 19.2893Z" fill="white"/>
<path d="M103.949 21.3384L110.583 6.90459H111.596L118.23 21.3384H117.068L115.26 17.3301H106.859L105.051 21.3384H103.949ZM107.306 16.3606H114.813L111.069 8.07409L107.306 16.3606Z" fill="white"/>
<path d="M122.357 21.3384V7.00455H128.237C129.633 7.00455 130.752 7.32774 131.593 7.97413C132.434 8.62052 132.854 9.48682 132.854 10.573C132.854 11.0395 132.785 11.466 132.646 11.8525C132.507 12.239 132.315 12.5688 132.07 12.8421C131.825 13.1086 131.57 13.3319 131.305 13.5118C131.04 13.6917 130.749 13.845 130.431 13.9716C132.576 14.538 133.649 15.6908 133.649 17.4301C133.649 18.6229 133.182 19.5725 132.249 20.2789C131.322 20.9853 130.087 21.3384 128.544 21.3384H122.357ZM123.41 20.3589H128.584C129.809 20.3589 130.779 20.0956 131.494 19.5692C132.209 19.0361 132.566 18.3097 132.566 17.3901C132.566 16.5038 132.192 15.8175 131.444 15.331C130.703 14.8445 129.633 14.6013 128.237 14.6013H123.41V20.3589ZM123.41 13.6217H128.117C129.216 13.6217 130.1 13.3618 130.769 12.8421C131.438 12.3223 131.772 11.5859 131.772 10.633C131.772 9.83334 131.457 9.19361 130.829 8.71382C130.206 8.23402 129.336 7.99412 128.217 7.99412H123.41V13.6217Z" fill="white"/>
<path d="M137.528 14.1715C137.528 13.1986 137.701 12.2656 138.045 11.3727C138.396 10.4731 138.876 9.6834 139.485 9.00369C140.101 8.32398 140.862 7.78088 141.769 7.37439C142.676 6.9679 143.653 6.76465 144.699 6.76465C145.751 6.76465 146.728 6.9679 147.628 7.37439C148.529 7.77422 149.283 8.31399 149.892 8.9937C150.502 9.66675 150.978 10.4531 151.323 11.3527C151.667 12.2456 151.839 13.1852 151.839 14.1715C151.839 15.1444 151.664 16.0807 151.313 16.9803C150.968 17.8732 150.488 18.6629 149.873 19.3493C149.257 20.029 148.496 20.5721 147.589 20.9786C146.681 21.3851 145.705 21.5883 144.659 21.5883C143.606 21.5883 142.63 21.3884 141.729 20.9886C140.829 20.5821 140.074 20.039 139.465 19.3593C138.862 18.6796 138.389 17.8932 138.045 17.0003C137.701 16.1007 137.528 15.1577 137.528 14.1715ZM138.621 14.1715C138.621 15.3443 138.879 16.4239 139.395 17.4101C139.918 18.3897 140.647 19.1694 141.58 19.7491C142.514 20.3289 143.553 20.6187 144.699 20.6187C145.844 20.6187 146.88 20.3322 147.807 19.7591C148.741 19.1794 149.462 18.3997 149.972 17.4201C150.488 16.4405 150.747 15.3577 150.747 14.1715C150.747 13.2985 150.591 12.4656 150.28 11.6726C149.975 10.8796 149.555 10.1965 149.019 9.62343C148.489 9.04368 147.843 8.58387 147.082 8.24402C146.327 7.8975 145.52 7.72424 144.659 7.72424C143.513 7.72424 142.477 8.01412 141.55 8.59387C140.624 9.16696 139.902 9.94329 139.385 10.9229C138.876 11.9025 138.621 12.9853 138.621 14.1715Z" fill="white"/>
<path d="M154.636 20.3589H156.165C156.894 19.3326 157.453 17.9166 157.844 16.1107C158.241 14.3048 158.44 12.2823 158.44 10.0433V7.00455H167.169V20.3589H169.105L168.897 24.617H168.003V21.3384H155.738L155.54 24.617H154.636V20.3589ZM157.387 20.3589H166.116V7.99412H159.482V10.8129C159.482 12.7588 159.294 14.598 158.916 16.3306C158.545 18.0565 158.036 19.3993 157.387 20.3589Z" fill="white"/>
<path d="M90.0391 57.4995H94.8699V45.838H107.988V57.4995H112.818V29.828H107.988V41.3315H94.8699V29.828H90.0391V57.4995Z" fill="white"/>
<path d="M126.634 57.4995H131.504V34.3345H140.223V29.828H117.915V34.3345H126.634V57.4995Z" fill="white"/>
<path d="M158.11 57.9739C163.255 57.9739 166.397 56.0764 169.264 53.0721L166.162 49.9096C163.805 52.1233 161.645 53.5069 158.267 53.5069C153.004 53.5069 149.195 49.0795 149.195 43.6638C149.195 38.169 153.004 33.8206 158.267 33.8206C161.409 33.8206 163.766 35.2042 165.965 37.2598L169.068 33.6625C166.436 31.1325 163.373 29.3536 158.307 29.3536C149.98 29.3536 144.128 35.7971 144.128 43.6638C144.128 51.6885 150.098 57.9739 158.11 57.9739Z" fill="white"/>
<path d="M91.4994 65.6583C90.8877 65.6583 90.4979 65.8735 90.1673 66.2014L90.493 66.6114C90.7545 66.35 91.0505 66.2117 91.46 66.2117C91.8448 66.2117 92.1112 66.4115 92.1112 66.7138C92.1112 67.052 91.8399 67.2365 91.4008 67.2365H91.0159V67.7592H91.4057C91.8547 67.7592 92.1951 67.9129 92.1951 68.2818C92.1951 68.62 91.8843 68.8199 91.5192 68.8199C91.0505 68.8199 90.6804 68.6508 90.3696 68.3433L90.0391 68.7789C90.4239 69.1632 90.863 69.3682 91.534 69.3682C92.3036 69.3682 92.8019 68.9121 92.8019 68.3177C92.8019 67.8514 92.5109 67.5798 92.126 67.4568C92.4319 67.3236 92.7131 67.0828 92.7131 66.6216C92.7131 66.0631 92.2148 65.6583 91.4994 65.6583Z" fill="white"/>
<path d="M93.3174 69.3067H93.9391L94.2943 68.4407H95.9274L96.2777 69.3067H96.9191L95.3995 65.6941H94.837L93.3174 69.3067ZM94.5163 67.8821L95.1084 66.4474L95.7054 67.8821H94.5163Z" fill="white"/>
<path d="M97.61 69.3067H99.2085C99.9781 69.3067 100.486 68.9633 100.486 68.3228C100.486 67.8258 100.205 67.5849 99.8005 67.4415C100.057 67.3031 100.294 67.0725 100.294 66.6421C100.294 66.391 100.215 66.1963 100.062 66.0375C99.8647 65.8325 99.5539 65.7198 99.1592 65.7198H97.61V69.3067ZM98.2069 67.2314V66.2783H99.0802C99.47 66.2783 99.6871 66.4525 99.6871 66.7343C99.6871 67.0725 99.4256 67.2314 99.0358 67.2314H98.2069ZM98.2069 68.7481V67.7643H99.169C99.6476 67.7643 99.8795 67.9436 99.8795 68.246C99.8795 68.579 99.6279 68.7481 99.2134 68.7481H98.2069Z" fill="white"/>
<path d="M102.917 69.3682C103.978 69.3682 104.728 68.5227 104.728 67.5132C104.728 66.4935 103.988 65.6583 102.927 65.6583C101.866 65.6583 101.116 66.5038 101.116 67.5132C101.116 68.5329 101.856 69.3682 102.917 69.3682ZM102.927 68.7891C102.241 68.7891 101.753 68.2101 101.753 67.5132C101.753 66.8061 102.231 66.2373 102.917 66.2373C103.603 66.2373 104.091 66.8163 104.091 67.5132C104.091 68.2203 103.613 68.7891 102.927 68.7891Z" fill="white"/>
<path d="M105.165 70.0753H105.698L105.757 69.3067H108.189V70.0753H108.693L108.776 68.743H108.347V65.7198H105.94V66.227C105.94 67.4261 105.787 68.1537 105.5 68.743H105.165V70.0753ZM106.147 68.743C106.384 68.246 106.522 67.5286 106.522 66.6985V66.2885H107.74V68.743H106.147Z" fill="white"/>
<path d="M110.994 69.3067H111.601V67.795H113.249V69.3067H113.856V65.7198H113.249V67.2109H111.601V65.7198H110.994V69.3067Z" fill="white"/>
<path d="M116.489 69.3682C117.55 69.3682 118.3 68.5227 118.3 67.5132C118.3 66.4935 117.56 65.6583 116.499 65.6583C115.438 65.6583 114.688 66.5038 114.688 67.5132C114.688 68.5329 115.428 69.3682 116.489 69.3682ZM116.499 68.7891C115.813 68.7891 115.325 68.2101 115.325 67.5132C115.325 66.8061 115.803 66.2373 116.489 66.2373C117.175 66.2373 117.663 66.8163 117.663 67.5132C117.663 68.2203 117.185 68.7891 116.499 68.7891Z" fill="white"/>
<path d="M119.132 69.3067H120.73C121.5 69.3067 122.008 68.9633 122.008 68.3228C122.008 67.8258 121.727 67.5849 121.322 67.4415C121.579 67.3031 121.816 67.0725 121.816 66.6421C121.816 66.391 121.737 66.1963 121.584 66.0375C121.386 65.8325 121.076 65.7198 120.681 65.7198H119.132V69.3067ZM119.729 67.2314V66.2783H120.602C120.992 66.2783 121.209 66.4525 121.209 66.7343C121.209 67.0725 120.947 67.2314 120.558 67.2314H119.729ZM119.729 68.7481V67.7643H120.691C121.169 67.7643 121.401 67.9436 121.401 68.246C121.401 68.579 121.15 68.7481 120.735 68.7481H119.729Z" fill="white"/>
<path d="M122.791 69.3067H124.182C124.982 69.3067 125.485 68.8557 125.485 68.1332C125.485 67.4107 124.962 67.011 124.187 67.011H123.393V65.7198H122.791V69.3067ZM123.393 68.743V67.5593H124.163C124.621 67.5593 124.883 67.7592 124.883 68.1281C124.883 68.5329 124.621 68.743 124.172 68.743H123.393ZM125.894 69.3067H126.496V65.7198H125.894V69.3067Z" fill="white"/>
<path d="M127.22 69.3067H127.915L128.828 67.9488L129.736 69.3067H130.451L129.198 67.4722L130.402 65.7198H129.706L128.843 67.0059L127.985 65.7198H127.269L128.478 67.4825L127.22 69.3067Z" fill="white"/>
<path d="M133.601 69.3067H134.212V66.3039H135.308V65.7198H132.505V66.3039H133.601V69.3067Z" fill="white"/>
<path d="M136.05 69.3067H138.635V68.743H136.657V67.7797H138.389V67.216H136.657V66.2834H138.611V65.7198H136.05V69.3067Z" fill="white"/>
<path d="M139.192 69.3067H139.888L140.801 67.9488L141.709 69.3067H142.424L141.171 67.4722L142.375 65.7198H141.679L140.816 67.0059L139.957 65.7198H139.242L140.45 67.4825L139.192 69.3067Z" fill="white"/>
<path d="M143.147 69.3067H143.754V67.795H145.402V69.3067H146.008V65.7198H145.402V67.2109H143.754V65.7198H143.147V69.3067Z" fill="white"/>
<path d="M148.642 69.3682C149.703 69.3682 150.452 68.5227 150.452 67.5132C150.452 66.4935 149.712 65.6583 148.652 65.6583C147.591 65.6583 146.841 66.5038 146.841 67.5132C146.841 68.5329 147.581 69.3682 148.642 69.3682ZM148.652 68.7891C147.966 68.7891 147.477 68.2101 147.477 67.5132C147.477 66.8061 147.956 66.2373 148.642 66.2373C149.328 66.2373 149.816 66.8163 149.816 67.5132C149.816 68.2203 149.337 68.7891 148.652 68.7891Z" fill="white"/>
<path d="M151.284 69.3477C151.965 69.3477 152.365 68.8916 152.365 66.6114V66.2885H153.559V69.3067H154.166V65.7198H151.797V66.4269C151.797 68.5739 151.472 68.8045 151.122 68.8045C151.048 68.8045 150.969 68.7891 150.924 68.7738L150.865 69.2913C150.959 69.3169 151.151 69.3477 151.284 69.3477Z" fill="white"/>
<path d="M156.803 69.3682C157.864 69.3682 158.614 68.5227 158.614 67.5132C158.614 66.4935 157.874 65.6583 156.813 65.6583C155.753 65.6583 155.003 66.5038 155.003 67.5132C155.003 68.5329 155.743 69.3682 156.803 69.3682ZM156.813 68.7891C156.128 68.7891 155.639 68.2101 155.639 67.5132C155.639 66.8061 156.118 66.2373 156.803 66.2373C157.489 66.2373 157.978 66.8163 157.978 67.5132C157.978 68.2203 157.499 68.7891 156.813 68.7891Z" fill="white"/>
<path d="M159.446 69.3067H160.048V66.2885H161.77V65.7198H159.446V69.3067Z" fill="white"/>
<path d="M162.474 69.3067H163.046L164.788 66.6933V69.3067H165.385V65.7198H164.818L163.071 68.3382V65.7198H162.474V69.3067Z" fill="white"/>
<path d="M167.854 65.4379C168.274 65.4379 168.565 65.1612 168.629 64.7205L168.264 64.6488C168.2 64.864 168.076 64.9972 167.854 64.9972C167.632 64.9972 167.504 64.864 167.445 64.6488L167.075 64.7205C167.144 65.1612 167.435 65.4379 167.854 65.4379ZM166.379 69.3067H166.951L168.693 66.6933V69.3067H169.29V65.7198H168.723L166.976 68.3382V65.7198H166.379V69.3067Z" fill="white"/>
<path d="M108.246 75.5904C108.892 75.5904 109.287 75.3444 109.647 74.955L109.257 74.545C108.961 74.832 108.69 75.0113 108.266 75.0113C107.604 75.0113 107.126 74.4374 107.126 73.7354C107.126 73.0231 107.604 72.4595 108.266 72.4595C108.66 72.4595 108.956 72.6388 109.233 72.9053L109.622 72.439C109.292 72.111 108.907 71.8805 108.271 71.8805C107.225 71.8805 106.489 72.7157 106.489 73.7354C106.489 74.7756 107.239 75.5904 108.246 75.5904Z" fill="white"/>
<path d="M111.232 75.5289H111.844V72.5261H112.939V71.9419H110.137V72.5261H111.232V75.5289Z" fill="white"/>
<path d="M113.681 75.5289H114.288V74.3759H114.974C115.734 74.3759 116.356 73.9557 116.356 73.1513C116.356 72.4185 115.847 71.9419 115.043 71.9419H113.681V75.5289ZM114.288 73.8071V72.5159H114.994C115.448 72.5159 115.739 72.7362 115.739 73.1564C115.739 73.5407 115.453 73.8071 114.994 73.8071H114.288Z" fill="white"/>
<path d="M118.724 75.5904C119.784 75.5904 120.534 74.7449 120.534 73.7354C120.534 72.7157 119.794 71.8805 118.733 71.8805C117.673 71.8805 116.923 72.7259 116.923 73.7354C116.923 74.7551 117.663 75.5904 118.724 75.5904ZM118.733 75.0113C118.048 75.0113 117.559 74.4323 117.559 73.7354C117.559 73.0283 118.038 72.4595 118.724 72.4595C119.409 72.4595 119.898 73.0385 119.898 73.7354C119.898 74.4425 119.419 75.0113 118.733 75.0113Z" fill="white"/>
<path d="M121.366 75.5289H121.938L123.68 72.9155V75.5289H124.277V71.9419H123.71L121.963 74.5604V71.9419H121.366V75.5289Z" fill="white"/>
<path d="M126.12 75.5289H126.731V72.5261H127.827V71.9419H125.024V72.5261H126.12V75.5289Z" fill="white"/>
<path d="M128.569 75.5289H131.154V74.9652H129.176V74.0019H130.908V73.4382H129.176V72.5056H131.13V71.9419H128.569V75.5289Z" fill="white"/>
<path d="M131.973 75.5699C132.654 75.5699 133.053 75.1138 133.053 72.8336V72.5107H134.247V75.5289H134.854V71.9419H132.486V72.6491C132.486 74.7961 132.16 75.0267 131.81 75.0267C131.736 75.0267 131.657 75.0113 131.613 74.996L131.553 75.5135C131.647 75.5391 131.84 75.5699 131.973 75.5699Z" fill="white"/>
<path d="M135.844 75.5289H137.235C138.035 75.5289 138.538 75.0779 138.538 74.3554C138.538 73.6329 138.015 73.2332 137.24 73.2332H136.446V71.9419H135.844V75.5289ZM136.446 74.9652V73.7815H137.216C137.674 73.7815 137.936 73.9814 137.936 74.3503C137.936 74.7551 137.674 74.9652 137.225 74.9652H136.446Z" fill="white"/>
<path d="M140.875 75.5904C141.522 75.5904 141.916 75.3444 142.277 74.955L141.887 74.545C141.591 74.832 141.32 75.0113 140.895 75.0113C140.234 75.0113 139.756 74.4374 139.756 73.7354C139.756 73.0231 140.234 72.4595 140.895 72.4595C141.29 72.4595 141.586 72.6388 141.862 72.9053L142.252 72.439C141.921 72.111 141.537 71.8805 140.9 71.8805C139.854 71.8805 139.119 72.7157 139.119 73.7354C139.119 74.7756 139.869 75.5904 140.875 75.5904Z" fill="white"/>
<path d="M143.862 75.5289H144.474V72.5261H145.569V71.9419H142.766V72.5261H143.862V75.5289Z" fill="white"/>
<path d="M146.311 75.5289H147.91C148.679 75.5289 149.187 75.1855 149.187 74.545C149.187 74.048 148.906 73.8071 148.502 73.6637C148.758 73.5253 148.995 73.2947 148.995 72.8643C148.995 72.6132 148.916 72.4185 148.763 72.2596C148.566 72.0547 148.255 71.9419 147.86 71.9419H146.311V75.5289ZM146.908 73.4536V72.5005H147.781C148.171 72.5005 148.388 72.6747 148.388 72.9565C148.388 73.2947 148.127 73.4536 147.737 73.4536H146.908ZM146.908 74.9703V73.9865H147.87C148.349 73.9865 148.581 74.1658 148.581 74.4682C148.581 74.8012 148.329 74.9703 147.915 74.9703H146.908Z" fill="white"/>
<path d="M149.674 75.5289H150.296L150.651 74.6629H152.284L152.634 75.5289H153.276L151.756 71.9163H151.194L149.674 75.5289ZM150.873 74.1043L151.465 72.6696L152.062 74.1043H150.873Z" fill="white"/>
</g>
<defs>
<clipPath id="clip0_674_6850">
<rect width="170" height="83" fill="white"/>
</clipPath>
<clipPath id="clip1_674_6850">
<rect width="73.7099" height="82.6424" fill="white"/>
</clipPath>
</defs>
</svg>
