<svg width="134" height="60" viewBox="0 0 134 60" fill="none" xmlns="http://www.w3.org/2000/svg">
<g clip-path="url(#clip0_415_1498)">
<g clip-path="url(#clip1_415_1498)">
<path fill-rule="evenodd" clip-rule="evenodd" d="M0 13.2954V46.534L10.0823 51.5625L16.9171 48.2592V54.9722L27 60V26.7613L0 13.2954Z" fill="#BBC6D1"/>
<path d="M27 60L54 46.534V37.4662L36.9768 45.9563V31.1239L54 22.6338V13.2954L27 26.7613V60Z" fill="#9DA9B9"/>
<path fill-rule="evenodd" clip-rule="evenodd" d="M45.7268 33.3428L36.9785 37.7087L36.9785 45.9537L54.0007 37.4643L45.7268 33.3428Z" fill="#535A63"/>
<path fill-rule="evenodd" clip-rule="evenodd" d="M36.9766 31.1244L45.7265 26.7614V33.3423L36.9766 37.7089V31.1244Z" fill="#262626"/>
<path fill-rule="evenodd" clip-rule="evenodd" d="M54 13.2955L27 26.7614L0 13.2955L27 0L36.9775 4.91189V11.7288L43.857 8.29901L54 13.2955Z" fill="#D3DAE2"/>
<path fill-rule="evenodd" clip-rule="evenodd" d="M10.082 51.5638V41.6761L16.9175 45.0852V48.2593L10.082 51.5638Z" fill="#262626"/>
<path fill-rule="evenodd" clip-rule="evenodd" d="M16.9175 21.7329V31.6193L10.082 28.2102L10.082 18.3238L18.6263 14.0635L25.4614 17.471L16.9175 21.7329Z" fill="#535A63"/>
<path fill-rule="evenodd" clip-rule="evenodd" d="M18.627 14.0635L25.461 17.4717L18.627 20.8808V14.0635Z" fill="#262626"/>
<path fill-rule="evenodd" clip-rule="evenodd" d="M16.9175 24.8009L10.082 28.2102L16.9175 31.6193V24.8009Z" fill="#262626"/>
<path fill-rule="evenodd" clip-rule="evenodd" d="M25.4623 17.4722L35.5427 22.5014L27.0002 26.7613L16.918 21.7329L25.4623 17.4722Z" fill="#636A73"/>
<path fill-rule="evenodd" clip-rule="evenodd" d="M53.9992 13.2953L45.7112 17.4288L35.6289 12.4004L43.8555 8.29883L53.9992 13.2953Z" fill="#636A73"/>
<path fill-rule="evenodd" clip-rule="evenodd" d="M36.9767 4.91113L28.7949 8.991L35.6303 12.3998L36.9767 11.7297V4.91113Z" fill="#262626"/>
</g>
<path d="M70 19.1112L70.5612 18.4657C71.208 19.0628 71.8547 19.4986 72.5014 19.773C73.1535 20.0473 73.8911 20.1845 74.7142 20.1845C75.5641 20.1845 76.2696 19.9559 76.8308 19.4986C77.3974 19.0413 77.6806 18.4442 77.6806 17.7071C77.6806 16.9593 77.3813 16.3729 76.7827 15.9479C76.1841 15.5229 75.3503 15.3104 74.2813 15.3104H73.0386V14.5519H74.2973C75.1953 14.5519 75.9302 14.334 76.5021 13.8983C77.0793 13.4625 77.368 12.8654 77.368 12.1068C77.368 11.4343 77.098 10.8802 76.5582 10.4445C76.0237 10.0087 75.3422 9.79082 74.5138 9.79082C73.2524 9.79082 72.0925 10.2266 71.0342 11.0981L70.5211 10.4364C71.1198 9.95222 71.7344 9.59446 72.3651 9.36313C73.0012 9.1318 73.7281 9.01614 74.5458 9.01614C75.6416 9.01614 76.5342 9.30665 77.2237 9.88766C77.9131 10.4687 78.2579 11.2084 78.2579 12.1068C78.2579 12.4888 78.1964 12.8385 78.0735 13.1559C77.9506 13.4679 77.7795 13.7315 77.5604 13.9467C77.3466 14.1619 77.1168 14.3421 76.8709 14.4873C76.6304 14.6326 76.3658 14.7536 76.0772 14.8505C76.8361 15.071 77.4401 15.4207 77.8891 15.8995C78.3434 16.3783 78.5706 16.9862 78.5706 17.7233C78.5706 18.6324 78.2044 19.4017 77.4722 20.0312C76.7453 20.6552 75.8153 20.9673 74.6821 20.9673C73.7735 20.9673 72.9397 20.8166 72.1807 20.5154C71.4271 20.2087 70.7002 19.7407 70 19.1112Z" fill="#262626"/>
<path d="M81.2295 20.7655L86.5851 9.11297H87.4028L92.7584 20.7655H91.8204L90.3612 17.5296H83.5785L82.1194 20.7655H81.2295ZM83.9393 16.7468H90.0005L86.9779 10.0571L83.9393 16.7468Z" fill="#262626"/>
<path d="M96.0908 20.7655V9.19367H100.837C101.965 9.19367 102.868 9.45459 103.547 9.97642C104.226 10.4983 104.565 11.1976 104.565 12.0745C104.565 12.4511 104.509 12.7954 104.397 13.1074C104.285 13.4195 104.13 13.6858 103.932 13.9063C103.734 14.1215 103.528 14.3017 103.314 14.447C103.101 14.5923 102.865 14.716 102.609 14.8182C104.341 15.2755 105.207 16.2062 105.207 17.6103C105.207 18.5733 104.83 19.3399 104.076 19.9101C103.328 20.4804 102.331 20.7655 101.086 20.7655H96.0908ZM96.9406 19.9747H101.118C102.106 19.9747 102.889 19.7622 103.467 19.3372C104.044 18.9068 104.333 18.3204 104.333 17.578C104.333 16.8625 104.031 16.3084 103.427 15.9157C102.828 15.5229 101.965 15.3266 100.837 15.3266H96.9406V19.9747ZM96.9406 14.5358H100.741C101.628 14.5358 102.342 14.326 102.881 13.9063C103.421 13.4867 103.691 12.8922 103.691 12.1229C103.691 11.4774 103.437 10.9609 102.93 10.5736C102.427 10.1862 101.724 9.99256 100.821 9.99256H96.9406V14.5358Z" fill="#262626"/>
<path d="M108.338 14.9796C108.338 14.1941 108.477 13.441 108.755 12.7201C109.039 11.9938 109.426 11.3563 109.918 10.8076C110.415 10.2589 111.03 9.82041 111.762 9.49225C112.494 9.16408 113.282 9 114.127 9C114.977 9 115.765 9.16408 116.492 9.49225C117.219 9.81503 117.828 10.2508 118.32 10.7995C118.812 11.3429 119.197 11.9777 119.475 12.704C119.752 13.4248 119.891 14.1834 119.891 14.9796C119.891 15.765 119.75 16.5209 119.467 17.2472C119.189 17.968 118.801 18.6055 118.304 19.1597C117.807 19.7084 117.192 20.1468 116.46 20.475C115.728 20.8032 114.939 20.9673 114.095 20.9673C113.245 20.9673 112.457 20.8059 111.73 20.4831C111.003 20.1549 110.394 19.7165 109.902 19.1677C109.415 18.619 109.033 17.9842 108.755 17.2633C108.477 16.537 108.338 15.7758 108.338 14.9796ZM109.22 14.9796C109.22 15.9264 109.429 16.7979 109.846 17.5942C110.268 18.385 110.856 19.0144 111.61 19.4824C112.363 19.9505 113.202 20.1845 114.127 20.1845C115.052 20.1845 115.888 19.9532 116.636 19.4905C117.39 19.0225 117.973 18.393 118.384 17.6022C118.801 16.8114 119.01 15.9372 119.01 14.9796C119.01 14.2748 118.884 13.6024 118.633 12.9622C118.387 12.322 118.047 11.7706 117.615 11.3079C117.187 10.8399 116.666 10.4687 116.051 10.1943C115.442 9.91456 114.79 9.77468 114.095 9.77468C113.17 9.77468 112.334 10.0087 111.585 10.4767C110.837 10.9394 110.255 11.5661 109.838 12.357C109.426 13.1478 109.22 14.022 109.22 14.9796Z" fill="#262626"/>
<path d="M122.149 19.9747H123.384C123.972 19.1462 124.424 18.003 124.739 16.5451C125.06 15.0872 125.22 13.4544 125.22 11.6468V9.19367H132.267V19.9747H133.831L133.662 23.4124H132.941V20.7655H123.039L122.879 23.4124H122.149V19.9747ZM124.37 19.9747H131.418V9.99256H126.062V12.2682C126.062 13.8391 125.91 15.3239 125.605 16.7226C125.306 18.116 124.894 19.2 124.37 19.9747Z" fill="#262626"/>
<path d="M70 49.9583H73.8999V40.5439H84.49V49.9583H88.3899V27.6189H84.49V36.9057H73.8999V27.6189H70V49.9583Z" fill="#262626"/>
<path d="M99.5433 49.9583H103.475V31.2571H110.514V27.6189H92.5044V31.2571H99.5433V49.9583Z" fill="#262626"/>
<path d="M124.954 50.3413C129.108 50.3413 131.644 48.8094 133.959 46.384L131.454 43.8309C129.552 45.6181 127.808 46.7351 125.081 46.7351C120.832 46.7351 117.757 43.1608 117.757 38.7886C117.757 34.3527 120.832 30.8422 125.081 30.8422C127.618 30.8422 129.52 31.9591 131.296 33.6186L133.8 30.7145C131.676 28.6721 129.203 27.236 125.113 27.236C118.391 27.236 113.667 32.4378 113.667 38.7886C113.667 45.267 118.486 50.3413 124.954 50.3413Z" fill="#262626"/>
</g>
<defs>
<clipPath id="clip0_415_1498">
<rect width="134" height="60" fill="white"/>
</clipPath>
<clipPath id="clip1_415_1498">
<rect width="54" height="60" fill="white"/>
</clipPath>
</defs>
</svg>
