<svg width="98" height="44" viewBox="0 0 98 44" fill="none" xmlns="http://www.w3.org/2000/svg">
<g clip-path="url(#clip0_1115_18911)">
<g clip-path="url(#clip1_1115_18911)">
<path fill-rule="evenodd" clip-rule="evenodd" d="M0 9.75V34.125L7.37361 37.8125L12.3722 35.3901V40.313L19.7463 44V19.625L0 9.75Z" fill="#BBC6D1"/>
<path d="M19.7461 44L39.4924 34.125V27.4752L27.0426 33.7013V22.8242L39.4924 16.5981V9.75L19.7461 19.625V44Z" fill="#9DA9B9"/>
<path fill-rule="evenodd" clip-rule="evenodd" d="M33.4449 24.4514L27.0469 27.6531L27.0469 33.6995L39.496 27.4739L33.4449 24.4514Z" fill="#535A63"/>
<path fill-rule="evenodd" clip-rule="evenodd" d="M27.043 22.8246L33.4422 19.625V24.451L27.043 27.6532V22.8246Z" fill="#262626"/>
<path fill-rule="evenodd" clip-rule="evenodd" d="M39.4925 9.75L19.7463 19.625L0 9.75L19.7463 0L27.0432 3.60205V8.6011L32.0745 6.08594L39.4925 9.75Z" fill="#D3DAE2"/>
<path fill-rule="evenodd" clip-rule="evenodd" d="M7.375 37.8135V30.5625L12.3741 33.0625V35.3901L7.375 37.8135Z" fill="#262626"/>
<path fill-rule="evenodd" clip-rule="evenodd" d="M12.3741 15.9375V23.1875L7.375 20.6875L7.375 13.4375L13.6238 10.3132L18.6226 12.8121L12.3741 15.9375Z" fill="#535A63"/>
<path fill-rule="evenodd" clip-rule="evenodd" d="M13.625 10.3132L18.623 12.8126L13.625 15.3126V10.3132Z" fill="#262626"/>
<path fill-rule="evenodd" clip-rule="evenodd" d="M12.3741 18.1874L7.375 20.6875L12.3741 23.1875V18.1874Z" fill="#262626"/>
<path fill-rule="evenodd" clip-rule="evenodd" d="M18.6199 12.8129L25.9922 16.501L19.7447 19.6249L12.3711 15.9374L18.6199 12.8129Z" fill="#636A73"/>
<path fill-rule="evenodd" clip-rule="evenodd" d="M39.4896 9.74988L33.4283 12.7811L26.0547 9.09363L32.0711 6.08582L39.4896 9.74988Z" fill="#636A73"/>
<path fill-rule="evenodd" clip-rule="evenodd" d="M27.0423 3.60144L21.0586 6.59334L26.0576 9.09314L27.0423 8.6017V3.60144Z" fill="#262626"/>
</g>
<path d="M51.1953 14.0149L51.6058 13.5415C52.0787 13.9794 52.5517 14.2989 53.0247 14.5001C53.5016 14.7013 54.041 14.8019 54.643 14.8019C55.2645 14.8019 55.7805 14.6343 56.191 14.2989C56.6053 13.9636 56.8125 13.5257 56.8125 12.9852C56.8125 12.4368 56.5936 12.0068 56.1558 11.6951C55.718 11.3835 55.1082 11.2276 54.3264 11.2276H53.4176V10.6714H54.3381C54.9948 10.6714 55.5323 10.5116 55.9506 10.192C56.3727 9.87248 56.5838 9.43457 56.5838 8.8783C56.5838 8.38516 56.3864 7.97881 55.9916 7.65925C55.6007 7.33969 55.1023 7.17991 54.4964 7.17991C53.5739 7.17991 52.7257 7.49947 51.9517 8.13858L51.5764 7.65333C52.0142 7.29827 52.4638 7.03591 52.925 6.86627C53.3902 6.69663 53.9218 6.61181 54.5199 6.61181C55.3212 6.61181 55.974 6.82485 56.4783 7.25093C56.9825 7.677 57.2347 8.21946 57.2347 8.8783C57.2347 9.15841 57.1897 9.41484 57.0998 9.6476C57.0099 9.87642 56.8848 10.0697 56.7245 10.2275C56.5682 10.3853 56.4001 10.5175 56.2203 10.624C56.0444 10.7305 55.8509 10.8193 55.6398 10.8903C56.1949 11.0521 56.6366 11.3085 56.9649 11.6596C57.2972 12.0107 57.4633 12.4566 57.4633 12.997C57.4633 13.6638 57.1956 14.2279 56.66 14.6895C56.1284 15.1471 55.4483 15.376 54.6196 15.376C53.955 15.376 53.3452 15.2655 52.7902 15.0446C52.239 14.8197 51.7074 14.4765 51.1953 14.0149Z" fill="white"/>
<path d="M59.4079 15.228L63.3247 6.68282H63.9228L67.8395 15.228H67.1535L66.0864 12.855H61.1259L60.0587 15.228H59.4079ZM61.3897 12.281H65.8225L63.612 7.3752L61.3897 12.281Z" fill="white"/>
<path d="M70.2766 15.228V6.742H73.7478C74.5726 6.742 75.2332 6.93334 75.7296 7.31602C76.2261 7.6987 76.4743 8.21157 76.4743 8.85463C76.4743 9.13079 76.4332 9.38328 76.3512 9.6121C76.2691 9.84092 76.1557 10.0362 76.0111 10.198C75.8664 10.3558 75.7159 10.4879 75.5596 10.5944C75.4032 10.701 75.2312 10.7917 75.0436 10.8667C76.3101 11.202 76.9434 11.8845 76.9434 12.9142C76.9434 13.6204 76.6678 14.1826 76.1166 14.6007C75.5694 15.0189 74.8403 15.228 73.9296 15.228H70.2766ZM70.8981 14.6481H73.953C74.6762 14.6481 75.2488 14.4922 75.671 14.1806C76.0932 13.865 76.3042 13.4349 76.3042 12.8905C76.3042 12.3658 76.0834 11.9595 75.6417 11.6715C75.2039 11.3835 74.5726 11.2395 73.7478 11.2395H70.8981V14.6481ZM70.8981 10.6595H73.6774C74.3263 10.6595 74.8482 10.5057 75.243 10.198C75.6378 9.89023 75.8352 9.45429 75.8352 8.89014C75.8352 8.41672 75.6495 8.03798 75.2781 7.75393C74.9107 7.46988 74.3967 7.32786 73.7361 7.32786H70.8981V10.6595Z" fill="white"/>
<path d="M79.2339 10.985C79.2339 10.409 79.3355 9.8567 79.5388 9.32805C79.7459 8.79545 80.0293 8.32795 80.389 7.92555C80.7525 7.52314 81.202 7.20161 81.7376 6.96096C82.2731 6.7203 82.8497 6.59998 83.4673 6.59998C84.0888 6.59998 84.6654 6.7203 85.197 6.96096C85.7286 7.19767 86.1742 7.51722 86.5339 7.91963C86.8935 8.31809 87.1749 8.78362 87.3782 9.31621C87.5815 9.84486 87.6831 10.4011 87.6831 10.985C87.6831 11.561 87.5795 12.1153 87.3723 12.6479C87.1691 13.1765 86.8857 13.644 86.5221 14.0504C86.1586 14.4528 85.7091 14.7743 85.1735 15.015C84.638 15.2556 84.0614 15.376 83.4438 15.376C82.8223 15.376 82.2457 15.2576 81.7141 15.0209C81.1825 14.7802 80.7369 14.4587 80.3772 14.0563C80.0215 13.6539 79.742 13.1884 79.5388 12.6597C79.3355 12.1271 79.2339 11.5689 79.2339 10.985ZM79.8788 10.985C79.8788 11.6794 80.0313 12.3185 80.3362 12.9024C80.645 13.4823 81.075 13.9439 81.6262 14.2871C82.1773 14.6303 82.791 14.8019 83.4673 14.8019C84.1435 14.8019 84.7553 14.6323 85.3025 14.293C85.8537 13.9498 86.2798 13.4882 86.5808 12.9083C86.8857 12.3283 87.0381 11.6872 87.0381 10.985C87.0381 10.4682 86.9463 9.97505 86.7625 9.50558C86.5827 9.03611 86.3345 8.63173 86.0179 8.29245C85.7052 7.94922 85.324 7.677 84.8745 7.4758C84.4289 7.27065 83.952 7.16808 83.4438 7.16808C82.7676 7.16808 82.1558 7.33969 81.6086 7.68292C81.0613 8.0222 80.6352 8.48181 80.3303 9.06175C80.0293 9.64169 79.8788 10.2828 79.8788 10.985Z" fill="white"/>
<path d="M89.3345 14.6481H90.2374C90.6674 14.0405 90.9977 13.2022 91.2284 12.133C91.4629 11.0639 91.5802 9.86656 91.5802 8.54099V6.742H96.7341V14.6481H97.8775L97.7544 17.169H97.2267V15.228H89.9853L89.868 17.169H89.3345V14.6481ZM90.9586 14.6481H96.1126V7.32786H92.1958V8.99665C92.1958 10.1486 92.0844 11.2375 91.8616 12.2632C91.6427 13.285 91.3417 14.08 90.9586 14.6481Z" fill="white"/>
<path d="M51.1953 36.6361H54.0475V29.7321H61.7925V36.6361H64.6447V20.2539H61.7925V27.0642H54.0475V20.2539H51.1953V36.6361Z" fill="white"/>
<path d="M72.8016 36.6361H75.677V22.9218H80.8248V20.2539H67.6537V22.9218H72.8016V36.6361Z" fill="white"/>
<path d="M91.3857 36.9169C94.4234 36.9169 96.2785 35.7936 97.9713 34.0149L96.1394 32.1427C94.7481 33.4533 93.4727 34.2724 91.4785 34.2724C88.3712 34.2724 86.1219 31.6512 86.1219 28.445C86.1219 25.1919 88.3712 22.6176 91.4785 22.6176C93.3336 22.6176 94.7249 23.4367 96.0234 24.6537L97.8553 22.524C96.3017 21.0262 94.493 19.973 91.5017 19.973C86.5857 19.973 83.1306 23.7877 83.1306 28.445C83.1306 33.1958 86.6553 36.9169 91.3857 36.9169Z" fill="white"/>
</g>
<defs>
<clipPath id="clip0_1115_18911">
<rect width="98" height="44" fill="white"/>
</clipPath>
<clipPath id="clip1_1115_18911">
<rect width="39.4925" height="44" fill="white"/>
</clipPath>
</defs>
</svg>
