<svg width="24" height="24" viewBox="0 0 24 24" fill="none" xmlns="http://www.w3.org/2000/svg">
<circle cx="12" cy="11.9999" r="11.1" fill="url(#paint0_linear_1115_18936)" stroke="url(#paint1_linear_1115_18936)" stroke-width="1.8"/>
<path d="M6.21919 16.1661C6.47006 16.8328 7.64079 17.4994 8.22616 17.5828C8.7279 17.6661 9.39689 17.6661 10.0659 17.4994C10.484 17.3328 11.0694 17.1661 11.7384 16.8328C14.7488 15.5828 16.6721 12.5828 16.8394 12.3328C17.0066 12.1661 18.0938 10.7494 18.0938 9.24944C18.0938 7.74944 17.3411 7.08277 17.0903 6.74944C16.8394 6.4161 16.5049 6.4161 16.254 6.4161C16.0868 6.4161 15.8359 6.4161 15.6687 6.4161C15.5014 6.4161 15.2505 6.33277 14.9997 6.9161C14.7488 7.49944 14.1634 8.99944 14.0798 9.08277C13.9962 9.24944 13.9962 9.4161 14.0798 9.58277C14.1634 9.74944 14.2471 9.9161 14.4143 10.0828C14.5816 10.2494 14.7488 10.4994 14.8324 10.5828C14.9997 10.7494 15.1669 10.9161 14.9997 11.1661C14.8324 11.4994 14.2471 12.4161 13.3272 13.2494C12.1565 14.2494 11.2366 14.5828 10.9021 14.7494C10.5676 14.9161 10.4004 14.8328 10.2331 14.6661C10.0659 14.4994 9.48051 13.8328 9.31326 13.4994C9.14602 13.1661 8.89515 13.2494 8.64428 13.3328C8.39341 13.4161 6.88818 14.1661 6.63731 14.3328C6.30281 14.4994 6.13557 14.5828 6.05194 14.6661C5.96832 14.9161 5.96832 15.4994 6.21919 16.1661Z" fill="white"/>
<defs>
<linearGradient id="paint0_linear_1115_18936" x1="12" y1="23.9999" x2="12" y2="-0.000122458" gradientUnits="userSpaceOnUse">
<stop stop-color="#0040BC"/>
<stop offset="1" stop-color="#0047FF"/>
</linearGradient>
<linearGradient id="paint1_linear_1115_18936" x1="12" y1="23.9999" x2="12" y2="-0.000122458" gradientUnits="userSpaceOnUse">
<stop stop-color="#0040BC"/>
<stop offset="1" stop-color="#0047FF"/>
</linearGradient>
</defs>
</svg>
