<svg width="40" height="40" viewBox="0 0 40 40" fill="none" xmlns="http://www.w3.org/2000/svg">
<g clip-path="url(#clip0_679_11664)">
<path d="M39.5516 15.2874L33.1266 9.93744V5.62494C33.1266 5.29342 32.9949 4.97548 32.7604 4.74106C32.526 4.50664 32.2081 4.37494 31.8766 4.37494C31.545 4.37494 31.2271 4.50664 30.9927 4.74106C30.7583 4.97548 30.6266 5.29342 30.6266 5.62494V7.84994L22.4016 0.999942C21.7277 0.438692 20.8785 0.131348 20.0016 0.131348C19.1246 0.131348 18.2754 0.438692 17.6016 0.999942L0.451565 15.2874C0.196294 15.4996 0.035764 15.8045 0.00528938 16.135C-0.0251853 16.4656 0.0768919 16.7947 0.289065 17.0499C0.501238 17.3052 0.806127 17.4657 1.13666 17.4962C1.46719 17.5267 1.79629 17.4246 2.05156 17.2124L2.50156 16.8374L5.00156 14.7537L19.2016 2.91869C19.4262 2.73161 19.7092 2.62916 20.0016 2.62916C20.2939 2.62916 20.577 2.73161 20.8016 2.91869L35.0016 14.7499V36.2499C35.0016 36.5815 34.8699 36.8994 34.6354 37.1338C34.401 37.3682 34.0831 37.4999 33.7516 37.4999H27.5016V23.7499C27.5016 22.7554 27.1065 21.8015 26.4032 21.0983C25.7 20.395 24.7461 19.9999 23.7516 19.9999H16.2516C15.257 19.9999 14.3032 20.395 13.5999 21.0983C12.8967 21.8015 12.5016 22.7554 12.5016 23.7499V37.4999H6.25156C5.92004 37.4999 5.6021 37.3682 5.36768 37.1338C5.13326 36.8994 5.00156 36.5815 5.00156 36.2499V21.2499C5.00156 20.9184 4.86987 20.6005 4.63545 20.3661C4.40103 20.1316 4.08309 19.9999 3.75156 19.9999C3.42004 19.9999 3.1021 20.1316 2.86768 20.3661C2.63326 20.6005 2.50156 20.9184 2.50156 21.2499V36.2499C2.50156 37.2445 2.89665 38.1983 3.59991 38.9016C4.30318 39.6049 5.257 39.9999 6.25156 39.9999H33.7516C34.7461 39.9999 35.7 39.6049 36.4032 38.9016C37.1065 38.1983 37.5016 37.2445 37.5016 36.2499V16.8374L37.9516 17.2124C38.1765 17.3988 38.4595 17.5005 38.7516 17.4999C39.009 17.5004 39.2602 17.4215 39.4711 17.2738C39.6819 17.1262 39.842 16.917 39.9295 16.675C40.0171 16.4329 40.0277 16.1698 39.9601 15.9214C39.8924 15.6731 39.7498 15.4517 39.5516 15.2874ZM15.0016 37.4999V23.7499C15.0016 23.4184 15.1333 23.1005 15.3677 22.8661C15.6021 22.6316 15.92 22.4999 16.2516 22.4999H23.7516C24.0831 22.4999 24.401 22.6316 24.6354 22.8661C24.8699 23.1005 25.0016 23.4184 25.0016 23.7499V37.4999H15.0016Z" fill="#B2B8C0"/>
<path d="M4.63545 20.3661C4.86987 20.6005 5.00156 20.9184 5.00156 21.2499V14.7537L2.50156 16.8374V21.2499C2.50156 20.9184 2.63326 20.6005 2.86768 20.3661C3.1021 20.1316 3.42004 19.9999 3.75156 19.9999C4.08309 19.9999 4.40103 20.1316 4.63545 20.3661Z" fill="#B2B8C0"/>
<path d="M18.75 31.25C19.4404 31.25 20 30.6904 20 30C20 29.3096 19.4404 28.75 18.75 28.75C18.0596 28.75 17.5 29.3096 17.5 30C17.5 30.6904 18.0596 31.25 18.75 31.25Z" fill="#B2B8C0"/>
</g>
<defs>
<clipPath id="clip0_679_11664">
<rect width="40" height="40" fill="white"/>
</clipPath>
</defs>
</svg>
