<svg width="40" height="40" viewBox="0 0 40 40" fill="none" xmlns="http://www.w3.org/2000/svg">
<path d="M24.0156 19.1078V19.8156L23.3485 19.5791C23.034 19.4675 22.6962 19.4062 22.3438 19.4062H8.28125C6.61888 19.4062 5.26562 20.7595 5.26562 22.4219V24.7656C5.26562 29.4428 7.89485 33.6977 12.0242 35.8054L12.2969 35.9445V36.2507V37.6562V38.1562H11.7969H8.28125C7.9102 38.1562 7.60938 38.4571 7.60938 38.8281C7.60938 39.1992 7.9102 39.5 8.28125 39.5H29.375C29.746 39.5 30.0469 39.1992 30.0469 38.8281V35.1939V34.9899L30.1896 34.8441C31.5942 33.4094 32.3906 31.4717 32.3906 29.4531V25.7359V25.3828L32.7235 25.2647C33.8949 24.8493 34.7344 23.7306 34.7344 22.4219V1.17188C34.7344 0.80083 34.4335 0.5 34.0625 0.5H24.6875C23.0251 0.5 21.6719 1.85325 21.6719 3.51562C21.6719 4.82437 22.5114 5.943 23.6828 6.35845L24.0156 6.4765V6.82969V19.1078ZM7.10938 24.0938H6.60938V23.5938V22.4219C6.60938 21.4996 7.35894 20.75 8.28125 20.75H22.3438C23.2661 20.75 24.0156 21.4996 24.0156 22.4219V23.5938V24.0938H23.5156H7.10938ZM32.8906 1.84375H33.3906V2.34375V4.6875V5.1875H32.8906H24.6875C23.7652 5.1875 23.0156 4.43794 23.0156 3.51562C23.0156 2.59331 23.7652 1.84375 24.6875 1.84375H32.8906ZM32.8906 6.53125H33.3906V7.03125V22.4219C33.3906 23.3442 32.6411 24.0938 31.7188 24.0938H25.8594H25.3594V23.5938V7.03125V6.53125H25.8594H32.8906ZM13.531 35.1413L13.9493 34.8676L13.531 35.1413C13.4594 35.032 13.3575 34.9459 13.2378 34.8936C9.58945 33.2996 7.11143 29.8791 6.67745 25.9851L6.61556 25.4297H7.17438H30.5469H31.0469V25.9297V29.4531C31.0469 31.2601 30.2743 32.9875 28.9269 34.1933C28.8565 34.2564 28.8002 34.3335 28.7616 34.4198C28.7231 34.5061 28.7031 34.5995 28.7031 34.694V37.6562V38.1562H28.2031H14.1406H13.6406V37.6562V35.5092C13.6406 35.3785 13.6025 35.2507 13.531 35.1413Z" fill="#B2B8C0" stroke="#B2B8C0"/>
</svg>
