<svg width="40" height="40" viewBox="0 0 40 40" fill="none" xmlns="http://www.w3.org/2000/svg">
<path d="M38.9062 11.6849L20.6562 1.68495C20.4591 1.56417 20.2324 1.50024 20.0012 1.50024C19.7701 1.50024 19.5434 1.56417 19.3462 1.68495L1.09624 11.6849C0.951162 11.7683 0.824285 11.8799 0.723128 12.0131C0.621971 12.1464 0.548593 12.2986 0.507342 12.4607C0.466092 12.6228 0.457808 12.7916 0.482983 12.957C0.508157 13.1224 0.566277 13.2811 0.653898 13.4236C0.74152 13.5661 0.856859 13.6896 0.993081 13.7867C1.1293 13.8838 1.28364 13.9526 1.44693 13.989C1.61023 14.0254 1.77917 14.0286 1.94374 13.9985C2.10831 13.9684 2.26516 13.9055 2.40499 13.8137L5.50124 11.9099V37.2499C5.50124 37.5815 5.63294 37.8994 5.86736 38.1338C6.10178 38.3683 6.41972 38.4999 6.75124 38.4999H33.2512C33.5828 38.4999 33.9007 38.3683 34.1351 38.1338C34.3695 37.8994 34.5012 37.5815 34.5012 37.2499V11.9099L37.5962 13.8149C37.8787 13.9887 38.2186 14.0431 38.5412 13.9662C38.8637 13.8893 39.1425 13.6874 39.3162 13.4049C39.49 13.1225 39.5444 12.7826 39.4675 12.46C39.3906 12.1375 39.1887 11.8587 38.9062 11.6849ZM20.7512 35.9999H8.00124V24.4999H11.2512V27.9999C11.2512 28.3315 11.3829 28.6494 11.6174 28.8838C11.8518 29.1183 12.1697 29.2499 12.5012 29.2499H16.0012V31.4999C16.0012 31.8315 16.1329 32.1494 16.3674 32.3838C16.6018 32.6183 16.9197 32.7499 17.2512 32.7499H20.7512V35.9999ZM32.0012 35.9999H23.2512V31.4999C23.2512 31.1684 23.1195 30.8505 22.8851 30.6161C22.6507 30.3816 22.3328 30.2499 22.0012 30.2499H18.5012V27.9999C18.5012 27.6684 18.3695 27.3505 18.1351 27.1161C17.9007 26.8816 17.5828 26.7499 17.2512 26.7499H13.7512V24.4999H32.0012V35.9999ZM17.5012 21.9999V15.2499H22.5012V21.9999H17.5012ZM32.0012 21.9999H25.0012V13.9999C25.0012 13.6684 24.8695 13.3505 24.6351 13.1161C24.4007 12.8816 24.0828 12.7499 23.7512 12.7499H16.2512C15.9197 12.7499 15.6018 12.8816 15.3674 13.1161C15.1329 13.3505 15.0012 13.6684 15.0012 13.9999V21.9999H8.00124V10.3712L20.0012 4.21745L32.0012 10.3712V21.9999Z" fill="#B2B8C0"/>
</svg>
