<svg width="40" height="40" viewBox="0 0 40 40" fill="none" xmlns="http://www.w3.org/2000/svg">
<g clip-path="url(#clip0_679_11656)">
<path d="M22.9761 37.4108H21.2932V27.1842H28.5424C30.434 27.1842 31.9728 25.6454 31.9728 23.7538C31.9728 21.8622 30.434 20.3234 28.5424 20.3234H21.2932V11.9525H37.9451C38.1763 11.9525 38.4033 11.8907 38.6025 11.7733C38.8018 11.6559 38.9659 11.4873 39.0779 11.285C39.1898 11.0827 39.2456 10.8541 39.2393 10.6229C39.233 10.3918 39.1649 10.1665 39.042 9.97064C35.8433 4.86505 28.9638 1.47327 21.2816 1.13104C21.2012 0.493468 20.6581 0 19.9987 0C19.3393 0 18.7961 0.493468 18.7156 1.13104C11.0334 1.47327 4.1541 4.86505 0.955315 9.97064C0.832575 10.1666 0.764542 10.3918 0.758287 10.6229C0.752031 10.854 0.807781 11.0826 0.919743 11.2848C1.0317 11.4871 1.19579 11.6557 1.39496 11.7731C1.59412 11.8905 1.82109 11.9524 2.05228 11.9525H18.7041V20.3235H11.4551C9.56353 20.3235 8.02467 21.8624 8.02467 23.7539C8.02467 25.6455 9.56353 27.1844 11.4551 27.1844H18.7043V37.4109H17.0214C16.3066 37.4109 15.7269 37.9906 15.7269 38.7055C15.7269 39.4203 16.3066 40 17.0214 40H22.9761C23.6909 40 24.2706 39.4203 24.2706 38.7055C24.2706 37.9906 23.6909 37.4108 22.9761 37.4108ZM19.9987 3.68929C26.2193 3.68929 31.9292 5.85872 35.2928 9.36337H4.70454C8.06818 5.85872 13.7781 3.68929 19.9987 3.68929ZM10.6136 23.7539C10.6139 23.5308 10.7026 23.317 10.8604 23.1592C11.0181 23.0014 11.232 22.9127 11.4551 22.9125H28.5424C29.0064 22.9125 29.3839 23.29 29.3839 23.7539C29.3839 24.2179 29.0064 24.5954 28.5424 24.5954H11.4551C11.232 24.5951 11.0182 24.5063 10.8604 24.3486C10.7027 24.1909 10.614 23.977 10.6136 23.7539Z" fill="#B2B8C0"/>
<path d="M12.8912 29.8809C12.8273 29.5934 12.6672 29.3362 12.4375 29.1519C12.2077 28.9676 11.922 28.8672 11.6275 28.8672H5.3278V15.2103C5.3278 14.4954 4.74814 13.9158 4.03325 13.9158C3.31837 13.9158 2.73871 14.4954 2.73871 15.2103V30.0197L0.870964 38.4246C0.715812 39.1224 1.15595 39.814 1.85386 39.969C1.94645 39.9896 2.04102 40 2.13588 40.0001C2.72915 40.0001 3.26423 39.5894 3.39824 38.9861L5.07164 31.4561H10.5892L12.2626 38.9861C12.3966 39.5894 12.9316 40.0001 13.525 40.0001C13.618 40.0001 13.7124 39.99 13.807 39.969C14.5049 39.8138 14.945 39.1224 14.7899 38.4246L12.8912 29.8809ZM37.2584 30.0197V15.2103C37.2584 14.4954 36.6788 13.9158 35.9639 13.9158C35.249 13.9158 34.6693 14.4954 34.6693 15.2103V28.8672H28.3696C28.075 28.8672 27.7893 28.9676 27.5595 29.1519C27.3298 29.3362 27.1697 29.5934 27.1058 29.8809L25.2073 38.4245C25.0521 39.1222 25.4922 39.8138 26.1902 39.9688C26.2827 39.9895 26.3773 39.9999 26.4722 39.9999C27.0654 39.9999 27.6005 39.5893 27.7345 38.9859L29.4079 31.456H34.9255L36.5989 38.9859C36.7329 39.5893 37.2679 39.9999 37.8613 39.9999C37.9543 39.9999 38.0487 39.9898 38.1433 39.9688C38.8412 39.8137 39.2813 39.1222 39.1262 38.4245L37.2584 30.0197Z" fill="#B2B8C0"/>
</g>
<defs>
<clipPath id="clip0_679_11656">
<rect width="40" height="40" fill="white"/>
</clipPath>
</defs>
</svg>
