<svg width="40" height="40" viewBox="0 0 40 40" fill="none" xmlns="http://www.w3.org/2000/svg">
<g clip-path="url(#clip0_679_11650)">
<path d="M35.7814 0H4.21859L0 4.21859V9.41177H2.35294V40H37.6471V9.41177H40V4.21859L35.7814 0ZM10.5882 2.35294H29.4118V7.05882H10.5882V2.35294ZM2.35294 5.19318L5.19318 2.35294H8.23529V7.05882H2.35294V5.19318ZM9.41177 37.6471H4.70588V31.7647H9.41177V37.6471ZM9.41177 27.0588V29.4118H4.70588V23.5294H10.0174C9.61572 24.6627 9.41088 25.8564 9.41177 27.0588ZM22.4289 36.9895C21.8542 37.3858 21.0319 37.6518 20.1936 37.6471H20.1681C17.9533 37.6205 16.1336 35.8491 16.038 33.5596C16.0133 32.9666 16.0629 32.3872 16.1864 31.8264L18.7738 33.526L18.7414 31.3046C18.7409 31.2696 18.7233 28.4064 20.4105 26.7122C20.6977 28.0693 21.3647 29.8409 22.9042 31.2004C24.7178 32.8041 24.4878 35.6173 22.4289 36.9895ZM28.2353 37.6471H25.1518C26.4369 36.087 26.5837 34.3848 26.4282 33.1111C26.2571 31.7105 25.5587 30.4056 24.4616 29.4367C22.486 27.6921 22.5489 24.7747 22.5496 24.75L22.6169 22.9612L20.9482 23.6092C18.0466 24.7358 16.9892 27.3968 16.6053 29.2852L15.066 28.2719L14.4942 29.5165C13.2958 32.0526 13.3315 35.4853 15.2136 37.647H11.7647V27.0588C12.18 16.1458 27.8239 16.1541 28.2353 27.0588V37.6471ZM35.2941 37.6471H30.5882V31.7647H35.2941V37.6471ZM35.2941 29.4118H30.5882V27.0588C30.5882 25.8218 30.3743 24.6339 29.9826 23.5294H35.2941V29.4118ZM35.2941 21.1765H28.7995C24.7449 14.9431 15.2527 14.9459 11.2004 21.1765H4.70588V14.1176H35.2941V21.1765ZM35.2941 11.7647H4.70588V9.41177H35.2941V11.7647ZM37.6471 7.05882H31.7647V2.35294H34.8068L37.6471 5.19318V7.05882Z" fill="#B2B8C0"/>
</g>
<defs>
<clipPath id="clip0_679_11650">
<rect width="40" height="40" fill="white"/>
</clipPath>
</defs>
</svg>
