<svg width="40" height="40" viewBox="0 0 40 40" fill="none" xmlns="http://www.w3.org/2000/svg">
<path d="M36.8425 11.4L20.5925 2.64998C20.4106 2.55217 20.2072 2.50098 20.0006 2.50098C19.7941 2.50098 19.5907 2.55217 19.4088 2.64998L3.15875 11.4C2.95967 11.5066 2.79326 11.6652 2.67724 11.8589C2.56123 12.0526 2.49997 12.2742 2.5 12.5V36.25C2.5 36.5815 2.6317 36.8994 2.86612 37.1339C3.10054 37.3683 3.41848 37.5 3.75 37.5H36.25C36.5815 37.5 36.8995 37.3683 37.1339 37.1339C37.3683 36.8994 37.5 36.5815 37.5 36.25V12.5C37.5 12.2743 37.4389 12.0529 37.3231 11.8592C37.2073 11.6655 37.0413 11.5068 36.8425 11.4ZM11.25 25H28.75V28.75H11.25V25ZM28.75 22.5H11.25V18.75H28.75V22.5ZM11.25 35V31.25H28.75V35H11.25ZM35 35H31.25V17.5C31.25 17.1685 31.1183 16.8505 30.8839 16.6161C30.6495 16.3817 30.3315 16.25 30 16.25H10C9.66848 16.25 9.35054 16.3817 9.11612 16.6161C8.8817 16.8505 8.75 17.1685 8.75 17.5V35H5V13.2462L20 5.16998L35 13.2462V35Z" fill="#B2B8C0"/>
</svg>
