<svg width="40" height="40" viewBox="0 0 40 40" fill="none" xmlns="http://www.w3.org/2000/svg">
<g clip-path="url(#clip0_679_11660)">
<path d="M40 19.3229H7.83852V5.52789C7.83852 3.77211 9.26695 2.34375 11.0227 2.34375C12.7309 2.34375 14.1289 3.69609 14.2033 5.38633C12.211 5.85133 10.722 7.64086 10.722 9.77273V12.8385H20.0355V9.77273C20.0355 7.63828 18.5429 5.84703 16.547 5.38461C16.4705 2.40266 14.0228 0 11.0227 0C7.97461 0 5.49484 2.47984 5.49484 5.52789V19.3229H0V21.6666H1.91648L4.83313 40H35.1668L38.0834 21.6666H40V19.3229ZM17.6918 10.4948H13.0659V9.92422C13.0659 8.6468 14.1014 7.61125 15.3788 7.61125C16.6562 7.61125 17.6918 8.6468 17.6918 9.92422V10.4948ZM28.7676 37.6562L29.0866 33.5966C30.3314 32.8798 31.1719 31.5366 31.1719 30V21.6666H35.7102L33.1665 37.6562H28.7676ZM6.83352 37.6562L4.28977 21.6666H9.9757L11.2324 37.6562H6.83352ZM12.3266 21.6666H16.6849V30C16.6849 31.5605 17.5514 32.922 18.8281 33.6301V37.6562H13.5834L12.3266 21.6666ZM28.8281 30C28.8281 30.9951 28.0186 31.8047 27.0234 31.8047H20.8333C19.8382 31.8047 19.0286 30.9952 19.0286 30V21.6666H28.8281V30ZM21.1719 34.1484H26.6923L26.4166 37.6562H21.1719V34.1484Z" fill="#B2B8C0"/>
<path d="M23.8281 16.6667H26.1719C26.1719 15.9127 26.3868 15.6041 26.7429 15.0927C27.1613 14.4919 27.7344 13.6691 27.7344 12.1794C27.7344 10.6897 27.1613 9.86679 26.7429 9.26601C26.3868 8.75468 26.1719 8.44601 26.1719 7.69202C26.1719 6.93812 26.3868 6.62944 26.7429 6.11819C27.1613 5.51733 27.7344 4.69452 27.7344 3.20483H25.3906C25.3906 3.95874 25.1757 4.26741 24.8196 4.77866C24.4012 5.37952 23.8281 6.20241 23.8281 7.69202C23.8281 9.18171 24.4012 10.0046 24.8196 10.6055C25.1757 11.1168 25.3906 11.4255 25.3906 12.1794C25.3906 12.9334 25.1757 13.2421 24.8196 13.7534C24.4012 14.3542 23.8281 15.177 23.8281 16.6667ZM29.6615 16.6667H32.0052C32.0052 15.9127 32.2202 15.6041 32.5763 15.0927C32.9947 14.4919 33.5677 13.6691 33.5677 12.1794C33.5677 10.6897 32.9947 9.86679 32.5763 9.26601C32.2202 8.75468 32.0052 8.44601 32.0052 7.69202C32.0052 6.93812 32.2202 6.62944 32.5763 6.11819C32.9947 5.51741 33.5677 4.69452 33.5677 3.20491H31.224C31.224 3.95882 31.0091 4.26749 30.653 4.77874C30.2345 5.37952 29.6615 6.20241 29.6615 7.69202C29.6615 9.18171 30.2345 10.0046 30.653 10.6055C31.0091 11.1168 31.224 11.4255 31.224 12.1794C31.224 12.9334 31.0091 13.2421 30.653 13.7534C30.2345 14.3542 29.6615 15.177 29.6615 16.6667Z" fill="#B2B8C0"/>
</g>
<defs>
<clipPath id="clip0_679_11660">
<rect width="40" height="40" fill="white"/>
</clipPath>
</defs>
</svg>
