<svg width="40" height="40" viewBox="0 0 40 40" fill="none" xmlns="http://www.w3.org/2000/svg">
<path d="M39.0172 20.5506C39.1507 20.1743 39.2189 19.7779 39.2188 19.3787C39.2188 18.1653 38.6009 17.0937 37.6633 16.4616V7.96509C37.6633 6.02657 36.0862 4.44946 34.1477 4.44946H5.85234C3.91383 4.44946 2.33672 6.02657 2.33672 7.96509V16.4616C1.39914 17.0937 0.78125 18.1653 0.78125 19.3787C0.78109 19.7779 0.849261 20.1743 0.982813 20.5506H0V35.5506H2.34375V31.9641H37.6562V35.5506H40V20.5506H39.0172ZM5.85234 6.79321H34.1477C34.7938 6.79321 35.3195 7.31892 35.3195 7.96509V15.8631H32.9791V14.6912C32.9791 12.7527 31.402 11.1756 29.4635 11.1756H22.3438C21.444 11.1756 20.6224 11.5157 20 12.0736C19.3775 11.5156 18.556 11.1756 17.6562 11.1756H10.5365C8.59797 11.1756 7.02086 12.7527 7.02086 14.6912V15.8631H4.68047V7.96509C4.68047 7.31892 5.20617 6.79321 5.85234 6.79321ZM18.8281 15.8631H9.36461V14.6912C9.36461 14.045 9.89031 13.5193 10.5365 13.5193H17.6562C18.3024 13.5193 18.8281 14.045 18.8281 14.6912V15.8631ZM21.1719 14.6912C21.1719 14.045 21.6976 13.5193 22.3438 13.5193H29.4635C30.1097 13.5193 30.6354 14.045 30.6354 14.6912V15.8631H21.1719V14.6912ZM3.125 19.3787C3.125 18.7325 3.6507 18.2068 4.29688 18.2068H35.7031C36.3493 18.2068 36.875 18.7325 36.875 19.3787C36.875 20.0249 36.3493 20.5506 35.7031 20.5506H4.29688C3.6507 20.5506 3.125 20.0249 3.125 19.3787ZM2.34375 22.8943H37.6562V29.6204H2.34375V22.8943Z" fill="#B2B8C0"/>
</svg>
