<svg width="40" height="40" viewBox="0 0 40 40" fill="none" xmlns="http://www.w3.org/2000/svg">
<g clip-path="url(#clip0_679_11616)">
<mask id="path-1-outside-1_679_11616" maskUnits="userSpaceOnUse" x="-0.222656" y="-0.227539" width="40" height="40" fill="black">
<rect fill="white" x="-0.222656" y="-0.227539" width="40" height="40"/>
<path d="M26.4112 27.035V22.5605C26.4102 22.4791 26.3938 22.3985 26.3628 22.3232L23.8011 15.9166C23.666 15.534 23.4697 15.1759 23.22 14.8561C23.0921 14.6916 22.933 14.5538 22.7519 14.4508C22.5707 14.3478 22.3711 14.2814 22.1643 14.2556L22.5275 13.1564C22.7551 12.4784 23.0166 11.9215 24.0166 11.338L29.8397 7.6577C29.9121 7.61359 29.9748 7.55525 30.024 7.48621C30.0733 7.41718 30.108 7.33887 30.1261 7.25604C30.1442 7.17321 30.1453 7.08756 30.1294 7.00428C30.1134 6.921 30.0808 6.84182 30.0334 6.77152C29.9886 6.70121 29.9304 6.64042 29.862 6.59263C29.7937 6.54484 29.7167 6.51098 29.6353 6.49299C29.5539 6.475 29.4697 6.47324 29.3876 6.48779C29.3055 6.50234 29.2271 6.53294 29.1569 6.57782L23.3604 10.2363C22.3819 10.782 21.6491 11.6811 21.312 12.7496L20.8181 14.2338H15.7819L16.6172 11.8876C17.0288 10.7375 17.8472 9.5487 18.9731 9.05476L30.5394 4.32363C30.5539 4.36963 30.5636 4.41321 30.5806 4.45922L35.934 19.2531L30.3772 26.6621C30.3065 26.7573 30.2636 26.8702 30.2531 26.9883C30.2427 27.1064 30.2652 27.225 30.3181 27.3311C30.371 27.4372 30.4523 27.5265 30.5529 27.5892C30.6535 27.6519 30.7695 27.6855 30.8881 27.6863H34.733C37.2076 27.6863 39.2148 25.6767 39.2148 23.2046V21.9213C39.2148 21.069 37.9339 21.069 37.9339 21.9213V23.2046C37.9339 24.989 36.5199 26.4055 34.733 26.4055H32.1738L36.9751 20.0013H38.578C38.9799 19.9988 39.2802 19.6332 39.2075 19.2386L36.147 2.96288C35.8807 1.54887 34.4861 0.570681 32.9268 0.807964C31.5878 1.01377 30.7815 1.97017 30.5249 2.94593L18.467 7.87803C16.8739 8.57535 15.9053 10.0717 15.4114 11.4566L14.4211 14.2338H14.2371C13.0749 14.2338 12.5543 15.1491 12.3292 16.0425L11.1694 20.638H2.70224C2.19357 20.6406 1.70642 20.8436 1.34651 21.2031C0.98659 21.5625 0.782946 22.0494 0.779765 22.5581V27.0471C0.779765 28.1004 1.65142 28.9647 2.70224 28.9647H4.6223V30.2989C2.45285 30.6136 0.777344 32.478 0.777344 34.7298C0.777344 37.2043 2.79183 39.2139 5.26635 39.2139H25.1231C26.294 39.1867 27.4078 38.7024 28.2263 37.8647C29.0448 37.0269 29.503 35.9022 29.503 34.731C29.503 33.5597 29.0448 32.435 28.2263 31.5972C27.4078 30.7595 26.294 30.2752 25.1231 30.248H24.4839V28.9647C24.7376 28.9657 24.9891 28.9164 25.2237 28.8195C25.4583 28.7227 25.6713 28.5804 25.8505 28.4007C26.0298 28.221 26.1716 28.0076 26.2678 27.7728C26.3641 27.5379 26.4128 27.2888 26.4112 27.035ZM34.8856 3.19774L37.8032 18.718H37.1034L31.7864 4.02097C31.5007 3.2389 32.0769 2.26314 33.0963 2.08881C33.9679 1.93627 34.7476 2.47621 34.8856 3.19774ZM33.4522 3.34302C33.3679 3.34302 33.2845 3.35961 33.2066 3.39186C33.1288 3.42411 33.0581 3.47137 32.9985 3.53095C32.9389 3.59053 32.8916 3.66126 32.8594 3.73911C32.8272 3.81696 32.8106 3.90039 32.8106 3.98465C32.8106 4.06891 32.8272 4.15235 32.8594 4.23019C32.8916 4.30804 32.9389 4.37877 32.9985 4.43835C33.0581 4.49794 33.1288 4.5452 33.2066 4.57744C33.2845 4.60969 33.3679 4.62628 33.4522 4.62628C33.6224 4.62628 33.7856 4.55868 33.9059 4.43835C34.0262 4.31803 34.0938 4.15482 34.0938 3.98465C34.0938 3.81448 34.0262 3.65128 33.9059 3.53095C33.7856 3.41062 33.6224 3.34302 33.4522 3.34302ZM24.4839 27.6863H2.70224C2.61776 27.6886 2.53369 27.6738 2.45512 27.6427C2.37655 27.6115 2.30511 27.5648 2.24513 27.5053C2.18515 27.4457 2.13786 27.3746 2.10615 27.2963C2.07443 27.218 2.05894 27.134 2.06061 27.0495V22.5605C2.06061 22.1949 2.33663 21.9237 2.70224 21.9237H11.6778C11.821 21.9237 11.96 21.8757 12.0727 21.7875C12.1855 21.6993 12.2655 21.576 12.3001 21.4371L13.5858 16.2701C13.7068 15.7859 13.8763 15.5147 14.2395 15.5147H21.9294C22.0989 15.5147 22.1256 15.5437 22.2418 15.6793C22.3556 15.8173 22.4887 16.0812 22.6146 16.3936L25.1303 22.684V27.0568C25.1314 27.141 25.1153 27.2245 25.0831 27.3023C25.0509 27.3801 25.0033 27.4506 24.9431 27.5094C24.8829 27.5683 24.8113 27.6143 24.7328 27.6447C24.6543 27.6751 24.568 27.6893 24.4839 27.6863ZM15.5179 16.7955C15.2274 16.7955 14.9732 16.9916 14.8981 17.2725L13.8739 21.1126C13.8479 21.2077 13.8441 21.3075 13.8629 21.4043C13.8817 21.5011 13.9225 21.5923 13.9822 21.6707C14.0419 21.7492 14.1189 21.8128 14.2072 21.8567C14.2955 21.9006 14.3927 21.9235 14.4913 21.9237H17.4404V23.8414C17.4404 23.9697 17.4792 24.0932 17.5494 24.1973L18.8326 26.1222C18.9513 26.2989 19.1523 26.4055 19.3653 26.4055H23.2103C23.3792 26.4048 23.541 26.3376 23.6607 26.2184C23.7804 26.0992 23.8482 25.9376 23.8495 25.7687V23.2022C23.8486 23.1163 23.8305 23.0315 23.7962 22.9528L21.3701 17.1902C21.3215 17.0735 21.2394 16.9738 21.1343 16.9036C21.0292 16.8334 20.9057 16.7958 20.7793 16.7955H15.5179ZM16.0095 18.0788H17.438V20.638H15.3242L16.0095 18.0788ZM18.7213 18.0788H20.3508L22.5662 23.3329V25.1246H19.7043L18.7213 23.6477V21.2797V18.0788ZM3.97582 23.1949C3.80607 23.1968 3.644 23.2659 3.5251 23.3871C3.4062 23.5083 3.34016 23.6716 3.34145 23.8414V25.7687C3.32208 26.6403 4.64167 26.6403 4.62472 25.7687V23.8414C4.62537 23.7559 4.60894 23.6711 4.57638 23.5921C4.54382 23.513 4.49579 23.4413 4.43511 23.3811C4.37444 23.3208 4.30234 23.2733 4.22305 23.2414C4.14376 23.2094 4.0613 23.1936 3.97582 23.1949ZM6.53751 23.1949C6.36818 23.1974 6.20673 23.2668 6.08835 23.3879C5.96997 23.509 5.90427 23.672 5.90556 23.8414V25.7687C5.88619 26.6403 7.20578 26.6403 7.18641 25.7687V23.8414C7.18706 23.7561 7.1707 23.6715 7.13829 23.5926C7.10588 23.5138 7.05806 23.4421 6.99765 23.3819C6.93723 23.3217 6.86542 23.2742 6.78641 23.2421C6.70741 23.21 6.62279 23.1939 6.53751 23.1949ZM9.09678 23.1949C8.92787 23.1981 8.76704 23.2677 8.64918 23.3888C8.53132 23.5098 8.46595 23.6724 8.46725 23.8414V25.7687C8.48662 26.6016 9.73115 26.6016 9.75052 25.7687V23.8414C9.75118 23.7557 9.73467 23.6707 9.70196 23.5915C9.66925 23.5123 9.621 23.4404 9.56007 23.3802C9.49913 23.3199 9.42674 23.2725 9.34717 23.2407C9.2676 23.2088 9.18246 23.1933 9.09678 23.1949ZM5.90556 28.9672H23.203V30.2504H19.9973C19.1426 30.2504 19.1426 31.5337 19.9973 31.5337H25.1231C26.91 31.5337 28.324 32.9477 28.324 34.7346C28.324 36.5191 26.91 37.9355 25.1231 37.9355H5.26635C4.84488 37.9387 4.42697 37.8582 4.03689 37.6985C3.64682 37.5388 3.29236 37.3033 2.9941 37.0054C2.69584 36.7076 2.45973 36.3535 2.29948 35.9637C2.13923 35.5739 2.05803 35.1561 2.06061 34.7346C2.06061 32.9477 3.47947 31.5313 5.26635 31.5313H17.438C18.2927 31.5313 18.2927 30.248 17.438 30.248H5.90556V28.9672ZM6.5472 32.8121C5.49395 32.8121 4.6223 33.6789 4.6223 34.7346C4.6223 35.7903 5.49395 36.6571 6.5472 36.6571C7.60286 36.6571 8.46725 35.7854 8.46725 34.7346C8.46598 34.2255 8.26335 33.7377 7.90362 33.3775C7.54388 33.0173 7.05625 32.814 6.5472 32.8121ZM12.3122 32.8121C11.259 32.8121 10.3873 33.6789 10.3873 34.7346C10.3873 35.7903 11.259 36.6571 12.3122 36.6571C13.3655 36.6571 14.2323 35.7854 14.2323 34.7346C14.231 34.2255 14.0284 33.7377 13.6686 33.3775C13.3089 33.0173 12.8213 32.814 12.3122 32.8121ZM18.0748 32.8121C17.5662 32.8147 17.0791 33.0182 16.7199 33.3783C16.3607 33.7384 16.1584 34.226 16.1572 34.7346C16.1572 35.7878 17.024 36.6571 18.0772 36.6571C19.1305 36.6571 19.9973 35.7854 19.9973 34.7346C19.996 34.2255 19.7934 33.7377 19.4336 33.3775C19.0739 33.0173 18.5839 32.814 18.0748 32.8121ZM23.8422 32.8121C23.3332 32.814 22.8455 33.0173 22.4858 33.3775C22.1261 33.7377 21.9234 34.2255 21.9222 34.7346C21.9222 35.7878 22.7866 36.6571 23.8422 36.6571C24.8955 36.6571 25.7671 35.7854 25.7671 34.7346C25.7671 33.6838 24.8955 32.8121 23.8422 32.8121ZM6.5472 34.0954C6.91038 34.0954 7.18641 34.3714 7.18641 34.7346C7.18641 35.0978 6.91038 35.3762 6.5472 35.3762C6.46267 35.3772 6.37879 35.3613 6.30051 35.3294C6.22222 35.2975 6.1511 35.2502 6.09132 35.1905C6.03155 35.1307 5.98432 35.0596 5.95242 34.9813C5.92052 34.903 5.90459 34.8191 5.90556 34.7346C5.90556 34.3714 6.18643 34.0954 6.5472 34.0954ZM12.3122 34.0954C12.3965 34.0941 12.4802 34.1097 12.5584 34.1414C12.6365 34.173 12.7075 34.2201 12.7671 34.2797C12.8267 34.3393 12.8738 34.4103 12.9054 34.4884C12.9371 34.5666 12.9527 34.6503 12.9514 34.7346C12.9531 34.8191 12.9377 34.9031 12.9061 34.9815C12.8746 35.0599 12.8276 35.1312 12.768 35.1911C12.7083 35.251 12.6372 35.2982 12.5589 35.33C12.4806 35.3618 12.3967 35.3775 12.3122 35.3762C12.2277 35.3772 12.1438 35.3613 12.0655 35.3294C11.9872 35.2975 11.9161 35.2502 11.8563 35.1905C11.7966 35.1307 11.7493 35.0596 11.7174 34.9813C11.6855 34.903 11.6696 34.8191 11.6706 34.7346C11.6706 34.3714 11.9514 34.0954 12.3122 34.0954ZM18.0748 34.0954C18.438 34.0954 18.714 34.3714 18.714 34.7346C18.714 35.0978 18.438 35.3762 18.0772 35.3762C17.7164 35.3762 17.438 35.0954 17.438 34.7346C17.438 34.3738 17.714 34.0954 18.0748 34.0954ZM23.8422 34.0954C24.203 34.0954 24.4839 34.3714 24.4839 34.7346C24.4839 35.0954 24.203 35.3762 23.8422 35.3762C23.479 35.3762 23.203 35.0954 23.203 34.7346C23.203 34.3738 23.479 34.0954 23.8422 34.0954Z"/>
</mask>
<path d="M26.4112 27.035V22.5605C26.4102 22.4791 26.3938 22.3985 26.3628 22.3232L23.8011 15.9166C23.666 15.534 23.4697 15.1759 23.22 14.8561C23.0921 14.6916 22.933 14.5538 22.7519 14.4508C22.5707 14.3478 22.3711 14.2814 22.1643 14.2556L22.5275 13.1564C22.7551 12.4784 23.0166 11.9215 24.0166 11.338L29.8397 7.6577C29.9121 7.61359 29.9748 7.55525 30.024 7.48621C30.0733 7.41718 30.108 7.33887 30.1261 7.25604C30.1442 7.17321 30.1453 7.08756 30.1294 7.00428C30.1134 6.921 30.0808 6.84182 30.0334 6.77152C29.9886 6.70121 29.9304 6.64042 29.862 6.59263C29.7937 6.54484 29.7167 6.51098 29.6353 6.49299C29.5539 6.475 29.4697 6.47324 29.3876 6.48779C29.3055 6.50234 29.2271 6.53294 29.1569 6.57782L23.3604 10.2363C22.3819 10.782 21.6491 11.6811 21.312 12.7496L20.8181 14.2338H15.7819L16.6172 11.8876C17.0288 10.7375 17.8472 9.5487 18.9731 9.05476L30.5394 4.32363C30.5539 4.36963 30.5636 4.41321 30.5806 4.45922L35.934 19.2531L30.3772 26.6621C30.3065 26.7573 30.2636 26.8702 30.2531 26.9883C30.2427 27.1064 30.2652 27.225 30.3181 27.3311C30.371 27.4372 30.4523 27.5265 30.5529 27.5892C30.6535 27.6519 30.7695 27.6855 30.8881 27.6863H34.733C37.2076 27.6863 39.2148 25.6767 39.2148 23.2046V21.9213C39.2148 21.069 37.9339 21.069 37.9339 21.9213V23.2046C37.9339 24.989 36.5199 26.4055 34.733 26.4055H32.1738L36.9751 20.0013H38.578C38.9799 19.9988 39.2802 19.6332 39.2075 19.2386L36.147 2.96288C35.8807 1.54887 34.4861 0.570681 32.9268 0.807964C31.5878 1.01377 30.7815 1.97017 30.5249 2.94593L18.467 7.87803C16.8739 8.57535 15.9053 10.0717 15.4114 11.4566L14.4211 14.2338H14.2371C13.0749 14.2338 12.5543 15.1491 12.3292 16.0425L11.1694 20.638H2.70224C2.19357 20.6406 1.70642 20.8436 1.34651 21.2031C0.98659 21.5625 0.782946 22.0494 0.779765 22.5581V27.0471C0.779765 28.1004 1.65142 28.9647 2.70224 28.9647H4.6223V30.2989C2.45285 30.6136 0.777344 32.478 0.777344 34.7298C0.777344 37.2043 2.79183 39.2139 5.26635 39.2139H25.1231C26.294 39.1867 27.4078 38.7024 28.2263 37.8647C29.0448 37.0269 29.503 35.9022 29.503 34.731C29.503 33.5597 29.0448 32.435 28.2263 31.5972C27.4078 30.7595 26.294 30.2752 25.1231 30.248H24.4839V28.9647C24.7376 28.9657 24.9891 28.9164 25.2237 28.8195C25.4583 28.7227 25.6713 28.5804 25.8505 28.4007C26.0298 28.221 26.1716 28.0076 26.2678 27.7728C26.3641 27.5379 26.4128 27.2888 26.4112 27.035ZM34.8856 3.19774L37.8032 18.718H37.1034L31.7864 4.02097C31.5007 3.2389 32.0769 2.26314 33.0963 2.08881C33.9679 1.93627 34.7476 2.47621 34.8856 3.19774ZM33.4522 3.34302C33.3679 3.34302 33.2845 3.35961 33.2066 3.39186C33.1288 3.42411 33.0581 3.47137 32.9985 3.53095C32.9389 3.59053 32.8916 3.66126 32.8594 3.73911C32.8272 3.81696 32.8106 3.90039 32.8106 3.98465C32.8106 4.06891 32.8272 4.15235 32.8594 4.23019C32.8916 4.30804 32.9389 4.37877 32.9985 4.43835C33.0581 4.49794 33.1288 4.5452 33.2066 4.57744C33.2845 4.60969 33.3679 4.62628 33.4522 4.62628C33.6224 4.62628 33.7856 4.55868 33.9059 4.43835C34.0262 4.31803 34.0938 4.15482 34.0938 3.98465C34.0938 3.81448 34.0262 3.65128 33.9059 3.53095C33.7856 3.41062 33.6224 3.34302 33.4522 3.34302ZM24.4839 27.6863H2.70224C2.61776 27.6886 2.53369 27.6738 2.45512 27.6427C2.37655 27.6115 2.30511 27.5648 2.24513 27.5053C2.18515 27.4457 2.13786 27.3746 2.10615 27.2963C2.07443 27.218 2.05894 27.134 2.06061 27.0495V22.5605C2.06061 22.1949 2.33663 21.9237 2.70224 21.9237H11.6778C11.821 21.9237 11.96 21.8757 12.0727 21.7875C12.1855 21.6993 12.2655 21.576 12.3001 21.4371L13.5858 16.2701C13.7068 15.7859 13.8763 15.5147 14.2395 15.5147H21.9294C22.0989 15.5147 22.1256 15.5437 22.2418 15.6793C22.3556 15.8173 22.4887 16.0812 22.6146 16.3936L25.1303 22.684V27.0568C25.1314 27.141 25.1153 27.2245 25.0831 27.3023C25.0509 27.3801 25.0033 27.4506 24.9431 27.5094C24.8829 27.5683 24.8113 27.6143 24.7328 27.6447C24.6543 27.6751 24.568 27.6893 24.4839 27.6863ZM15.5179 16.7955C15.2274 16.7955 14.9732 16.9916 14.8981 17.2725L13.8739 21.1126C13.8479 21.2077 13.8441 21.3075 13.8629 21.4043C13.8817 21.5011 13.9225 21.5923 13.9822 21.6707C14.0419 21.7492 14.1189 21.8128 14.2072 21.8567C14.2955 21.9006 14.3927 21.9235 14.4913 21.9237H17.4404V23.8414C17.4404 23.9697 17.4792 24.0932 17.5494 24.1973L18.8326 26.1222C18.9513 26.2989 19.1523 26.4055 19.3653 26.4055H23.2103C23.3792 26.4048 23.541 26.3376 23.6607 26.2184C23.7804 26.0992 23.8482 25.9376 23.8495 25.7687V23.2022C23.8486 23.1163 23.8305 23.0315 23.7962 22.9528L21.3701 17.1902C21.3215 17.0735 21.2394 16.9738 21.1343 16.9036C21.0292 16.8334 20.9057 16.7958 20.7793 16.7955H15.5179ZM16.0095 18.0788H17.438V20.638H15.3242L16.0095 18.0788ZM18.7213 18.0788H20.3508L22.5662 23.3329V25.1246H19.7043L18.7213 23.6477V21.2797V18.0788ZM3.97582 23.1949C3.80607 23.1968 3.644 23.2659 3.5251 23.3871C3.4062 23.5083 3.34016 23.6716 3.34145 23.8414V25.7687C3.32208 26.6403 4.64167 26.6403 4.62472 25.7687V23.8414C4.62537 23.7559 4.60894 23.6711 4.57638 23.5921C4.54382 23.513 4.49579 23.4413 4.43511 23.3811C4.37444 23.3208 4.30234 23.2733 4.22305 23.2414C4.14376 23.2094 4.0613 23.1936 3.97582 23.1949ZM6.53751 23.1949C6.36818 23.1974 6.20673 23.2668 6.08835 23.3879C5.96997 23.509 5.90427 23.672 5.90556 23.8414V25.7687C5.88619 26.6403 7.20578 26.6403 7.18641 25.7687V23.8414C7.18706 23.7561 7.1707 23.6715 7.13829 23.5926C7.10588 23.5138 7.05806 23.4421 6.99765 23.3819C6.93723 23.3217 6.86542 23.2742 6.78641 23.2421C6.70741 23.21 6.62279 23.1939 6.53751 23.1949ZM9.09678 23.1949C8.92787 23.1981 8.76704 23.2677 8.64918 23.3888C8.53132 23.5098 8.46595 23.6724 8.46725 23.8414V25.7687C8.48662 26.6016 9.73115 26.6016 9.75052 25.7687V23.8414C9.75118 23.7557 9.73467 23.6707 9.70196 23.5915C9.66925 23.5123 9.621 23.4404 9.56007 23.3802C9.49913 23.3199 9.42674 23.2725 9.34717 23.2407C9.2676 23.2088 9.18246 23.1933 9.09678 23.1949ZM5.90556 28.9672H23.203V30.2504H19.9973C19.1426 30.2504 19.1426 31.5337 19.9973 31.5337H25.1231C26.91 31.5337 28.324 32.9477 28.324 34.7346C28.324 36.5191 26.91 37.9355 25.1231 37.9355H5.26635C4.84488 37.9387 4.42697 37.8582 4.03689 37.6985C3.64682 37.5388 3.29236 37.3033 2.9941 37.0054C2.69584 36.7076 2.45973 36.3535 2.29948 35.9637C2.13923 35.5739 2.05803 35.1561 2.06061 34.7346C2.06061 32.9477 3.47947 31.5313 5.26635 31.5313H17.438C18.2927 31.5313 18.2927 30.248 17.438 30.248H5.90556V28.9672ZM6.5472 32.8121C5.49395 32.8121 4.6223 33.6789 4.6223 34.7346C4.6223 35.7903 5.49395 36.6571 6.5472 36.6571C7.60286 36.6571 8.46725 35.7854 8.46725 34.7346C8.46598 34.2255 8.26335 33.7377 7.90362 33.3775C7.54388 33.0173 7.05625 32.814 6.5472 32.8121ZM12.3122 32.8121C11.259 32.8121 10.3873 33.6789 10.3873 34.7346C10.3873 35.7903 11.259 36.6571 12.3122 36.6571C13.3655 36.6571 14.2323 35.7854 14.2323 34.7346C14.231 34.2255 14.0284 33.7377 13.6686 33.3775C13.3089 33.0173 12.8213 32.814 12.3122 32.8121ZM18.0748 32.8121C17.5662 32.8147 17.0791 33.0182 16.7199 33.3783C16.3607 33.7384 16.1584 34.226 16.1572 34.7346C16.1572 35.7878 17.024 36.6571 18.0772 36.6571C19.1305 36.6571 19.9973 35.7854 19.9973 34.7346C19.996 34.2255 19.7934 33.7377 19.4336 33.3775C19.0739 33.0173 18.5839 32.814 18.0748 32.8121ZM23.8422 32.8121C23.3332 32.814 22.8455 33.0173 22.4858 33.3775C22.1261 33.7377 21.9234 34.2255 21.9222 34.7346C21.9222 35.7878 22.7866 36.6571 23.8422 36.6571C24.8955 36.6571 25.7671 35.7854 25.7671 34.7346C25.7671 33.6838 24.8955 32.8121 23.8422 32.8121ZM6.5472 34.0954C6.91038 34.0954 7.18641 34.3714 7.18641 34.7346C7.18641 35.0978 6.91038 35.3762 6.5472 35.3762C6.46267 35.3772 6.37879 35.3613 6.30051 35.3294C6.22222 35.2975 6.1511 35.2502 6.09132 35.1905C6.03155 35.1307 5.98432 35.0596 5.95242 34.9813C5.92052 34.903 5.90459 34.8191 5.90556 34.7346C5.90556 34.3714 6.18643 34.0954 6.5472 34.0954ZM12.3122 34.0954C12.3965 34.0941 12.4802 34.1097 12.5584 34.1414C12.6365 34.173 12.7075 34.2201 12.7671 34.2797C12.8267 34.3393 12.8738 34.4103 12.9054 34.4884C12.9371 34.5666 12.9527 34.6503 12.9514 34.7346C12.9531 34.8191 12.9377 34.9031 12.9061 34.9815C12.8746 35.0599 12.8276 35.1312 12.768 35.1911C12.7083 35.251 12.6372 35.2982 12.5589 35.33C12.4806 35.3618 12.3967 35.3775 12.3122 35.3762C12.2277 35.3772 12.1438 35.3613 12.0655 35.3294C11.9872 35.2975 11.9161 35.2502 11.8563 35.1905C11.7966 35.1307 11.7493 35.0596 11.7174 34.9813C11.6855 34.903 11.6696 34.8191 11.6706 34.7346C11.6706 34.3714 11.9514 34.0954 12.3122 34.0954ZM18.0748 34.0954C18.438 34.0954 18.714 34.3714 18.714 34.7346C18.714 35.0978 18.438 35.3762 18.0772 35.3762C17.7164 35.3762 17.438 35.0954 17.438 34.7346C17.438 34.3738 17.714 34.0954 18.0748 34.0954ZM23.8422 34.0954C24.203 34.0954 24.4839 34.3714 24.4839 34.7346C24.4839 35.0954 24.203 35.3762 23.8422 35.3762C23.479 35.3762 23.203 35.0954 23.203 34.7346C23.203 34.3738 23.479 34.0954 23.8422 34.0954Z" fill="#B2B8C0"/>
<path d="M26.4112 27.035V22.5605C26.4102 22.4791 26.3938 22.3985 26.3628 22.3232L23.8011 15.9166C23.666 15.534 23.4697 15.1759 23.22 14.8561C23.0921 14.6916 22.933 14.5538 22.7519 14.4508C22.5707 14.3478 22.3711 14.2814 22.1643 14.2556L22.5275 13.1564C22.7551 12.4784 23.0166 11.9215 24.0166 11.338L29.8397 7.6577C29.9121 7.61359 29.9748 7.55525 30.024 7.48621C30.0733 7.41718 30.108 7.33887 30.1261 7.25604C30.1442 7.17321 30.1453 7.08756 30.1294 7.00428C30.1134 6.921 30.0808 6.84182 30.0334 6.77152C29.9886 6.70121 29.9304 6.64042 29.862 6.59263C29.7937 6.54484 29.7167 6.51098 29.6353 6.49299C29.5539 6.475 29.4697 6.47324 29.3876 6.48779C29.3055 6.50234 29.2271 6.53294 29.1569 6.57782L23.3604 10.2363C22.3819 10.782 21.6491 11.6811 21.312 12.7496L20.8181 14.2338H15.7819L16.6172 11.8876C17.0288 10.7375 17.8472 9.5487 18.9731 9.05476L30.5394 4.32363C30.5539 4.36963 30.5636 4.41321 30.5806 4.45922L35.934 19.2531L30.3772 26.6621C30.3065 26.7573 30.2636 26.8702 30.2531 26.9883C30.2427 27.1064 30.2652 27.225 30.3181 27.3311C30.371 27.4372 30.4523 27.5265 30.5529 27.5892C30.6535 27.6519 30.7695 27.6855 30.8881 27.6863H34.733C37.2076 27.6863 39.2148 25.6767 39.2148 23.2046V21.9213C39.2148 21.069 37.9339 21.069 37.9339 21.9213V23.2046C37.9339 24.989 36.5199 26.4055 34.733 26.4055H32.1738L36.9751 20.0013H38.578C38.9799 19.9988 39.2802 19.6332 39.2075 19.2386L36.147 2.96288C35.8807 1.54887 34.4861 0.570681 32.9268 0.807964C31.5878 1.01377 30.7815 1.97017 30.5249 2.94593L18.467 7.87803C16.8739 8.57535 15.9053 10.0717 15.4114 11.4566L14.4211 14.2338H14.2371C13.0749 14.2338 12.5543 15.1491 12.3292 16.0425L11.1694 20.638H2.70224C2.19357 20.6406 1.70642 20.8436 1.34651 21.2031C0.98659 21.5625 0.782946 22.0494 0.779765 22.5581V27.0471C0.779765 28.1004 1.65142 28.9647 2.70224 28.9647H4.6223V30.2989C2.45285 30.6136 0.777344 32.478 0.777344 34.7298C0.777344 37.2043 2.79183 39.2139 5.26635 39.2139H25.1231C26.294 39.1867 27.4078 38.7024 28.2263 37.8647C29.0448 37.0269 29.503 35.9022 29.503 34.731C29.503 33.5597 29.0448 32.435 28.2263 31.5972C27.4078 30.7595 26.294 30.2752 25.1231 30.248H24.4839V28.9647C24.7376 28.9657 24.9891 28.9164 25.2237 28.8195C25.4583 28.7227 25.6713 28.5804 25.8505 28.4007C26.0298 28.221 26.1716 28.0076 26.2678 27.7728C26.3641 27.5379 26.4128 27.2888 26.4112 27.035ZM34.8856 3.19774L37.8032 18.718H37.1034L31.7864 4.02097C31.5007 3.2389 32.0769 2.26314 33.0963 2.08881C33.9679 1.93627 34.7476 2.47621 34.8856 3.19774ZM33.4522 3.34302C33.3679 3.34302 33.2845 3.35961 33.2066 3.39186C33.1288 3.42411 33.0581 3.47137 32.9985 3.53095C32.9389 3.59053 32.8916 3.66126 32.8594 3.73911C32.8272 3.81696 32.8106 3.90039 32.8106 3.98465C32.8106 4.06891 32.8272 4.15235 32.8594 4.23019C32.8916 4.30804 32.9389 4.37877 32.9985 4.43835C33.0581 4.49794 33.1288 4.5452 33.2066 4.57744C33.2845 4.60969 33.3679 4.62628 33.4522 4.62628C33.6224 4.62628 33.7856 4.55868 33.9059 4.43835C34.0262 4.31803 34.0938 4.15482 34.0938 3.98465C34.0938 3.81448 34.0262 3.65128 33.9059 3.53095C33.7856 3.41062 33.6224 3.34302 33.4522 3.34302ZM24.4839 27.6863H2.70224C2.61776 27.6886 2.53369 27.6738 2.45512 27.6427C2.37655 27.6115 2.30511 27.5648 2.24513 27.5053C2.18515 27.4457 2.13786 27.3746 2.10615 27.2963C2.07443 27.218 2.05894 27.134 2.06061 27.0495V22.5605C2.06061 22.1949 2.33663 21.9237 2.70224 21.9237H11.6778C11.821 21.9237 11.96 21.8757 12.0727 21.7875C12.1855 21.6993 12.2655 21.576 12.3001 21.4371L13.5858 16.2701C13.7068 15.7859 13.8763 15.5147 14.2395 15.5147H21.9294C22.0989 15.5147 22.1256 15.5437 22.2418 15.6793C22.3556 15.8173 22.4887 16.0812 22.6146 16.3936L25.1303 22.684V27.0568C25.1314 27.141 25.1153 27.2245 25.0831 27.3023C25.0509 27.3801 25.0033 27.4506 24.9431 27.5094C24.8829 27.5683 24.8113 27.6143 24.7328 27.6447C24.6543 27.6751 24.568 27.6893 24.4839 27.6863ZM15.5179 16.7955C15.2274 16.7955 14.9732 16.9916 14.8981 17.2725L13.8739 21.1126C13.8479 21.2077 13.8441 21.3075 13.8629 21.4043C13.8817 21.5011 13.9225 21.5923 13.9822 21.6707C14.0419 21.7492 14.1189 21.8128 14.2072 21.8567C14.2955 21.9006 14.3927 21.9235 14.4913 21.9237H17.4404V23.8414C17.4404 23.9697 17.4792 24.0932 17.5494 24.1973L18.8326 26.1222C18.9513 26.2989 19.1523 26.4055 19.3653 26.4055H23.2103C23.3792 26.4048 23.541 26.3376 23.6607 26.2184C23.7804 26.0992 23.8482 25.9376 23.8495 25.7687V23.2022C23.8486 23.1163 23.8305 23.0315 23.7962 22.9528L21.3701 17.1902C21.3215 17.0735 21.2394 16.9738 21.1343 16.9036C21.0292 16.8334 20.9057 16.7958 20.7793 16.7955H15.5179ZM16.0095 18.0788H17.438V20.638H15.3242L16.0095 18.0788ZM18.7213 18.0788H20.3508L22.5662 23.3329V25.1246H19.7043L18.7213 23.6477V21.2797V18.0788ZM3.97582 23.1949C3.80607 23.1968 3.644 23.2659 3.5251 23.3871C3.4062 23.5083 3.34016 23.6716 3.34145 23.8414V25.7687C3.32208 26.6403 4.64167 26.6403 4.62472 25.7687V23.8414C4.62537 23.7559 4.60894 23.6711 4.57638 23.5921C4.54382 23.513 4.49579 23.4413 4.43511 23.3811C4.37444 23.3208 4.30234 23.2733 4.22305 23.2414C4.14376 23.2094 4.0613 23.1936 3.97582 23.1949ZM6.53751 23.1949C6.36818 23.1974 6.20673 23.2668 6.08835 23.3879C5.96997 23.509 5.90427 23.672 5.90556 23.8414V25.7687C5.88619 26.6403 7.20578 26.6403 7.18641 25.7687V23.8414C7.18706 23.7561 7.1707 23.6715 7.13829 23.5926C7.10588 23.5138 7.05806 23.4421 6.99765 23.3819C6.93723 23.3217 6.86542 23.2742 6.78641 23.2421C6.70741 23.21 6.62279 23.1939 6.53751 23.1949ZM9.09678 23.1949C8.92787 23.1981 8.76704 23.2677 8.64918 23.3888C8.53132 23.5098 8.46595 23.6724 8.46725 23.8414V25.7687C8.48662 26.6016 9.73115 26.6016 9.75052 25.7687V23.8414C9.75118 23.7557 9.73467 23.6707 9.70196 23.5915C9.66925 23.5123 9.621 23.4404 9.56007 23.3802C9.49913 23.3199 9.42674 23.2725 9.34717 23.2407C9.2676 23.2088 9.18246 23.1933 9.09678 23.1949ZM5.90556 28.9672H23.203V30.2504H19.9973C19.1426 30.2504 19.1426 31.5337 19.9973 31.5337H25.1231C26.91 31.5337 28.324 32.9477 28.324 34.7346C28.324 36.5191 26.91 37.9355 25.1231 37.9355H5.26635C4.84488 37.9387 4.42697 37.8582 4.03689 37.6985C3.64682 37.5388 3.29236 37.3033 2.9941 37.0054C2.69584 36.7076 2.45973 36.3535 2.29948 35.9637C2.13923 35.5739 2.05803 35.1561 2.06061 34.7346C2.06061 32.9477 3.47947 31.5313 5.26635 31.5313H17.438C18.2927 31.5313 18.2927 30.248 17.438 30.248H5.90556V28.9672ZM6.5472 32.8121C5.49395 32.8121 4.6223 33.6789 4.6223 34.7346C4.6223 35.7903 5.49395 36.6571 6.5472 36.6571C7.60286 36.6571 8.46725 35.7854 8.46725 34.7346C8.46598 34.2255 8.26335 33.7377 7.90362 33.3775C7.54388 33.0173 7.05625 32.814 6.5472 32.8121ZM12.3122 32.8121C11.259 32.8121 10.3873 33.6789 10.3873 34.7346C10.3873 35.7903 11.259 36.6571 12.3122 36.6571C13.3655 36.6571 14.2323 35.7854 14.2323 34.7346C14.231 34.2255 14.0284 33.7377 13.6686 33.3775C13.3089 33.0173 12.8213 32.814 12.3122 32.8121ZM18.0748 32.8121C17.5662 32.8147 17.0791 33.0182 16.7199 33.3783C16.3607 33.7384 16.1584 34.226 16.1572 34.7346C16.1572 35.7878 17.024 36.6571 18.0772 36.6571C19.1305 36.6571 19.9973 35.7854 19.9973 34.7346C19.996 34.2255 19.7934 33.7377 19.4336 33.3775C19.0739 33.0173 18.5839 32.814 18.0748 32.8121ZM23.8422 32.8121C23.3332 32.814 22.8455 33.0173 22.4858 33.3775C22.1261 33.7377 21.9234 34.2255 21.9222 34.7346C21.9222 35.7878 22.7866 36.6571 23.8422 36.6571C24.8955 36.6571 25.7671 35.7854 25.7671 34.7346C25.7671 33.6838 24.8955 32.8121 23.8422 32.8121ZM6.5472 34.0954C6.91038 34.0954 7.18641 34.3714 7.18641 34.7346C7.18641 35.0978 6.91038 35.3762 6.5472 35.3762C6.46267 35.3772 6.37879 35.3613 6.30051 35.3294C6.22222 35.2975 6.1511 35.2502 6.09132 35.1905C6.03155 35.1307 5.98432 35.0596 5.95242 34.9813C5.92052 34.903 5.90459 34.8191 5.90556 34.7346C5.90556 34.3714 6.18643 34.0954 6.5472 34.0954ZM12.3122 34.0954C12.3965 34.0941 12.4802 34.1097 12.5584 34.1414C12.6365 34.173 12.7075 34.2201 12.7671 34.2797C12.8267 34.3393 12.8738 34.4103 12.9054 34.4884C12.9371 34.5666 12.9527 34.6503 12.9514 34.7346C12.9531 34.8191 12.9377 34.9031 12.9061 34.9815C12.8746 35.0599 12.8276 35.1312 12.768 35.1911C12.7083 35.251 12.6372 35.2982 12.5589 35.33C12.4806 35.3618 12.3967 35.3775 12.3122 35.3762C12.2277 35.3772 12.1438 35.3613 12.0655 35.3294C11.9872 35.2975 11.9161 35.2502 11.8563 35.1905C11.7966 35.1307 11.7493 35.0596 11.7174 34.9813C11.6855 34.903 11.6696 34.8191 11.6706 34.7346C11.6706 34.3714 11.9514 34.0954 12.3122 34.0954ZM18.0748 34.0954C18.438 34.0954 18.714 34.3714 18.714 34.7346C18.714 35.0978 18.438 35.3762 18.0772 35.3762C17.7164 35.3762 17.438 35.0954 17.438 34.7346C17.438 34.3738 17.714 34.0954 18.0748 34.0954ZM23.8422 34.0954C24.203 34.0954 24.4839 34.3714 24.4839 34.7346C24.4839 35.0954 24.203 35.3762 23.8422 35.3762C23.479 35.3762 23.203 35.0954 23.203 34.7346C23.203 34.3738 23.479 34.0954 23.8422 34.0954Z" stroke="#B2B8C0" stroke-width="0.6" mask="url(#path-1-outside-1_679_11616)"/>
</g>
<defs>
<clipPath id="clip0_679_11616">
<rect width="40" height="40" fill="white"/>
</clipPath>
</defs>
</svg>
