<svg width="40" height="40" viewBox="0 0 40 40" fill="none" xmlns="http://www.w3.org/2000/svg">
<path d="M36.25 5V12.5C36.25 12.8315 36.1183 13.1495 35.8839 13.3839C35.6495 13.6183 35.3315 13.75 35 13.75C34.6685 13.75 34.3505 13.6183 34.1161 13.3839C33.8817 13.1495 33.75 12.8315 33.75 12.5V8.0175L25.8838 15.8837C25.6397 16.1278 25.3197 16.25 25 16.25C24.6803 16.25 24.3603 16.1278 24.1162 15.8837C24.0001 15.7677 23.908 15.63 23.8451 15.4783C23.7822 15.3267 23.7499 15.1642 23.7499 15C23.7499 14.8358 23.7822 14.6733 23.8451 14.5217C23.908 14.37 24.0001 14.2323 24.1162 14.1163L31.9825 6.25H27.5C27.1685 6.25 26.8505 6.1183 26.6161 5.88388C26.3817 5.64946 26.25 5.33152 26.25 5C26.25 4.66848 26.3817 4.35054 26.6161 4.11612C26.8505 3.8817 27.1685 3.75 27.5 3.75H35C35.3315 3.75 35.6495 3.8817 35.8839 4.11612C36.1183 4.35054 36.25 4.66848 36.25 5ZM15.8837 24.1162C15.7677 24.0001 15.63 23.908 15.4783 23.8451C15.3267 23.7822 15.1642 23.7499 15 23.7499C14.8358 23.7499 14.6733 23.7822 14.5217 23.8451C14.37 23.908 14.2323 24.0001 14.1163 24.1162L6.25 31.9825V27.5C6.25 27.1685 6.1183 26.8505 5.88388 26.6161C5.64946 26.3817 5.33152 26.25 5 26.25C4.66848 26.25 4.35054 26.3817 4.11612 26.6161C3.8817 26.8505 3.75 27.1685 3.75 27.5V35C3.75 35.3315 3.8817 35.6495 4.11612 35.8839C4.35054 36.1183 4.66848 36.25 5 36.25H12.5C12.8315 36.25 13.1495 36.1183 13.3839 35.8839C13.6183 35.6495 13.75 35.3315 13.75 35C13.75 34.6685 13.6183 34.3505 13.3839 34.1161C13.1495 33.8817 12.8315 33.75 12.5 33.75H8.0175L15.8837 25.8838C15.9999 25.7677 16.092 25.63 16.1549 25.4783C16.2178 25.3267 16.2501 25.1642 16.2501 25C16.2501 24.8358 16.2178 24.6733 16.1549 24.5217C16.092 24.37 15.9999 24.2323 15.8837 24.1162Z" fill="#B2B8C0"/>
</svg>
