<svg version="1.1" xmlns="http://www.w3.org/2000/svg" xmlns:xlink="http://www.w3.org/1999/xlink">

    <symbol viewBox="0 0 24 16" id="header-burger-link">
        <rect width="24" height="2" />
        <rect y="7" width="24" height="2" />
        <rect y="14" width="24" height="2" />
    </symbol>

    <symbol viewBox="0 0 6 10" id="breadcrumbs">
        <path d="M1 9L5 5L1 1" />
    </symbol>

    <symbol viewBox="0 0 280 20" id="project-header">
        <path d="M132.34 5.57735L140 1.1547L147.66 5.57735V14.4227L140 18.8453L132.34 14.4227V5.57735Z" stroke-width="2" />
        <line y1="10" x2="120" y2="10" stroke-width="2" />
        <line x1="160" y1="10" x2="280" y2="10" stroke-width="2" />
    </symbol>

    <symbol viewBox="0 0 7 11" id="articles-item-link">
        <path d="M1 10L5 5.5L1 1" stroke-width="2" />
    </symbol>

    <symbol viewBox="0 0 30 30" id="docs-group-title">
        <rect x="13.75" y="6.25" width="2.5" height="17.5" />
        <rect x="6.25" y="16.25" width="2.5" height="17.5" transform="rotate(-90 6.25 16.25)" />
    </symbol>

    <symbol viewBox="0 0 160 190" id="digit-1">
        <path d="M59.38 186.001H109.04V2.70117H72.38L19.08 17.7812L28.7 56.7812L59.38 49.7612V186.001Z" />
        <path d="M17 143.001H144V187.001H17V143.001Z" />
    </symbol>

    <symbol viewBox="0 0 160 190" id="digit-2">
        <path d="M7.58008 187.001H151.62V145.921H76.4801L107.68 124.081C134.98 104.841 149.8 89.5009 149.8 60.3809C149.8 25.5409 122.5 1.88086 82.7201 1.88086C47.3601 1.88086 28.1201 15.6609 8.62008 40.8809L42.6801 69.2209C56.9801 52.8409 66.6001 45.8209 78.8201 45.8209C91.0401 45.8209 99.1001 52.8409 99.1001 64.2809C99.1001 75.2009 92.8601 84.0409 75.7001 97.0409L7.58008 149.041V187.001Z" />
    </symbol>

    <symbol viewBox="0 0 160 190" id="digit-3">
        <path d="M84.1597 187.641C124.72 187.641 154.36 163.981 154.36 127.061C154.36 95.601 133.3 81.041 107.3 75.321L150.72 38.141V2.00098H19.1597V42.821H88.8397L46.9797 80.521L54.2597 106.781H75.5797C94.5597 106.781 105.22 113.801 105.22 125.501C105.22 137.201 96.1197 144.481 81.8197 144.481C65.1797 144.481 51.3997 136.941 38.3997 123.681L6.67969 155.401C24.3597 174.901 49.0597 187.641 84.1597 187.641Z" />
    </symbol>

    <symbol viewBox="0 0 160 190" id="digit-4">
        <path d="M97.8409 187.001H146.721V151.641H160V113.941H146.721V3.70117H95.7609L1.38086 116.021L9.70086 151.641H97.8409V187.001ZM54.4209 114.201L97.8409 61.9412V114.201H54.4209Z" />
    </symbol>

    <symbol viewBox="0 0 160 190" id="digit-5">
        <path d="M79.7794 187.641C123.979 187.641 154.919 163.461 154.919 122.901C154.919 82.861 125.279 64.661 92.5195 64.661C80.2995 64.661 71.7195 67.261 63.3995 71.161L64.9595 43.601H146.859V2.00098H25.1795L19.9795 94.301L49.8795 110.941C58.4595 105.741 67.8194 101.841 78.9995 101.841C94.8595 101.841 105.779 109.901 105.779 122.901C105.779 136.421 95.6395 144.741 78.9995 144.741C63.6595 144.741 49.6195 137.461 34.7995 124.981L5.93945 158.781C24.9195 176.461 47.5395 187.641 79.7794 187.641Z" />
    </symbol>

    <symbol viewBox="0 0 160 190" id="digit-6">
        <path d="M82.6602 189.641C122.44 189.641 154.94 164.941 154.94 124.121C154.94 87.2013 126.86 66.9213 94.8802 66.9213C76.9402 66.9213 65.2402 73.6813 55.6202 80.9613C57.9602 58.0813 68.6202 42.2213 89.9402 42.2213C104.5 42.2213 114.9 47.6813 126.08 56.0013L149.74 20.3813C132.32 7.38133 114.64 0.361328 89.1602 0.361328C32.2201 0.361328 4.66016 43.5213 4.66016 100.201C4.66016 134.781 13.5002 155.321 27.0202 168.841C40.0202 181.841 56.9202 189.641 82.6602 189.641ZM80.5802 150.381C64.7202 150.381 54.8402 139.981 54.8402 126.721C54.8402 113.201 64.2002 103.061 80.0602 103.061C95.9202 103.061 105.8 113.461 105.8 126.461C105.8 140.241 96.4402 150.381 80.5802 150.381Z" />
    </symbol>

    <symbol viewBox="0 0 12 10" id="pager-prev">
        <path d="M11 5L0.999999 5M0.999999 5L5.5 0.5M0.999999 5L5.5 9.5" stroke-linecap="round" stroke-linejoin="round" />
    </symbol>

    <symbol viewBox="0 0 12 10" id="pager-next">
        <path d="M1 5L11 5M11 5L6.5 0.5M11 5L6.5 9.5" stroke-linecap="round" stroke-linejoin="round" />
    </symbol>

    <symbol viewBox="0 0 24 16" id="projects-menu-mobile">
        <rect width="24" height="4" />
        <rect y="6" width="24" height="4" />
        <rect y="12" width="11" height="4" />
        <rect x="13" y="12" width="11" height="4" />
    </symbol>

    <symbol viewBox="0 0 49 49" id="zoom">
        <path d="M6.29241 6.14315C10.2539 2.18167 15.5209 0 21.1232 0C26.7255 0 31.9925 2.18167 35.9539 6.14315C39.9153 10.1045 42.0971 15.3715 42.0971 20.9737C42.0971 26.0957 40.2724 30.9366 36.9322 34.7566L48.5804 46.4048C49.1399 46.9643 49.1399 47.8714 48.5804 48.431C48.3006 48.7106 47.934 48.8506 47.5674 48.8506C47.2008 48.8506 46.8341 48.7107 46.5544 48.4309L34.9062 36.7828C31.0862 40.1228 26.2452 41.9476 21.1232 41.9476C15.5208 41.9476 10.254 39.7659 6.2925 35.8044C2.33111 31.843 0.149426 26.576 0.149426 20.9738C0.149426 15.3715 2.33101 10.1045 6.29241 6.14315ZM8.31857 33.7784C15.3791 40.8388 26.8672 40.8388 33.9277 33.7784C40.9882 26.7179 40.9882 15.2297 33.9277 8.1693C30.3971 4.63871 25.7609 2.87398 21.1231 2.87398C16.4865 2.87398 11.8483 4.63956 8.31848 8.1693C1.25821 15.2296 1.25821 26.7178 8.31857 33.7784Z" />
    </symbol>

    <symbol viewBox="0 0 206 206" id="icon-play">
        <path d="M132.361 97.2541C136.552 99.8077 136.552 106.192 132.361 108.745L89.9325 134.601C85.742 137.155 80.5039 133.963 80.5039 128.855L80.5039 77.1442C80.5039 72.0369 85.742 68.8449 89.9325 71.3985L132.361 97.2541Z" />
    </symbol>

    <symbol viewBox="0 0 30 30" id="multi-panels-item-zoom">
        <path fill-rule="evenodd" clip-rule="evenodd" d="M13.0266 5.63062C12.1594 5.63062 11.3616 6.12374 10.9734 6.89905L10.6716 7.50561H8.4375C6.89531 7.50561 5.625 8.77593 5.625 10.3181V19.6931C5.625 21.2353 6.89531 22.5056 8.4375 22.5056H21.5625C23.1047 22.5056 24.375 21.2353 24.375 19.6931V10.3181C24.375 8.77593 23.1047 7.50561 21.5625 7.50561H19.3284L19.0266 6.89905C18.8354 6.51823 18.5422 6.19798 18.1797 5.97401C17.8172 5.75005 17.3996 5.63116 16.9734 5.63062H13.0266ZM13.0266 7.50561H16.9734C17.1347 7.50561 17.2772 7.59468 17.3484 7.73811L17.9109 8.86312C17.9889 9.01878 18.1088 9.14965 18.257 9.24106C18.4052 9.33246 18.5759 9.38078 18.75 9.38061H21.5625C22.0912 9.38061 22.5 9.78937 22.5 10.3181V19.6931C22.5 20.2219 22.0912 20.6306 21.5625 20.6306H8.4375C7.90875 20.6306 7.5 20.2219 7.5 19.6931V10.3181C7.5 9.78937 7.90875 9.38061 8.4375 9.38061H11.25C11.4242 9.3807 11.595 9.33223 11.7432 9.24066C11.8914 9.14908 12.0112 9.01802 12.0891 8.86218L12.6516 7.73718C12.6861 7.66735 12.7396 7.60863 12.8059 7.56769C12.8722 7.52676 12.9486 7.50525 13.0266 7.50561Z" />
        <path fill-rule="evenodd" clip-rule="evenodd" d="M15 11.2556C12.9403 11.2556 11.25 12.9459 11.25 15.0056C11.25 17.0653 12.9403 18.7556 15 18.7556C17.0597 18.7556 18.75 17.0653 18.75 15.0056C18.75 12.9459 17.0597 11.2556 15 11.2556ZM15 13.1306C16.0462 13.1306 16.875 13.9584 16.875 15.0056C16.875 16.0528 16.0462 16.8806 15 16.8806C13.9537 16.8806 13.125 16.0519 13.125 15.0056C13.125 13.9594 13.9537 13.1306 15 13.1306Z" />
    </symbol>

    <symbol viewBox="0 0 18 18" id="window-close">
        <path d="M1 1L17 17" stroke-width="2" stroke-linecap="round" />
        <path d="M17 1L1 17" stroke-width="2" stroke-linecap="round" />
    </symbol>

    <symbol viewBox="0 0 11 10" id="header-page-back">
        <path d="M10 5H2M2 5L6 1M2 5L6 9" stroke-width="2" stroke-linecap="round" />
    </symbol>

</svg>