<svg version="1.1" xmlns="http://www.w3.org/2000/svg" xmlns:xlink="http://www.w3.org/1999/xlink">

    <symbol viewBox="0 0 24 16" id="header-burger-link">
        <rect width="24" height="2" />
        <rect y="7" width="24" height="2" />
        <rect y="14" width="24" height="2" />
    </symbol>

    <symbol viewBox="0 0 6 10" id="breadcrumbs">
        <path d="M1 9L5 5L1 1" />
    </symbol>

    <symbol viewBox="0 0 280 20" id="project-header">
        <path d="M132.34 5.57735L140 1.1547L147.66 5.57735V14.4227L140 18.8453L132.34 14.4227V5.57735Z" stroke-width="2" />
        <line y1="10" x2="120" y2="10" stroke-width="2" />
        <line x1="160" y1="10" x2="280" y2="10" stroke-width="2" />
    </symbol>

    <symbol viewBox="0 0 7 11" id="articles-item-link">
        <path d="M1 10L5 5.5L1 1" stroke-width="2" />
    </symbol>

    <symbol viewBox="0 0 30 30" id="docs-group-title">
        <rect x="13.75" y="6.25" width="2.5" height="17.5" />
        <rect x="6.25" y="16.25" width="2.5" height="17.5" transform="rotate(-90 6.25 16.25)" />
    </symbol>

    <symbol viewBox="0 0 160 190" id="digit-1">
        <path d="M59.38 186.001H109.04V2.70117H72.38L19.08 17.7812L28.7 56.7812L59.38 49.7612V186.001Z" />
        <path d="M17 143.001H144V187.001H17V143.001Z" />
    </symbol>

    <symbol viewBox="0 0 160 190" id="digit-2">
        <path d="M7.58008 187.001H151.62V145.921H76.4801L107.68 124.081C134.98 104.841 149.8 89.5009 149.8 60.3809C149.8 25.5409 122.5 1.88086 82.7201 1.88086C47.3601 1.88086 28.1201 15.6609 8.62008 40.8809L42.6801 69.2209C56.9801 52.8409 66.6001 45.8209 78.8201 45.8209C91.0401 45.8209 99.1001 52.8409 99.1001 64.2809C99.1001 75.2009 92.8601 84.0409 75.7001 97.0409L7.58008 149.041V187.001Z" />
    </symbol>

    <symbol viewBox="0 0 160 190" id="digit-3">
        <path d="M84.1597 187.641C124.72 187.641 154.36 163.981 154.36 127.061C154.36 95.601 133.3 81.041 107.3 75.321L150.72 38.141V2.00098H19.1597V42.821H88.8397L46.9797 80.521L54.2597 106.781H75.5797C94.5597 106.781 105.22 113.801 105.22 125.501C105.22 137.201 96.1197 144.481 81.8197 144.481C65.1797 144.481 51.3997 136.941 38.3997 123.681L6.67969 155.401C24.3597 174.901 49.0597 187.641 84.1597 187.641Z" />
    </symbol>

    <symbol viewBox="0 0 160 190" id="digit-4">
        <path d="M97.8409 187.001H146.721V151.641H160V113.941H146.721V3.70117H95.7609L1.38086 116.021L9.70086 151.641H97.8409V187.001ZM54.4209 114.201L97.8409 61.9412V114.201H54.4209Z" />
    </symbol>

    <symbol viewBox="0 0 160 190" id="digit-5">
        <path d="M79.7794 187.641C123.979 187.641 154.919 163.461 154.919 122.901C154.919 82.861 125.279 64.661 92.5195 64.661C80.2995 64.661 71.7195 67.261 63.3995 71.161L64.9595 43.601H146.859V2.00098H25.1795L19.9795 94.301L49.8795 110.941C58.4595 105.741 67.8194 101.841 78.9995 101.841C94.8595 101.841 105.779 109.901 105.779 122.901C105.779 136.421 95.6395 144.741 78.9995 144.741C63.6595 144.741 49.6195 137.461 34.7995 124.981L5.93945 158.781C24.9195 176.461 47.5395 187.641 79.7794 187.641Z" />
    </symbol>

    <symbol viewBox="0 0 160 190" id="digit-6">
        <path d="M82.6602 189.641C122.44 189.641 154.94 164.941 154.94 124.121C154.94 87.2013 126.86 66.9213 94.8802 66.9213C76.9402 66.9213 65.2402 73.6813 55.6202 80.9613C57.9602 58.0813 68.6202 42.2213 89.9402 42.2213C104.5 42.2213 114.9 47.6813 126.08 56.0013L149.74 20.3813C132.32 7.38133 114.64 0.361328 89.1602 0.361328C32.2201 0.361328 4.66016 43.5213 4.66016 100.201C4.66016 134.781 13.5002 155.321 27.0202 168.841C40.0202 181.841 56.9202 189.641 82.6602 189.641ZM80.5802 150.381C64.7202 150.381 54.8402 139.981 54.8402 126.721C54.8402 113.201 64.2002 103.061 80.0602 103.061C95.9202 103.061 105.8 113.461 105.8 126.461C105.8 140.241 96.4402 150.381 80.5802 150.381Z" />
    </symbol>

    <symbol viewBox="0 0 12 10" id="pager-prev">
        <path d="M11 5L0.999999 5M0.999999 5L5.5 0.5M0.999999 5L5.5 9.5" stroke-linecap="round" stroke-linejoin="round" />
    </symbol>

    <symbol viewBox="0 0 12 10" id="pager-next">
        <path d="M1 5L11 5M11 5L6.5 0.5M11 5L6.5 9.5" stroke-linecap="round" stroke-linejoin="round" />
    </symbol>

    <symbol viewBox="0 0 24 16" id="projects-menu-mobile">
        <rect width="24" height="4" />
        <rect y="6" width="24" height="4" />
        <rect y="12" width="11" height="4" />
        <rect x="13" y="12" width="11" height="4" />
    </symbol>

    <symbol viewBox="0 0 49 49" id="zoom">
        <path d="M6.29241 6.14315C10.2539 2.18167 15.5209 0 21.1232 0C26.7255 0 31.9925 2.18167 35.9539 6.14315C39.9153 10.1045 42.0971 15.3715 42.0971 20.9737C42.0971 26.0957 40.2724 30.9366 36.9322 34.7566L48.5804 46.4048C49.1399 46.9643 49.1399 47.8714 48.5804 48.431C48.3006 48.7106 47.934 48.8506 47.5674 48.8506C47.2008 48.8506 46.8341 48.7107 46.5544 48.4309L34.9062 36.7828C31.0862 40.1228 26.2452 41.9476 21.1232 41.9476C15.5208 41.9476 10.254 39.7659 6.2925 35.8044C2.33111 31.843 0.149426 26.576 0.149426 20.9738C0.149426 15.3715 2.33101 10.1045 6.29241 6.14315ZM8.31857 33.7784C15.3791 40.8388 26.8672 40.8388 33.9277 33.7784C40.9882 26.7179 40.9882 15.2297 33.9277 8.1693C30.3971 4.63871 25.7609 2.87398 21.1231 2.87398C16.4865 2.87398 11.8483 4.63956 8.31848 8.1693C1.25821 15.2296 1.25821 26.7178 8.31857 33.7784Z" />
    </symbol>

    <symbol viewBox="0 0 206 206" id="icon-play">
        <path d="M132.361 97.2541C136.552 99.8077 136.552 106.192 132.361 108.745L89.9325 134.601C85.742 137.155 80.5039 133.963 80.5039 128.855L80.5039 77.1442C80.5039 72.0369 85.742 68.8449 89.9325 71.3985L132.361 97.2541Z" />
    </symbol>

    <symbol viewBox="0 0 30 30" id="multi-panels-item-zoom">
        <path fill-rule="evenodd" clip-rule="evenodd" d="M13.0266 5.63062C12.1594 5.63062 11.3616 6.12374 10.9734 6.89905L10.6716 7.50561H8.4375C6.89531 7.50561 5.625 8.77593 5.625 10.3181V19.6931C5.625 21.2353 6.89531 22.5056 8.4375 22.5056H21.5625C23.1047 22.5056 24.375 21.2353 24.375 19.6931V10.3181C24.375 8.77593 23.1047 7.50561 21.5625 7.50561H19.3284L19.0266 6.89905C18.8354 6.51823 18.5422 6.19798 18.1797 5.97401C17.8172 5.75005 17.3996 5.63116 16.9734 5.63062H13.0266ZM13.0266 7.50561H16.9734C17.1347 7.50561 17.2772 7.59468 17.3484 7.73811L17.9109 8.86312C17.9889 9.01878 18.1088 9.14965 18.257 9.24106C18.4052 9.33246 18.5759 9.38078 18.75 9.38061H21.5625C22.0912 9.38061 22.5 9.78937 22.5 10.3181V19.6931C22.5 20.2219 22.0912 20.6306 21.5625 20.6306H8.4375C7.90875 20.6306 7.5 20.2219 7.5 19.6931V10.3181C7.5 9.78937 7.90875 9.38061 8.4375 9.38061H11.25C11.4242 9.3807 11.595 9.33223 11.7432 9.24066C11.8914 9.14908 12.0112 9.01802 12.0891 8.86218L12.6516 7.73718C12.6861 7.66735 12.7396 7.60863 12.8059 7.56769C12.8722 7.52676 12.9486 7.50525 13.0266 7.50561Z" />
        <path fill-rule="evenodd" clip-rule="evenodd" d="M15 11.2556C12.9403 11.2556 11.25 12.9459 11.25 15.0056C11.25 17.0653 12.9403 18.7556 15 18.7556C17.0597 18.7556 18.75 17.0653 18.75 15.0056C18.75 12.9459 17.0597 11.2556 15 11.2556ZM15 13.1306C16.0462 13.1306 16.875 13.9584 16.875 15.0056C16.875 16.0528 16.0462 16.8806 15 16.8806C13.9537 16.8806 13.125 16.0519 13.125 15.0056C13.125 13.9594 13.9537 13.1306 15 13.1306Z" />
    </symbol>

    <symbol viewBox="0 0 30 30" id="multi-panels-item-360">
        <path d="M18.8838 23.6667C18.4479 23.6667 18.0695 23.3426 18.013 22.8988C17.9519 22.4172 18.2925 21.9773 18.7738 21.916C21.551 21.5621 24.038 20.8096 25.7766 19.7965C27.3667 18.8702 28.2421 17.7812 28.2421 16.7302C28.2421 15.5718 27.2177 14.624 26.358 14.0326C25.9582 13.7575 25.857 13.2105 26.1321 12.8104C26.4072 12.4105 26.9544 12.3094 27.3543 12.5845C29.0851 13.7751 29.9999 15.2086 29.9999 16.7304C29.9999 18.4575 28.8456 20.043 26.6617 21.3154C24.6959 22.4607 22.0452 23.2714 18.996 23.6598C18.9583 23.6644 18.9207 23.6667 18.8838 23.6667ZM14.7858 22.4076L12.442 20.0638C12.0986 19.7205 11.5422 19.7205 11.1989 20.0638C10.8558 20.407 10.8558 20.9636 11.1989 21.3067L11.8837 21.9915C9.25803 21.7202 6.87262 21.1089 5.02558 20.2206C2.9489 19.222 1.75781 17.9497 1.75781 16.7302C1.75781 15.6959 2.61064 14.6208 4.15898 13.703C4.57675 13.4556 4.71444 12.9163 4.46706 12.4989C4.21944 12.0812 3.68015 11.9434 3.26273 12.1908C0.566015 13.7893 0 15.5416 0 16.7302C0 18.6803 1.51429 20.4825 4.26386 21.805C6.3979 22.831 9.15848 23.5183 12.166 23.7843L11.1989 24.7513C10.8558 25.0944 10.8558 25.6511 11.1989 25.9944C11.2805 26.0761 11.3775 26.1408 11.4841 26.185C11.5908 26.2291 11.7052 26.2518 11.8206 26.2516C12.0453 26.2516 12.2703 26.1658 12.442 25.9944L14.7858 23.6506C15.1288 23.3073 15.1288 22.7506 14.7858 22.4076Z" />
        <path d="M9.20428 14.9701V14.7586C9.20428 14.0127 8.74766 13.868 8.13535 13.868C7.75684 13.868 7.63437 13.534 7.63437 13.2002C7.63437 12.866 7.75684 12.532 8.13535 12.532C8.5584 12.532 9.00371 12.4764 9.00371 11.5746C9.00371 10.9289 8.63639 10.773 8.17977 10.773C7.63438 10.773 7.35605 10.9067 7.35605 11.3409C7.35605 11.7193 7.18895 11.9754 6.5433 11.9754C5.74174 11.9754 5.64172 11.8083 5.64172 11.2739C5.64172 10.4057 6.26498 9.28123 8.17977 9.28123C9.59381 9.28123 10.6624 9.79322 10.6624 11.2963C10.6624 12.1088 10.3619 12.866 9.80527 13.1221C10.4622 13.367 10.9408 13.8568 10.9408 14.7586V14.9701C10.9408 16.7959 9.68281 17.4862 8.12422 17.4862C6.20937 17.4862 5.47461 16.3172 5.47461 15.3821C5.47461 14.8811 5.68613 14.7474 6.29838 14.7474C7.01088 14.7474 7.189 14.9032 7.189 15.3265C7.189 15.8497 7.67896 15.9722 8.17982 15.9722C8.93691 15.9722 9.20428 15.6938 9.20428 14.9701ZM17.6985 14.7586V14.8588C17.6985 16.7737 16.5072 17.4862 14.971 17.4862C13.4347 17.4862 12.2321 16.7737 12.2321 14.8588V11.9086C12.2321 9.99373 13.4679 9.28123 15.0712 9.28123C16.9526 9.28123 17.6986 10.4501 17.6986 11.3741C17.6986 11.9085 17.4424 12.0754 16.8857 12.0754C16.4071 12.0754 15.984 11.9529 15.984 11.4409C15.984 11.0179 15.5388 10.7952 15.0155 10.7952C14.3587 10.7952 13.9689 11.1404 13.9689 11.9085V12.9104C14.3253 12.5208 14.8263 12.4205 15.3607 12.4205C16.6296 12.4205 17.6985 12.9771 17.6985 14.7586ZM13.9689 14.9813C13.9689 15.7495 14.3475 16.0834 14.971 16.0834C15.5945 16.0834 15.9618 15.7494 15.9618 14.9813V14.8811C15.9618 14.0683 15.5944 13.7566 14.9597 13.7566C14.3587 13.7566 13.9689 14.0461 13.9689 14.7808V14.9813ZM19.0455 14.8588V11.9086C19.0455 9.99373 20.2366 9.28123 21.773 9.28123C23.3094 9.28123 24.5117 9.99373 24.5117 11.9086V14.8588C24.5117 16.7737 23.3093 17.4862 21.773 17.4862C20.2366 17.4862 19.0455 16.7737 19.0455 14.8588ZM22.7749 11.9086C22.7749 11.1404 22.3965 10.7953 21.773 10.7953C21.1496 10.7953 20.7822 11.1404 20.7822 11.9086V14.8588C20.7822 15.627 21.1496 15.9721 21.773 15.9721C22.3965 15.9721 22.7749 15.627 22.7749 14.8588V11.9086ZM26.6215 9.27344C25.1674 9.27344 23.9848 8.09055 23.9848 6.63672C23.9848 5.18289 25.1674 4 26.6215 4C28.0753 4 29.2582 5.18289 29.2582 6.63672C29.2582 8.09055 28.0753 9.27344 26.6215 9.27344ZM26.6215 5.75781C26.1367 5.75781 25.7426 6.15215 25.7426 6.63672C25.7426 7.12146 26.1367 7.51562 26.6215 7.51562C27.1061 7.51562 27.5004 7.12146 27.5004 6.63672C27.5004 6.15215 27.1061 5.75781 26.6215 5.75781Z" />
    </symbol>

    <symbol viewBox="0 0 18 18" id="window-close">
        <path d="M1 1L17 17" stroke-width="2" stroke-linecap="round" />
        <path d="M17 1L1 17" stroke-width="2" stroke-linecap="round" />
    </symbol>

    <symbol viewBox="0 0 11 10" id="header-page-back">
        <path d="M10 5H2M2 5L6 1M2 5L6 9" stroke-width="2" stroke-linecap="round" />
    </symbol>

    <symbol viewBox="0 0 24 24" id="tech-negative-faq-item-title">
        <rect x="11" y="5" width="2" height="14" />
        <rect x="5" y="13" width="2" height="14" transform="rotate(-90 5 13)" />
    </symbol>

    <symbol viewBox="0 0 60 60" id="tech-negative-video-player">
        <path d="M42.4724 28.5407C43.5958 29.1893 43.5958 30.8107 42.4724 31.4593L25.0276 41.5311C23.9042 42.1797 22.5 41.3689 22.5 40.0718L22.5 19.9282C22.5 18.631 23.9042 17.8203 25.0276 18.4689L42.4724 28.5407Z" />
    </symbol>

    <symbol viewBox="0 0 41 40" id="input-file">
        <path d="M27.7614 17.3157V9.74579C27.7614 9.52911 27.6613 9.32892 27.5197 9.17053L19.0327 0.258484C18.8743 0.0918579 18.6491 0 18.4242 0H4.96838C2.48425 0 0.5 2.02576 0.5 4.51019V29.9542C0.5 32.4387 2.48425 34.4312 4.96838 34.4312H15.5897C17.5987 37.7658 21.2504 40 25.4103 40C31.7296 40 36.8901 34.8645 36.8901 28.537C36.8986 23.0096 32.9301 18.3911 27.7614 17.3157ZM19.2579 2.92633L24.9519 8.92029H21.2587C20.1582 8.92029 19.2579 8.01178 19.2579 6.91132V2.92633ZM4.96838 32.7637C3.40955 32.7637 2.16748 31.5131 2.16748 29.9542V4.51019C2.16748 2.94281 3.40955 1.66748 4.96838 1.66748H17.5905V6.91132C17.5905 8.93707 19.2329 10.5878 21.2587 10.5878H26.0939V17.0987C25.8439 17.0905 25.6437 17.0654 25.4271 17.0654C22.5175 17.0654 19.8414 18.1827 17.8239 19.9335H7.23615C6.77747 19.9335 6.4024 20.3085 6.4024 20.7669C6.4024 21.2256 6.77747 21.6006 7.23615 21.6006H16.2733C15.6813 22.4344 15.1893 23.2681 14.806 24.1852H7.23615C6.77747 24.1852 6.4024 24.5602 6.4024 25.0189C6.4024 25.4773 6.77747 25.8527 7.23615 25.8527H14.264C14.0556 26.6864 13.9473 27.6117 13.9473 28.537C13.9473 30.0375 14.239 31.5216 14.7642 32.7722H4.96838V32.7637ZM25.4188 38.3411C20.0166 38.3411 15.623 33.9474 15.623 28.5452C15.623 23.143 20.0081 18.7494 25.4188 18.7494C30.8293 18.7494 35.2144 23.143 35.2144 28.5452C35.2144 33.9474 30.821 38.3411 25.4188 38.3411Z" />
        <path d="M7.23999 17.4238H15.6851C16.1438 17.4238 16.5189 17.0485 16.5189 16.5901C16.5189 16.1314 16.1438 15.7563 15.6851 15.7563H7.23999C6.78131 15.7563 6.40625 16.1314 6.40625 16.5901C6.40625 17.0485 6.78131 17.4238 7.23999 17.4238Z" />
        <path d="M28.809 27.7615H26.2581V25.1687C26.2581 24.7103 25.8827 24.335 25.4243 24.335C24.9656 24.335 24.5906 24.7103 24.5906 25.1687V27.7615H21.9978C21.5391 27.7615 21.1641 28.1368 21.1641 28.5952C21.1641 29.0539 21.5391 29.429 21.9978 29.429H24.5906V31.9799C24.5906 32.4386 24.9656 32.8137 25.4243 32.8137C25.8827 32.8137 26.2581 32.4386 26.2581 31.9799V29.429H28.809C29.2677 29.429 29.6428 29.0539 29.6428 28.5952C29.6428 28.1368 29.2677 27.7615 28.809 27.7615Z" />
    </symbol>

    <symbol viewBox="0 0 44 44" id="window-photo-close">
        <rect x="42.5078" y="0.0797119" width="2" height="60" transform="rotate(45 42.5078 0.0797119)" />
        <rect x="43.9219" y="42.5061" width="2" height="60" transform="rotate(135 43.9219 42.5061)" />
    </symbol>

    <symbol viewBox="0 0 32 19" id="window-preview-prev">
        <path fill-rule="evenodd" clip-rule="evenodd" d="M16 0L32 15.035L28.5128 19L16 7.24194L3.48723 19L0 15.035L16 0Z" />
    </symbol>

    <symbol viewBox="0 0 32 19" id="window-preview-next">
        <path fill-rule="evenodd" clip-rule="evenodd" d="M16 19L32 3.96504L28.5128 0L16 11.7581L3.48723 0L0 3.96504L16 19Z" />
    </symbol>

</svg>