<svg width="120" height="120" viewBox="0 0 120 120" fill="none" xmlns="http://www.w3.org/2000/svg">
<path d="M7.81747 67.2729C7.92449 67.0845 7.98087 66.8715 7.9811 66.6547C7.9811 66.3275 9.36292 34.7275 27.9811 25.182C32.6388 22.6056 37.9255 21.3865 43.2411 21.6629C48.5567 21.9392 53.6884 23.7001 58.0538 26.7457C60.6308 28.4772 63.6267 29.4821 66.7266 29.6547C71.1993 29.9093 76.9993 29.4911 80.7629 26.3275C81.6836 27.8392 82.8095 29.2159 84.1084 30.4184C84.3801 30.6059 84.7107 30.6885 85.0387 30.6508C85.3667 30.6131 85.6699 30.4577 85.8919 30.2134C86.114 29.9691 86.24 29.6525 86.2463 29.3224C86.2527 28.9923 86.1391 28.6711 85.9266 28.4184C84.3649 27.058 83.1231 25.3692 82.2902 23.4729V23.3275C81.9508 22.4634 81.7662 21.5464 81.7447 20.6184C81.7499 18.7467 82.391 16.9323 83.5629 15.4729C85.3493 15.2919 87.151 15.6088 88.7684 16.3886C90.3857 17.1684 91.7557 18.3807 92.7266 19.8911C92.8535 20.0928 93.0311 20.2577 93.2417 20.3693C93.4522 20.481 93.6884 20.5355 93.9266 20.5275C111.072 20.0547 115.745 26.1275 116.727 27.5638C114.09 41.5638 97.7084 40.982 97.0175 40.9457C96.7049 40.9158 96.3922 41.0009 96.1379 41.1849C95.8835 41.369 95.705 41.6394 95.6357 41.9457C91.7993 56.6366 83.8175 60.1275 83.7266 60.1275C83.4805 60.2381 83.2712 60.4166 83.123 60.642C82.9749 60.8675 82.8941 61.1305 82.8902 61.4002V68.6729C82.8896 68.8537 82.9264 69.0327 82.9984 69.1985C83.0704 69.3644 83.1759 69.5135 83.3084 69.6366C83.4358 69.7671 83.5887 69.87 83.7576 69.9388C83.9265 70.0077 84.1078 70.0409 84.2902 70.0366C90.9993 69.8184 93.1629 73.8547 93.8175 76.1093H80.8175C75.3629 74.4911 69.6902 62.8729 67.9447 58.4911C67.8835 58.3175 67.7877 58.1581 67.6632 58.0225C67.5387 57.8869 67.388 57.778 67.2202 57.7022C67.0524 57.6264 66.871 57.5854 66.687 57.5816C66.5029 57.5778 66.32 57.6113 66.1493 57.6801C65.9785 57.7489 65.8234 57.8515 65.6934 57.9818C65.5634 58.1122 65.4611 58.2675 65.3927 58.4384C65.3244 58.6093 65.2913 58.7923 65.2956 58.9764C65.2998 59.1604 65.3413 59.3417 65.4175 59.5093C66.4829 62.0571 67.6972 64.5402 69.0538 66.9457C66.9811 69.2002 62.0902 68.7638 60.2175 68.3457C58.6698 67.7635 57.0478 67.4024 55.3993 67.2729C55.3993 62.5457 54.6902 47.382 42.0175 45.2184C41.6606 45.1557 41.2935 45.2373 40.9969 45.4453C40.7002 45.6533 40.4983 45.9706 40.4357 46.3275C40.373 46.6843 40.4546 47.0514 40.6626 47.3481C40.8706 47.6447 41.1879 47.8466 41.5447 47.9093C54.0538 50.0366 52.6538 68.2547 52.6357 68.4366C52.6198 68.6195 52.6406 68.8038 52.6968 68.9786C52.753 69.1534 52.8435 69.3153 52.9629 69.4548C53.0862 69.5943 53.2371 69.7068 53.4061 69.7851C53.5751 69.8633 53.7585 69.9056 53.9447 69.9093C57.9266 70.0366 60.7811 71.0547 62.4175 72.9275C63.1288 73.7358 63.6065 74.7227 63.7993 75.782H34.2538C31.949 75.8522 29.6982 75.0761 27.9266 73.6002C25.8003 71.7161 23.0583 70.6749 20.2175 70.6729C18.3809 70.6557 16.5744 71.1392 14.992 72.0714C13.4095 73.0036 12.1109 74.3492 11.2356 75.9638C10.3573 77.4866 9.81372 79.1792 9.64128 80.9287C9.46884 82.6782 9.67147 84.4443 10.2356 86.1093C12.0538 91.0002 17.1629 95.2002 25.5993 98.8366C26.272 99.0729 40.1447 103.891 59.7629 95.6366C54.8356 100.546 43.7084 107.473 22.0175 103.364C13.2356 101.691 7.47201 97.9093 4.85383 92.4547C-0.091629 81.8184 7.72655 67.4911 7.81747 67.2729ZM98.1811 26.1457L99.1447 27.5638C99.2661 27.7528 99.4329 27.9083 99.6298 28.0163C99.8267 28.1243 100.047 28.1812 100.272 28.182C100.545 28.1848 100.812 28.1021 101.036 27.9457C101.317 27.747 101.513 27.449 101.584 27.1116C101.655 26.7743 101.595 26.4227 101.417 26.1275L100.454 24.6911C100.251 24.3897 99.9373 24.1811 99.581 24.1112C99.2247 24.0413 98.8552 24.1159 98.5538 24.3184C98.2525 24.5209 98.0439 24.8349 97.974 25.1912C97.9041 25.5475 97.9786 25.917 98.1811 26.2184V26.1457Z" fill="#E0E6EE"/>
</svg>
