<svg width="120" height="120" viewBox="0 0 120 120" fill="none" xmlns="http://www.w3.org/2000/svg">
<g clip-path="url(#clip0_851_44862)">
<path d="M0 0H25.7143V12.8571H0V0ZM30 0H55.7143V12.8571H30V0ZM60 0H85.7143V12.8571H60V0ZM90 0H120V12.8571H90V0ZM0 34.2857H25.7143V47.1429H0V34.2857ZM30 34.2857H55.7143V47.1429H30V34.2857ZM60 34.2857H85.7143V47.1429H60V34.2857ZM90 34.2857H120V47.1429H90V34.2857ZM17.1429 17.1429H42.8571V30H17.1429V17.1429ZM47.1429 17.1429H72.8571V30H47.1429V17.1429ZM77.1429 17.1429H102.857V30H77.1429V17.1429ZM107.143 17.1429H120V30H107.143V17.1429ZM0 17.1429H12.8571V30H0V17.1429ZM17.1429 51.4286H42.8571V64.2857H17.1429V51.4286ZM0 51.4286H12.8571V64.2857H0V51.4286ZM118.757 72.8614L116.777 70.86C113.382 67.4109 109.333 64.6739 104.866 62.8091C100.4 60.9444 95.607 59.9893 90.7671 60C83.0949 59.9892 75.6161 62.4076 69.4029 66.9086L50.6486 80.4257C41.04 87.3471 27.5271 87.3471 17.9229 80.4257L6.79286 72.4028C6.15282 71.9424 5.39848 71.6669 4.61236 71.6065C3.82625 71.546 3.03864 71.7029 2.33571 72.06C1.63291 72.4202 1.04304 72.9672 0.630964 73.6409C0.218887 74.3146 0.000563345 75.0888 0 75.8786V115.714C0 116.851 0.451529 117.941 1.25526 118.745C2.05898 119.548 3.14907 120 4.28571 120H115.714C116.851 120 117.941 119.548 118.745 118.745C119.548 117.941 120 116.851 120 115.714V75.8786C120 74.7483 119.553 73.6639 118.757 72.8614Z" fill="#E0E6EE"/>
<path d="M9.29118 68.9187L20.434 76.9459C22.0369 78.103 23.8369 78.9901 25.714 79.7016V68.5716H8.60547C8.82833 68.7001 9.0769 68.7644 9.29118 68.9187ZM34.2855 81.3301C39.2998 81.3301 44.2198 79.7744 48.1455 76.9459L55.714 71.4901V68.5716H29.9998V80.9144C31.4098 81.163 32.8369 81.3301 34.2855 81.3301ZM66.8998 63.4287C68.7983 62.0659 70.7912 60.8873 72.8569 59.8716V51.4287H47.1426V64.2859H65.7126L66.8998 63.4287ZM90.7712 55.7144C94.9283 55.7144 98.9912 56.3401 102.857 57.5316V51.4287H77.1426V58.0801C81.5167 56.5179 86.1265 55.7177 90.7712 55.7144ZM115.735 64.2859H120V51.4287H107.143V59.1516C110.207 60.5024 113.094 62.2269 115.735 64.2859Z" fill="#E0E6EE"/>
</g>
<defs>
<clipPath id="clip0_851_44862">
<rect width="120" height="120" fill="white"/>
</clipPath>
</defs>
</svg>
