<svg width="120" height="120" viewBox="0 0 120 120" fill="none" xmlns="http://www.w3.org/2000/svg">
<g clip-path="url(#clip0_851_44812)">
<path fill-rule="evenodd" clip-rule="evenodd" d="M115.597 94.1926C115.569 94.156 115.485 94.0605 115.281 93.9268C114.807 93.6159 113.987 93.2909 112.756 92.9983C110.308 92.4168 106.997 92.1278 103.467 91.8453C103.275 91.8299 103.083 91.8146 102.89 91.7992C99.6424 91.5405 96.2488 91.2701 93.6303 90.7161C92.2554 90.4252 90.8816 90.0161 89.8033 89.3623C88.6905 88.6875 87.5534 87.5174 87.5534 85.7289C87.5534 84.6008 87.8385 83.5664 88.4405 82.6822C89.0293 81.8175 89.8208 81.2432 90.6017 80.8495C91.9884 80.1502 93.7199 79.854 95.0541 79.6257C95.1255 79.6135 95.1957 79.6015 95.2646 79.5896C96.8323 79.3198 97.9234 79.1034 98.6555 78.7166C98.9717 78.5495 99.1083 78.4038 99.1747 78.3021C99.231 78.216 99.3205 78.0368 99.3222 77.6384C99.32 77.6339 99.3166 77.6276 99.3117 77.6195C99.2794 77.5663 99.1755 77.4264 98.9019 77.229C98.3285 76.8154 97.2693 76.334 95.5168 75.8972C92.0372 75.03 88.9248 74.4967 86.9523 74.4967C85.7373 74.4967 84.7523 73.5117 84.7523 72.2967C84.7523 71.0817 85.7373 70.0967 86.9523 70.0967C89.6948 70.0967 92.5749 70.6294 96.5808 71.6278C98.571 72.1238 100.249 72.775 101.476 73.6606C102.745 74.5759 103.722 75.9008 103.722 77.6268C103.722 78.766 103.445 79.8102 102.858 80.7085C102.281 81.592 101.498 82.1909 100.711 82.6069C99.2768 83.3647 97.4862 83.6724 96.1244 83.9064C96.0863 83.9129 96.0484 83.9194 96.011 83.9259C94.4273 84.1985 93.3286 84.4021 92.5828 84.7782C92.2603 84.9409 92.1324 85.0779 92.0776 85.1585C92.045 85.2063 91.9873 85.3056 91.9638 85.5215C91.9948 85.5433 92.0345 85.5695 92.0846 85.5999C92.522 85.8651 93.3144 86.1519 94.541 86.4114C96.8706 86.9043 100.002 87.1544 103.385 87.4247C103.529 87.4362 103.673 87.4477 103.818 87.4593C107.255 87.7344 110.931 88.0422 113.773 88.7175C115.186 89.0532 116.587 89.5216 117.693 90.2469C118.84 90.9987 119.894 92.1929 119.988 93.9249M91.8638 85.4393C91.8638 85.4393 91.8661 85.4428 91.8734 85.4498C91.8678 85.4428 91.8638 85.4393 91.8638 85.4393Z" fill="#E0E6EE"/>
<path fill-rule="evenodd" clip-rule="evenodd" d="M91.8638 85.4393C91.8638 85.4393 91.8661 85.4428 91.8734 85.4498C91.8678 85.4428 91.8638 85.4393 91.8638 85.4393Z" fill="#E0E6EE"/>
<path fill-rule="evenodd" clip-rule="evenodd" d="M91.8638 85.4393C91.8638 85.4393 91.8661 85.4428 91.8734 85.4498C91.8678 85.4428 91.8638 85.4393 91.8638 85.4393Z" fill="#E0E6EE"/>
<path fill-rule="evenodd" clip-rule="evenodd" d="M27.6867 85.4394C27.6867 85.4394 27.6827 85.4428 27.6771 85.4499C27.6843 85.4429 27.6867 85.4394 27.6867 85.4394Z" fill="#E0E6EE"/>
<path fill-rule="evenodd" clip-rule="evenodd" d="M27.6867 85.4394C27.6867 85.4394 27.6827 85.4428 27.6771 85.4499C27.6843 85.4429 27.6867 85.4394 27.6867 85.4394Z" fill="#E0E6EE"/>
<path fill-rule="evenodd" clip-rule="evenodd" d="M27.6867 85.4394C27.6867 85.4394 27.6827 85.4428 27.6771 85.4499C27.6843 85.4429 27.6867 85.4394 27.6867 85.4394Z" fill="#E0E6EE"/>
<path fill-rule="evenodd" clip-rule="evenodd" d="M86.9523 116.219C88.69 115.226 90.4923 113.619 90.4923 111.204C90.4923 110.082 90.2321 109.056 89.6948 108.162C89.1639 107.278 88.4364 106.645 87.6831 106.185C86.2629 105.317 84.4887 104.923 83.158 104.631L83.0313 104.603C81.57 104.282 80.5728 104.064 79.8856 103.706C79.5808 103.548 79.4876 103.432 79.4645 103.398L79.4638 103.397C79.4566 103.387 79.406 103.319 79.4143 103.073C79.4144 103.069 79.4144 103.063 79.4143 103.058C79.413 102.964 79.4094 102.694 80.3159 102.319C81.3488 101.891 82.9905 101.615 85.2354 101.478C87.4346 101.344 89.9855 101.352 92.7359 101.377L93.5827 101.385C96.0554 101.409 98.6529 101.434 101.165 101.36L101.348 101.347L109.733 100.755L109.993 100.736C112.564 100.403 114.931 99.8847 116.691 98.9819C118.513 98.0476 120.124 96.4272 119.988 93.9249C119.894 92.1929 118.84 90.9987 117.693 90.2469C116.587 89.5216 115.186 89.0532 113.773 88.7175C110.931 88.0422 107.255 87.7344 103.818 87.4593L103.385 87.4247C100.002 87.1544 96.8706 86.9043 94.541 86.4114C93.3144 86.1519 92.522 85.8651 92.0846 85.5999C92.0345 85.5695 91.9948 85.5433 91.9638 85.5215C91.9873 85.3056 92.045 85.2063 92.0776 85.1585C92.1324 85.0779 92.2603 84.9409 92.5828 84.7782C93.3286 84.4021 94.4273 84.1985 96.011 83.9259L96.1244 83.9064C97.4862 83.6724 99.2768 83.3647 100.711 82.6069C101.498 82.1909 102.281 81.592 102.858 80.7085C103.445 79.8102 103.722 78.766 103.722 77.6268C103.722 75.9008 102.745 74.5759 101.476 73.6606C100.249 72.775 98.571 72.1238 96.5808 71.6278C92.5749 70.6294 89.6948 70.0967 86.9523 70.0967C85.7373 70.0967 84.7523 71.0817 84.7523 72.2967C84.7523 73.5117 85.7373 74.4967 86.9523 74.4967C88.9248 74.4967 92.0372 75.03 95.5168 75.8972C97.2693 76.334 98.3285 76.8154 98.9019 77.229C99.1755 77.4264 99.2794 77.5663 99.3117 77.6195C99.3166 77.6276 99.32 77.6339 99.3222 77.6384C99.3205 78.0368 99.231 78.216 99.1747 78.3021C99.1083 78.4038 98.9717 78.5495 98.6555 78.7166C97.9234 79.1034 96.8323 79.3198 95.2646 79.5896L95.0541 79.6257C93.7199 79.854 91.9884 80.1502 90.6017 80.8495C89.8208 81.2432 89.0293 81.8175 88.4405 82.6822C87.8385 83.5664 87.5534 84.6008 87.5534 85.7289C87.5534 87.5174 88.6905 88.6875 89.8033 89.3623C90.8816 90.0161 92.2554 90.4252 93.6303 90.7161C96.2488 91.2701 99.6424 91.5405 102.89 91.7992L103.467 91.8453C106.997 92.1278 110.308 92.4168 112.756 92.9983C113.987 93.2909 114.807 93.6159 115.281 93.9268C115.485 94.0605 115.569 94.156 115.597 94.1926C115.752 94.3995 115.398 94.8105 114.755 95.071C114.755 95.071 111.432 96.2816 108.795 96.6993C103.215 97.5833 93.6206 96.9853 93.6206 96.9853L92.7757 96.9774C90.0445 96.9527 87.3437 96.9411 84.9672 97.0862C82.6365 97.2285 80.3786 97.5312 78.6342 98.2527C76.8188 99.0036 75.1008 100.442 75.0168 102.924C74.9804 104 75.2375 104.998 75.815 105.855C76.373 106.684 77.1297 107.232 77.8549 107.61C79.0891 108.252 80.6497 108.589 81.8715 108.854C81.9893 108.879 82.1039 108.904 82.2147 108.928C83.6757 109.249 84.7045 109.521 85.3893 109.94C85.6886 110.122 85.8391 110.288 85.9231 110.427C86.0007 110.557 86.0923 110.78 86.0923 111.204C86.0928 111.211 86.0982 111.296 85.9396 111.494C85.7553 111.725 85.3973 112.04 84.769 112.399C83.6365 113.046 81.9471 113.656 79.7657 114.182C79.5093 114.244 79.2461 114.305 78.9762 114.364C73.8824 115.487 66.9818 116.055 60.0008 116.042C53.0205 116.029 46.1172 115.435 41.0196 114.305C38.4517 113.735 36.4859 113.06 35.2157 112.342C34.5844 111.985 34.2256 111.673 34.0423 111.448C33.9563 111.342 33.9228 111.273 33.9106 111.242C33.9008 111.217 33.901 111.207 33.901 111.204C33.901 110.78 33.9926 110.557 34.0702 110.427C34.1542 110.288 34.3048 110.122 34.604 109.94C35.2888 109.521 36.3176 109.249 37.7786 108.928C37.8895 108.904 38.0041 108.879 38.1219 108.854C39.3437 108.589 40.9043 108.252 42.1385 107.61C42.8637 107.232 43.6204 106.684 44.1784 105.856C44.5036 105.373 44.7272 104.845 44.854 104.285C44.9525 103.85 44.9926 103.394 44.9767 102.924C44.8927 100.442 43.1747 99.0036 41.3594 98.2527C39.6149 97.5312 37.357 97.2285 35.0263 97.0862C32.6498 96.9411 29.949 96.9527 27.2178 96.9774L26.3729 96.9853C23.8875 97.0091 21.3786 97.033 18.9583 96.9618C14.0125 96.8165 9.88967 96.5186 7.06619 95.8276C5.64234 95.4792 4.77205 95.081 4.3079 94.7203C3.96705 94.4555 3.94972 94.3137 3.95458 94.1915C3.98304 94.154 4.06783 94.0591 4.26942 93.927C4.74363 93.6162 5.56315 93.2911 6.79475 92.9985C9.24218 92.417 12.554 92.128 16.0836 91.8455L16.6607 91.7994C19.908 91.5407 23.3017 91.2703 25.9203 90.7162C27.2952 90.4253 28.669 90.0162 29.7473 89.3623C30.8601 88.6875 31.9972 87.5174 31.9972 85.7289C31.9972 84.6008 31.712 83.5664 31.11 82.6822C30.5212 81.8175 29.7296 81.2433 28.9488 80.8496C27.5622 80.1504 25.8306 79.8542 24.4964 79.6259L24.2859 79.5898C22.7183 79.32 21.6271 79.1036 20.895 78.7168C20.5789 78.5497 20.4423 78.404 20.3758 78.3024C20.3195 78.2162 20.23 78.037 20.2283 77.6386C20.2306 77.6341 20.2339 77.6279 20.2389 77.6198C20.2711 77.5665 20.375 77.4266 20.6486 77.2293C21.222 76.8156 22.2812 76.3342 24.0338 75.8974C27.5133 75.0302 29.5368 74.4969 32.8263 74.4969C34.0413 74.4969 35.0263 73.5119 35.0263 72.2969C35.0263 71.0819 34.0413 70.0969 32.8263 70.0969C28.6365 70.0969 26.9757 70.6296 22.9697 71.628C20.9796 72.124 19.302 72.7753 18.0744 73.6608C16.8056 74.5761 15.8283 75.901 15.8283 77.627C15.8283 78.7662 16.1054 79.8104 16.6922 80.7087C17.2693 81.5923 18.0522 82.1911 18.8394 82.6071C20.2737 83.365 22.0644 83.6726 23.4261 83.9066L23.5396 83.9261C25.1233 84.1986 26.2219 84.4023 26.9678 84.7784C27.2903 84.941 27.4181 85.078 27.473 85.1586C27.5056 85.2064 27.5633 85.3057 27.5868 85.5215C27.5557 85.5434 27.516 85.5696 27.4659 85.6C27.0285 85.8652 26.2362 86.152 25.0095 86.4115C22.6798 86.9044 19.5481 87.1546 16.1653 87.4249L15.7324 87.4595C12.2958 87.7346 8.61977 88.0424 5.77762 88.7177C4.36444 89.0534 2.96374 89.5218 1.8573 90.2471C0.710294 90.999 -0.343828 92.193 -0.43757 93.9251C-0.536745 95.7571 0.326247 97.1986 1.60822 98.1947C2.79373 99.1159 4.36855 99.6973 6.02034 100.102C9.34814 100.916 13.8987 101.215 18.829 101.36C21.0267 101.425 23.29 101.414 25.4779 101.394C25.7905 101.391 26.1017 101.388 26.4108 101.385L27.2576 101.377C30.008 101.352 32.5589 101.344 34.7581 101.478C37.0031 101.615 38.6447 101.891 39.6776 102.319C40.2596 102.559 40.4664 102.757 40.5396 102.892C40.5037 102.724 40.5213 102.801 40.5432 102.899C40.5804 102.971 40.5797 103.025 40.5793 103.058C40.5793 103.058 40.5647 102.995 40.55 102.929L40.5432 102.899L40.5396 102.892L40.5786 103.074C40.7129 103.698 38.968 104.151 36.9622 104.603C36.9127 104.614 36.8354 104.631 36.8354 104.631C35.5047 104.923 33.7305 105.317 32.3102 106.185C31.5569 106.645 30.8294 107.278 30.2985 108.162C29.7612 109.056 29.501 110.082 29.501 111.204C29.501 113.612 31.3308 115.2 33.0496 116.172C34.8743 117.204 37.3296 117.993 40.0672 118.6C45.5804 119.823 52.825 120.429 59.9925 120.442C67.1593 120.456 74.4066 119.877 79.9236 118.661C82.663 118.057 85.1231 117.265 86.9523 116.219ZM27.6867 85.4394C27.6867 85.4394 27.6827 85.4428 27.6771 85.4499C27.6843 85.4429 27.6867 85.4394 27.6867 85.4394ZM91.8638 85.4393C91.8638 85.4393 91.8661 85.4428 91.8734 85.4498C91.8678 85.4428 91.8638 85.4393 91.8638 85.4393Z" fill="#E0E6EE"/>
<path d="M92.7757 96.9774L93.6206 96.9853C93.6206 96.9853 103.215 97.5833 108.795 96.6993C111.432 96.2816 114.755 95.071 114.755 95.071C115.398 94.8105 115.752 94.3995 115.597 94.1926C115.569 94.156 115.485 94.0605 115.281 93.9268C114.807 93.6159 113.987 93.2909 112.756 92.9983C110.308 92.4168 106.997 92.1278 103.467 91.8453L102.89 91.7992C99.6424 91.5405 96.2488 91.2701 93.6303 90.7161C92.2554 90.4252 90.8816 90.0161 89.8033 89.3623C88.6905 88.6875 87.5534 87.5174 87.5534 85.7289C87.5534 84.6008 87.8385 83.5664 88.4405 82.6822C89.0293 81.8175 89.8208 81.2432 90.6017 80.8495C91.9884 80.1502 93.7199 79.854 95.0541 79.6257L95.2646 79.5896C96.8323 79.3198 97.9234 79.1034 98.6555 78.7166C98.9717 78.5495 99.1083 78.4038 99.1747 78.3021C99.231 78.216 99.3205 78.0368 99.3222 77.6384C99.32 77.6339 99.3166 77.6276 99.3117 77.6195C99.2794 77.5663 99.1755 77.4264 98.9019 77.229C98.3285 76.8154 97.2693 76.334 95.5168 75.8972C92.0372 75.03 88.9248 74.4967 86.9523 74.4967C85.7373 74.4967 84.7523 73.5117 84.7523 72.2967C84.7523 72.2967 80.3074 91.7992 59.9925 91.7992C39.6776 91.7992 35.0263 72.2969 35.0263 72.2969C35.0263 73.5119 34.0413 74.4969 32.8263 74.4969C29.5368 74.4969 27.5133 75.0302 24.0338 75.8974C22.2812 76.3342 21.222 76.8156 20.6486 77.2293C20.375 77.4266 20.2711 77.5665 20.2389 77.6198C20.2339 77.6279 20.2306 77.6341 20.2283 77.6386C20.23 78.037 20.3195 78.2162 20.3758 78.3024C20.4423 78.404 20.5789 78.5497 20.895 78.7168C21.6271 79.1036 22.7183 79.32 24.2859 79.5898L24.4964 79.6259C25.8306 79.8542 27.5622 80.1504 28.9488 80.8496C29.7296 81.2433 30.5212 81.8175 31.11 82.6822C31.712 83.5664 31.9972 84.6008 31.9972 85.7289C31.9972 87.5174 30.8601 88.6875 29.7473 89.3623C28.669 90.0162 27.2952 90.4253 25.9203 90.7162C23.3017 91.2703 19.908 91.5407 16.6607 91.7994L16.0836 91.8455C12.554 92.128 9.24218 92.417 6.79475 92.9985C5.56315 93.2911 4.74363 93.6162 4.26942 93.927C4.06783 94.0591 3.98304 94.154 3.95458 94.1915C3.94972 94.3137 3.96705 94.4555 4.3079 94.7203C4.77205 95.081 5.64234 95.4792 7.06619 95.8276C9.88967 96.5186 14.0125 96.8165 18.9583 96.9618C21.3786 97.033 23.8875 97.0091 26.3729 96.9853L27.2178 96.9774C29.949 96.9527 32.6498 96.9411 35.0263 97.0862C37.357 97.2285 39.6149 97.5312 41.3594 98.2527C43.1747 99.0036 44.8927 100.442 44.9767 102.924C44.9926 103.394 44.9525 103.85 44.854 104.285C44.7272 104.845 44.5036 105.373 44.1784 105.856C43.6204 106.684 42.8637 107.232 42.1385 107.61C40.9043 108.252 39.3437 108.589 38.1219 108.854C38.0041 108.879 37.8895 108.904 37.7786 108.928C36.3176 109.249 35.2888 109.521 34.604 109.94C34.3048 110.122 34.1542 110.288 34.0702 110.427C33.9926 110.557 33.901 110.78 33.901 111.204C33.901 111.207 33.9008 111.217 33.9106 111.242C33.9228 111.273 33.9563 111.342 34.0423 111.448C34.2256 111.673 34.5844 111.985 35.2157 112.342C36.4859 113.06 38.4517 113.735 41.0196 114.305C46.1172 115.435 53.0205 116.029 60.0008 116.042C66.9818 116.055 73.8824 115.487 78.9762 114.364C79.2461 114.305 79.5093 114.244 79.7657 114.182C81.9471 113.656 83.6365 113.046 84.769 112.399C85.3973 112.04 85.7553 111.725 85.9396 111.494C86.0982 111.296 86.0928 111.211 86.0923 111.204C86.0923 110.78 86.0007 110.557 85.9231 110.427C85.8391 110.288 85.6886 110.122 85.3893 109.94C84.7045 109.521 83.6757 109.249 82.2147 108.928C82.1039 108.904 81.9893 108.879 81.8715 108.854C80.6497 108.589 79.0891 108.252 77.8549 107.61C77.1297 107.232 76.373 106.684 75.815 105.855C75.2375 104.998 74.9804 104 75.0168 102.924C75.1008 100.442 76.8188 99.0036 78.6342 98.2527C80.3786 97.5312 82.6365 97.2285 84.9672 97.0862C87.3437 96.9411 90.0445 96.9527 92.7757 96.9774Z" fill="#E0E6EE"/>
<path fill-rule="evenodd" clip-rule="evenodd" d="M59.9947 83.5668C46.929 83.5668 38.7627 69.4226 45.2957 58.1072L52.9042 44.9285C53.5117 43.8763 53.1512 42.5308 52.0989 41.9233C51.0466 41.3158 49.7012 41.6763 49.0937 42.7286L41.4852 55.9072C33.2587 70.1559 43.5419 87.9668 59.9947 87.9668C76.4477 87.9668 86.7309 70.156 78.5044 55.9072L61.8999 27.1474C61.5069 26.4667 60.7806 26.0474 59.9947 26.0474C59.2087 26.0474 58.4824 26.4667 58.0894 27.1474L53.9651 34.2911C53.3576 35.3434 53.7182 36.6889 54.7704 37.2964C55.8227 37.9039 57.1682 37.5433 57.7757 36.4911L59.9947 32.6474L74.6939 58.1072C81.2268 69.4226 73.0606 83.5668 59.9947 83.5668Z" fill="#E0E6EE"/>
<path d="M52.9042 44.9285C53.5117 43.8763 53.1512 42.5308 52.0989 41.9233C51.0466 41.3158 49.7012 41.6763 49.0937 42.7286L53.9651 34.2911C53.3576 35.3434 53.7182 36.6889 54.7704 37.2964C55.8227 37.9039 57.1682 37.5433 57.7757 36.4911L52.9042 44.9285Z" fill="#E0E6EE"/>
<path fill-rule="evenodd" clip-rule="evenodd" d="M45.2957 58.1072C38.7627 69.4226 46.929 83.5668 59.9947 83.5668C73.0606 83.5668 81.2268 69.4226 74.6939 58.1072L59.9947 32.6474L57.7757 36.4911L52.9042 44.9285L45.2957 58.1072ZM57.796 78.7352C57.796 79.9503 58.781 80.9352 59.996 80.9352C65.1714 80.9352 69.8286 78.2465 72.4165 73.7643C73.024 72.712 72.6635 71.3665 71.6113 70.759C70.559 70.1515 69.2135 70.512 68.606 71.5642C66.8041 74.6851 63.5994 76.5352 59.996 76.5352C58.781 76.5352 57.796 77.5202 57.796 78.7352Z" fill="#E0E6EE"/>
<path fill-rule="evenodd" clip-rule="evenodd" d="M80.1536 33.4252C75.2617 33.4252 72.2043 28.1296 74.6502 23.8932L80.1536 14.3612L85.6569 23.8932C88.1028 28.1296 85.0455 33.4252 80.1536 33.4252ZM70.8397 21.6932C66.7002 28.8629 71.8746 37.8252 80.1536 37.8252C88.4326 37.8252 93.6069 28.8629 89.4674 21.6932L82.0588 8.86121C81.6658 8.18052 80.9395 7.76121 80.1536 7.76121C79.3676 7.76121 78.6413 8.18052 78.2483 8.86121L70.8397 21.6932C70.8397 21.6932 70.8397 21.6932 70.8397 21.6932Z" fill="#E0E6EE"/>
<path d="M74.6502 23.8932C72.2043 28.1296 75.2617 33.4252 80.1536 33.4252C85.0455 33.4252 88.1028 28.1296 85.6569 23.8932L80.1536 14.3612L74.6502 23.8932Z" fill="#E0E6EE"/>
<path fill-rule="evenodd" clip-rule="evenodd" d="M47.8097 17.9301C44.9026 17.9301 43.0856 14.783 44.5393 12.2653L47.8097 6.60054L51.0801 12.2652C52.5338 14.783 50.7168 17.9301 47.8097 17.9301ZM40.7287 10.0653C37.5817 15.5162 41.5153 22.3301 47.8097 22.3301C54.1041 22.3301 58.0378 15.5162 54.8907 10.0653C54.8907 10.0653 54.8907 10.0653 54.8907 10.0653L49.715 1.10047C49.322 0.419771 48.5957 0.000442505 47.8097 0.000442505C47.0237 0.000442505 46.2974 0.419771 45.9044 1.10047L40.7287 10.0653C40.7288 10.0653 40.7287 10.0653 40.7287 10.0653Z" fill="#E0E6EE"/>
<path d="M44.5393 12.2653C43.0856 14.783 44.9026 17.9301 47.8097 17.9301C50.7168 17.9301 52.5338 14.783 51.0801 12.2652L47.8097 6.60054L44.5393 12.2653Z" fill="#E0E6EE"/>
</g>
<defs>
<clipPath id="clip0_851_44812">
<rect width="120" height="120" fill="white"/>
</clipPath>
</defs>
</svg>
