<svg width="120" height="120" viewBox="0 0 120 120" fill="none" xmlns="http://www.w3.org/2000/svg">
<g clip-path="url(#clip0_851_44684)">
<path d="M19.8568 40.4324C20.2627 40.4335 20.6578 40.3018 20.9818 40.0574L35.1793 29.3586C41.8468 24.3261 51.805 19.5093 60.2237 19.9386H60.2387C60.736 19.9657 61.2022 20.1893 61.5346 20.5601C61.8671 20.9309 62.0386 21.4185 62.0115 21.9158C61.9844 22.4131 61.7609 22.8792 61.3901 23.2117C61.0193 23.5442 60.5316 23.7157 60.0344 23.6886C51.1506 23.2199 41.3481 29.5893 38.9631 31.243C45.0934 34.1065 51.7481 35.676 58.5118 35.8536C64.171 35.9517 69.7308 34.3587 74.4793 31.2786C89.5731 21.2905 100.197 27.8511 100.632 28.1249C100.983 28.354 101.4 28.4591 101.817 28.4233C102.235 28.3876 102.628 28.213 102.935 27.9275C103.242 27.642 103.444 27.262 103.509 26.8482C103.575 26.4343 103.5 26.0105 103.296 25.6443C102.734 24.6393 89.2206 0.911126 61.6487 0.0223759C53.0631 -0.262624 46.2118 2.06238 41.2506 6.92425C34.3618 13.6743 33.3419 23.1318 33.1881 26.1599L18.7262 37.0592C18.4114 37.2954 18.1788 37.6246 18.0615 38.0002C17.9442 38.3758 17.948 38.7788 18.0724 39.1522C18.1969 39.5255 18.4356 39.8502 18.7549 40.0803C19.0741 40.3104 19.4577 40.4342 19.8512 40.4342L19.8568 40.4324ZM60.3062 110.406L42.895 102.859C36.5687 100.134 27.1918 93.6374 23.41 86.1711L23.3987 86.1543C23.1749 85.7089 23.1372 85.193 23.2939 84.7198C23.4505 84.2467 23.7887 83.8552 24.234 83.6314C24.6794 83.4077 25.1953 83.3699 25.6684 83.5266C26.1416 83.6833 26.5331 84.0214 26.7568 84.4668C30.7693 92.398 41.0068 97.798 43.7256 99.1292C42.8818 90.7105 39.4693 74.8855 26.0256 68.0418C9.88185 59.8499 10.2193 47.2686 10.2381 46.7436C10.2599 46.3246 10.1405 45.9103 9.89906 45.5671C9.65759 45.224 9.30798 44.9717 8.90618 44.8507C8.50438 44.7298 8.07362 44.7471 7.68281 44.8999C7.29201 45.0527 6.96376 45.3322 6.7506 45.6936C6.16935 46.6874 -7.44315 70.3499 5.56935 94.8749C9.65685 102.562 15.1318 107.4 21.8443 109.275C23.9511 109.857 26.1276 110.147 28.3131 110.137C33.1584 110.06 37.9211 108.87 42.2331 106.659L58.8156 113.846C59.2705 114.036 59.7817 114.039 60.2388 113.854C60.6958 113.67 61.0619 113.313 61.2578 112.861C61.4537 112.409 61.4637 111.898 61.2857 111.438C61.1076 110.979 60.7557 110.608 60.3062 110.406ZM119.288 75.0186C117.248 68.2052 112.83 62.3503 106.838 58.5186L104.716 40.4249C104.658 39.9308 104.406 39.48 104.016 39.1716C103.625 38.8633 103.128 38.7226 102.634 38.7805C102.14 38.8384 101.689 39.0903 101.381 39.4806C101.073 39.8709 100.932 40.3677 100.99 40.8617L103.077 58.6405C103.65 63.554 103.553 68.5226 102.788 73.4099C102.215 77.5875 100.801 81.6057 98.6331 85.2224C98.4654 85.488 98.2328 85.7066 97.9572 85.8575C97.6817 86.0084 97.3722 86.0866 97.0581 86.0849C96.6984 86.087 96.3461 85.9826 96.0456 85.7849C95.8373 85.6532 95.6573 85.4815 95.516 85.2796C95.3747 85.0777 95.275 84.8497 95.2226 84.6089C95.1703 84.3681 95.1663 84.1193 95.2111 83.877C95.2558 83.6346 95.3483 83.4036 95.4831 83.1974C100.321 75.6786 99.7956 64.0536 99.5518 61.0161C92.7269 66.0036 80.9519 76.8974 81.7956 91.9911C82.8081 110.197 71.8581 116.197 71.3894 116.441C71.008 116.628 70.7014 116.939 70.5196 117.323C70.3379 117.706 70.2918 118.14 70.389 118.554C70.4861 118.967 70.7207 119.335 71.0544 119.598C71.388 119.861 71.801 120.002 72.2256 120H72.3756C74.7943 120 100.876 119.456 115.051 96.4311C119.607 89.0249 121.032 81.8249 119.288 75.0186Z" fill="#E0E6EE"/>
</g>
<defs>
<clipPath id="clip0_851_44684">
<rect width="120" height="120" fill="white"/>
</clipPath>
</defs>
</svg>
