<svg width="120" height="120" viewBox="0 0 120 120" fill="none" xmlns="http://www.w3.org/2000/svg">
<g clip-path="url(#clip0_851_44879)">
<path d="M47.1431 73.8963L55.7145 69.0827V56.8551L47.1431 61.6696V73.8963ZM34.286 88.8963L42.8573 84.0827V78.8125L34.286 73.998V88.8963ZM45.0002 48.3857L36.4795 53.1719L45.0002 57.9581L53.5209 53.1719L45.0002 48.3857ZM40.5701 27.5006L9.01107 10.1001L0.000234375 14.1621L32.1431 32.2425L40.5701 27.5006Z" fill="#E0E6EE"/>
<path d="M30.8213 54.8275C30.6139 54.6869 30.4453 54.4962 30.3309 54.2732C30.3138 54.2461 30.2899 54.2264 30.2742 54.1982C30.2679 54.1875 30.2691 54.175 30.2632 54.164C30.2169 54.0791 30.1768 53.9909 30.1432 53.9001C30.0896 53.7006 30.0485 53.498 30.0202 53.2933C30.0183 53.2582 30 53.2293 30 53.1937V35.9533L0 19.0783V72.019L30 88.894V70.3366C30 70.2965 30.0206 70.2633 30.0227 70.2239C30.0368 70.0812 30.0652 69.9403 30.1076 69.8034C30.1374 69.6639 30.1814 69.5278 30.2388 69.3972C30.2564 69.3616 30.2545 69.3227 30.2742 69.288C30.3284 69.2156 30.3874 69.1469 30.4509 69.0825C30.6882 68.7302 31.0362 68.4672 31.4398 68.335C31.5817 68.2903 31.728 68.2609 31.8762 68.2472C31.9638 68.2232 32.0529 68.2053 32.1429 68.1935C32.1832 68.1935 32.2165 68.2141 32.2559 68.2162C32.5385 68.2565 32.8158 68.3289 33.0823 68.4323C33.1177 68.4496 33.1568 68.4482 33.1913 68.4677L42.8571 73.897V61.6694L31.0943 55.0624C30.9965 54.9924 30.9051 54.9138 30.8213 54.8275Z" fill="#E0E6EE"/>
<path d="M34.2854 49.4887L42.8567 44.6742V31.1311L34.2854 35.9533V49.4887Z" fill="#E0E6EE"/>
<path d="M40.5701 27.5006L32.1431 32.2425L34.2854 33.5328V35.9533L42.8567 31.1311V28.8699L40.5701 27.5006Z" fill="#E0E6EE"/>
<path d="M36.4795 53.1719L45.0002 48.3857L42.8571 47.2755L42.8567 44.6742L34.2854 49.4887L34.286 51.8656L36.4795 53.1719Z" fill="#E0E6EE"/>
<path d="M47.1431 61.6696L55.7145 56.8551V54.2732L53.5209 53.1719L45.0002 57.9581L47.1431 59.2785V61.6696Z" fill="#E0E6EE"/>
<path d="M79.2864 61.7399L70.7148 57.4541V69.8049L79.2864 74.0898V61.7399ZM81.4293 88.5256L73.3642 92.5581L81.4061 96.579L89.2762 92.4484L81.4293 88.5256ZM92.1435 74.3537L83.572 78.8541V84.8047L92.1435 89.0898V74.3537Z" fill="#E0E6EE"/>
<path d="M83.572 74.0122L93.2901 68.9094C93.3173 68.8953 93.347 68.8979 93.3742 68.885C93.6431 68.7944 93.919 68.7265 94.1992 68.682C94.2299 68.6806 94.2552 68.6645 94.2862 68.6645C94.3874 68.6769 94.4873 68.697 94.5855 68.7247C94.7313 68.7385 94.8753 68.7674 95.0151 68.8112C95.2602 68.9277 95.4932 69.068 95.7109 69.23C95.819 69.3369 95.9153 69.455 95.998 69.5823C96.0655 69.6538 96.1279 69.7302 96.1844 69.8108C96.1984 69.838 96.1961 69.8677 96.209 69.8952C96.3006 70.1649 96.3686 70.4422 96.4127 70.7239C96.4136 70.753 96.4293 70.7776 96.4293 70.8069V92.2355C96.4176 92.3241 96.4 92.4118 96.3766 92.4978C96.341 92.9169 96.1692 93.3127 95.8874 93.6249C95.7847 93.7368 95.6702 93.837 95.5457 93.924C95.4848 93.9847 95.4198 94.0414 95.3516 94.0937L95.0523 94.2652L83.5722 100.282V114.754L120.001 95.9462V42.6149L83.572 61.711V74.0122ZM73.1404 53.8759L81.4061 58.0088L120.001 37.7771L110.767 34.0464L73.1404 53.8759ZM70.7148 110.519L79.2864 114.805V100.311L70.7148 96.0256V110.519Z" fill="#E0E6EE"/>
<path d="M81.4293 88.5256L89.2762 92.4484L92.1435 90.908V89.0898L83.572 84.8047L83.572 87.3737L81.4293 88.5256Z" fill="#E0E6EE"/>
<path d="M81.4061 96.579L73.3642 92.5581L70.7148 93.8081L70.7148 96.0256L79.2864 100.311V97.7182L81.4061 96.579Z" fill="#E0E6EE"/>
<path d="M79.2864 61.7399V74.0898L81.4293 75.14L83.572 74.0122V61.711L81.4061 62.9368L79.2864 61.7399Z" fill="#E0E6EE"/>
</g>
<defs>
<clipPath id="clip0_851_44879">
<rect width="120" height="120" fill="white"/>
</clipPath>
</defs>
</svg>
