<svg width="120" height="120" viewBox="0 0 120 120" fill="none" xmlns="http://www.w3.org/2000/svg">
<mask id="mask0_851_44715" style="mask-type:luminance" maskUnits="userSpaceOnUse" x="0" y="0" width="120" height="120">
<path d="M118 118V1.99986H2V118H118Z" fill="white" stroke="white" stroke-width="4"/>
</mask>
<g mask="url(#mask0_851_44715)">
<path d="M60 8.16736C46.8741 19.74 30.7358 25.2488 14.5 26.1323V59.6357C14.5 85.1223 35.0148 109.644 60.0028 114.426C86.3635 109.45 105.5 86.4581 105.5 59.6357V26.1323C89.2644 25.2487 73.1259 19.7401 60 8.16736Z" stroke="#E0E6EE" stroke-width="9" stroke-miterlimit="10" stroke-linecap="round" stroke-linejoin="round"/>
<path d="M23.8912 33.4379C23.3985 33.5124 23.0312 33.9341 23.0312 34.4324V58.9946C23.0312 81.0167 39.9642 100.713 59.7726 105.548C59.9213 105.584 60.0767 105.585 60.2257 105.55C80.9689 100.719 96.966 81.02 96.966 58.9946V34.4324C96.966 33.9341 96.5987 33.5124 96.106 33.4379C83.193 31.4859 71.056 26.6893 60.6092 18.86C60.2477 18.589 59.7496 18.5891 59.388 18.86C48.9412 26.6893 36.8043 31.4859 23.8912 33.4379Z" fill="#E0E6EE"/>
<path d="M74.6406 60.1053C70.3791 52.6632 65.422 45.1004 66.3958 36.8743C66.4905 36.0745 65.7065 35.4226 64.9985 35.8064C57.8493 39.6824 53.9205 48.6137 55 52.5403C52.9784 46.9898 49.2368 44.8997 47.0786 44.1334C46.3579 43.8776 45.7574 44.5903 45.9584 45.3282C46.7121 48.0952 47.6839 54.0533 44.6209 60.4141C43.5513 62.7123 42.9977 65.2224 43 67.7636C43 77.283 50.6112 85 60.0001 85C69.389 85 77 77.283 77 67.7636C77 65.3731 76.0348 62.6833 74.6406 60.1053Z" fill="white"/>
</g>
</svg>
