<svg width="120" height="120" viewBox="0 0 120 120" fill="none" xmlns="http://www.w3.org/2000/svg">
<path fill-rule="evenodd" clip-rule="evenodd" d="M60.0068 45.1659C55.8984 45.1659 51.8823 43.9476 48.4663 41.6651C45.0503 39.3826 42.3878 36.1384 40.8156 32.3428C39.2434 28.5471 38.832 24.3705 39.6335 20.341C40.435 16.3116 42.4134 12.6103 45.3185 9.7052C48.2236 6.80013 51.9248 4.82175 55.9543 4.02024C59.9837 3.21873 64.1604 3.63009 67.9561 5.20231C71.7517 6.77452 74.9959 9.43698 77.2784 12.853C79.5609 16.269 80.7792 20.2851 80.7792 24.3935C80.7727 29.9006 78.5822 35.1807 74.6881 39.0748C70.794 42.9689 65.5139 45.1594 60.0068 45.1659Z" fill="#E0E6EE"/>
<path fill-rule="evenodd" clip-rule="evenodd" d="M54.7087 31.5304L49.1478 25.9694C48.7375 25.5447 48.5106 24.9757 48.5157 24.3853C48.5208 23.7948 48.7577 23.2299 49.1752 22.8124C49.5928 22.3949 50.1576 22.158 50.7481 22.1529C51.3386 22.1477 51.9074 22.3747 52.3322 22.785L52.3372 22.7898L56.301 26.7537L65.8259 17.2288C66.2507 16.8186 66.8196 16.5916 67.4101 16.5968C68.0005 16.6019 68.5654 16.8387 68.9829 17.2563C69.4005 17.6738 69.6373 18.2387 69.6424 18.8291C69.6476 19.4196 69.4206 19.9885 69.0103 20.4132L69.0055 20.4182L57.8933 31.5304C57.4711 31.9527 56.8983 32.1901 56.3011 32.1902C55.7039 32.1901 55.131 31.9527 54.7087 31.5304Z" fill="white"/>
<path fill-rule="evenodd" clip-rule="evenodd" d="M4.84392 113.696C4.84392 114.082 4.9969 114.451 5.26921 114.723C5.54152 114.996 5.91085 115.149 6.29596 115.149H113.714C114.099 115.149 114.469 114.996 114.741 114.723C115.013 114.451 115.166 114.082 115.166 113.696V76.364C112.932 76.551 110.739 77.0997 108.672 77.9933L108.671 77.9939C105.388 79.3995 101.842 80.0844 98.2718 80.0024C94.7017 80.0842 91.1556 79.3993 87.8727 77.9939L87.8713 77.9933C85.1165 76.802 82.1358 76.2236 79.1354 76.2981L79.1255 76.2984L79.1156 76.2981C76.1201 76.2244 73.1444 76.8028 70.3946 77.9933L70.3932 77.9939C67.1098 79.4003 63.5628 80.0852 59.992 80.0024C56.4231 80.0841 52.8782 79.3992 49.5966 77.9939L49.5952 77.9933C46.8412 76.8017 43.861 76.2232 40.8613 76.2981L40.8514 76.2984L40.8415 76.2981C37.846 76.2248 34.8703 76.8032 32.1204 77.9933L32.119 77.9939C28.8364 79.4005 25.2899 80.0854 21.7197 80.0024C18.1507 80.0848 14.6056 79.3998 11.3241 77.9939L11.3227 77.9933C9.26119 77.1007 7.07261 76.5522 4.84392 76.3646V113.696ZM38.1822 88.0373C38.1822 88.4827 38.0501 88.9181 37.8027 89.2885C37.5552 89.6588 37.2035 89.9475 36.792 90.1179C36.3805 90.2884 35.9277 90.333 35.4908 90.2461C35.054 90.1592 34.6527 89.9447 34.3377 89.6298C34.0228 89.3148 33.8083 88.9135 33.7214 88.4767C33.6345 88.0398 33.6791 87.587 33.8496 87.1755C34.02 86.764 34.3087 86.4123 34.679 86.1648C35.0494 85.9174 35.4848 85.7853 35.9302 85.7853C36.5274 85.7853 37.1003 86.0226 37.5226 86.4449C37.9449 86.8672 38.1822 87.4401 38.1822 88.0373ZM69.8677 93.573C70.2381 93.3255 70.6735 93.1934 71.1189 93.1934C71.7162 93.1934 72.289 93.4307 72.7113 93.853C73.1337 94.2754 73.3709 94.8482 73.3709 95.4455C73.3709 95.8909 73.2388 96.3263 72.9914 96.6966C72.7439 97.067 72.3922 97.3556 71.9807 97.5261C71.5692 97.6965 71.1164 97.7411 70.6795 97.6542C70.2427 97.5673 69.8414 97.3529 69.5265 97.0379C69.2115 96.723 68.997 96.3217 68.9101 95.8848C68.8232 95.448 68.8678 94.9952 69.0383 94.5837C69.2087 94.1722 69.4974 93.8204 69.8677 93.573ZM47.6433 93.573C48.0136 93.3255 48.449 93.1934 48.8944 93.1934C49.4917 93.1934 50.0645 93.4307 50.4869 93.853C50.9092 94.2754 51.1465 94.8482 51.1465 95.4455C51.1465 95.8909 51.0144 96.3263 50.7669 96.6966C50.5195 97.067 50.1678 97.3556 49.7562 97.5261C49.3447 97.6965 48.8919 97.7411 48.4551 97.6542C48.0182 97.5673 47.617 97.3529 47.302 97.0379C46.987 96.723 46.7726 96.3217 46.6857 95.8848C46.5988 95.448 46.6434 94.9952 46.8138 94.5837C46.9843 94.1722 47.2729 93.8204 47.6433 93.573ZM8.75048 86.1648C9.12083 85.9174 9.55624 85.7853 10.0016 85.7853C10.5989 85.7853 11.1717 86.0226 11.5941 86.4449C12.0164 86.8672 12.2537 87.4401 12.2537 88.0373C12.2537 88.4827 12.1216 88.9181 11.8741 89.2885C11.6267 89.6588 11.275 89.9475 10.8635 90.1179C10.452 90.2884 9.99915 90.333 9.5623 90.2461C9.12545 90.1592 8.72417 89.9447 8.40922 89.6298C8.09427 89.3148 7.87978 88.9135 7.79288 88.4767C7.70599 88.0398 7.75059 87.587 7.92104 87.1755C8.09149 86.764 8.38014 86.4123 8.75048 86.1648ZM21.7147 93.573C22.0851 93.3255 22.5205 93.1934 22.9659 93.1934C23.5632 93.1934 24.136 93.4307 24.5583 93.853C24.9807 94.2754 25.2179 94.8482 25.2179 95.4455C25.2179 95.8909 25.0859 96.3263 24.8384 96.6966C24.591 97.067 24.2392 97.3556 23.8277 97.5261C23.4162 97.6965 22.9634 97.7411 22.5266 97.6542C22.0897 97.5673 21.6884 97.3529 21.3735 97.0379C21.0585 96.723 20.844 96.3217 20.7571 95.8848C20.6702 95.448 20.7148 94.9952 20.8853 94.5837C21.0557 94.1722 21.3444 93.8204 21.7147 93.573ZM82.832 86.1648C83.2023 85.9174 83.6377 85.7853 84.0831 85.7853C84.6804 85.7853 85.2532 86.0226 85.6756 86.4449C86.0979 86.8672 86.3352 87.4401 86.3352 88.0373C86.3352 88.4827 86.2031 88.9181 85.9556 89.2885C85.7082 89.6588 85.3565 89.9475 84.945 90.1179C84.5335 90.2884 84.0806 90.333 83.6438 90.2461C83.2069 90.1592 82.8057 89.9447 82.4907 89.6298C82.1758 89.3148 81.9613 88.9135 81.8744 88.4767C81.7875 88.0398 81.8321 87.587 82.0025 87.1755C82.173 86.764 82.4616 86.4123 82.832 86.1648ZM58.7555 86.1648C59.1258 85.9174 59.5612 85.7853 60.0067 85.7853C60.6039 85.7853 61.1768 86.0226 61.5991 86.4449C62.0214 86.8672 62.2587 87.4401 62.2587 88.0373C62.2587 88.4827 62.1266 88.9181 61.8792 89.2885C61.6317 89.6588 61.28 89.9475 60.8685 90.1179C60.457 90.2884 60.0042 90.333 59.5673 90.2461C59.1305 90.1592 58.7292 89.9447 58.4142 89.6298C58.0993 89.3148 57.8848 88.9135 57.7979 88.4767C57.711 88.0398 57.7556 87.587 57.926 87.1755C58.0965 86.764 58.3851 86.4123 58.7555 86.1648ZM108.76 86.1648C109.131 85.9174 109.566 85.7853 110.012 85.7853C110.609 85.7853 111.182 86.0226 111.604 86.4449C112.026 86.8672 112.264 87.4401 112.264 88.0373C112.264 88.4827 112.132 88.9181 111.884 89.2885C111.637 89.6588 111.285 89.9475 110.873 90.1179C110.462 90.2884 110.009 90.333 109.572 90.2461C109.135 90.1592 108.734 89.9447 108.419 89.6298C108.104 89.3148 107.89 88.9135 107.803 88.4767C107.716 88.0398 107.761 87.587 107.931 87.1755C108.102 86.764 108.39 86.4123 108.76 86.1648ZM95.7962 93.573C96.1666 93.3255 96.602 93.1934 97.0474 93.1934C97.6447 93.1934 98.2175 93.4307 98.6398 93.853C99.0622 94.2754 99.2994 94.8482 99.2994 95.4455C99.2994 95.8909 99.1674 96.3263 98.9199 96.6966C98.6724 97.067 98.3207 97.3556 97.9092 97.5261C97.4977 97.6965 97.0449 97.7411 96.608 97.6542C96.1712 97.5673 95.7699 97.3529 95.455 97.0379C95.14 96.723 94.9255 96.3217 94.8386 95.8848C94.7517 95.448 94.7963 94.9952 94.9668 94.5837C95.1372 94.1722 95.4259 93.8204 95.7962 93.573Z" fill="#E0E6EE"/>
<path d="M6.29596 59.4045C5.91085 59.4045 5.54152 59.5574 5.26921 59.8298C4.9969 60.1021 4.84392 60.4714 4.84392 60.8565V71.8442C7.64219 72.0333 10.3941 72.6937 12.9819 73.8026L12.9833 73.8032C15.7331 74.9936 18.7088 75.572 21.7043 75.4984L21.7142 75.4981L21.724 75.4984C24.7195 75.5721 27.6952 74.9937 30.445 73.8032L30.4464 73.8026C33.7308 72.3954 37.2793 71.7104 40.8514 71.7941C44.4214 71.7125 47.9675 72.3974 51.2504 73.8026L51.2519 73.8032C54.0046 74.9947 56.9835 75.5731 59.9821 75.4984L59.992 75.4981L60.0019 75.4984C62.9974 75.5721 65.9732 74.9937 68.7229 73.8032L68.7244 73.8026C72.0077 72.3963 75.5547 71.7113 79.1255 71.7941C82.6956 71.7121 86.2418 72.397 89.5247 73.8026L89.526 73.8032C92.2808 74.9945 95.2615 75.5729 98.2619 75.4984L98.2718 75.4981L98.2818 75.4984C101.282 75.5729 104.263 74.9945 107.018 73.8032L107.019 73.8026C109.61 72.6934 112.365 72.033 115.166 71.8441V60.8565C115.166 60.4714 115.013 60.1021 114.741 59.8298C114.469 59.5574 114.099 59.4045 113.714 59.4045H6.29596Z" fill="#E0E6EE"/>
<path fill-rule="evenodd" clip-rule="evenodd" d="M113.714 119.653H6.29596C4.7163 119.653 3.20134 119.025 2.08435 117.908C0.967361 116.791 0.339844 115.276 0.339844 113.696V76.2984H2.59188L2.60174 76.2981C3.35145 76.2797 4.09992 76.302 4.84392 76.3646V113.696C4.84392 114.082 4.9969 114.451 5.26921 114.723C5.54152 114.996 5.91085 115.149 6.29596 115.149H113.714C114.099 115.149 114.469 114.996 114.741 114.723C115.013 114.451 115.166 114.082 115.166 113.696V76.364C115.91 76.3018 116.659 76.2796 117.408 76.2983H117.418H119.67V113.696C119.67 115.276 119.043 116.791 117.926 117.908C116.809 119.025 115.294 119.653 113.714 119.653ZM119.67 71.7942V60.8565C119.67 59.2768 119.043 57.7619 117.926 56.6449C116.809 55.5279 115.294 54.9004 113.714 54.9004H6.29596C4.7163 54.9004 3.20134 55.5279 2.08435 56.6449C0.967361 57.7619 0.339844 59.2768 0.339844 60.8565V71.7942H2.58701C3.34114 71.7768 4.09419 71.7936 4.84392 71.8442V60.8565C4.84392 60.4714 4.9969 60.1021 5.26921 59.8298C5.54152 59.5574 5.91085 59.4045 6.29596 59.4045H113.714C114.099 59.4045 114.469 59.5574 114.741 59.8298C115.013 60.1021 115.166 60.4714 115.166 60.8565V71.8441C115.916 71.7936 116.669 71.7768 117.423 71.7942H119.67Z" fill="#E0E6EE"/>
</svg>
