<svg width="120" height="120" viewBox="0 0 120 120" fill="none" xmlns="http://www.w3.org/2000/svg">
<g clip-path="url(#clip0_851_44824)">
<path fill-rule="evenodd" clip-rule="evenodd" d="M29.307 48.0219C19.9648 58.8108 11.0724 69.0802 12.906 85.9518C15.0435 105.195 31.1374 119.858 50.4956 120.2H50.5192L50.521 120.2H51.2193L51.221 120.2H51.2446C70.6028 119.858 86.6968 105.195 88.8342 85.9518C89.6832 78.1406 88.233 71.7446 85.5035 66.0571L81.7731 68.4648C79.3382 70.165 77.3092 72.3915 75.8405 74.9855C74.1556 77.9614 73.2649 81.3208 73.254 84.7405V90.0151C73.254 91.6595 72.6008 93.2366 71.438 94.3993C70.2753 95.5621 68.6982 96.2154 67.0538 96.2154C65.4093 96.2154 63.8323 95.5621 62.6695 94.3993C61.5068 93.2366 60.8535 91.6595 60.8535 90.0151V84.7219C60.885 73.9804 66.2425 63.9937 75.0824 58.0175C73.8 56.3982 72.4382 54.7839 71.0288 53.1456C70.5454 53.4744 70.0525 53.7905 69.5504 54.0936L69.5421 54.0986L64.8032 56.9431L64.7986 56.9459C61.8717 58.7147 59.4493 61.207 57.7643 64.183C56.0794 67.1589 55.1887 70.5183 55.1779 73.938V79.2126C55.1779 80.857 54.5246 82.4341 53.3619 83.5968C52.1991 84.7596 50.622 85.4129 48.9776 85.4129C47.3332 85.4129 45.7561 84.7596 44.5934 83.5968C43.4306 82.4341 42.7773 80.857 42.7773 79.2126V73.9194C42.8105 62.6234 48.7336 52.1622 58.4028 46.3221L58.4141 46.3152L63.1573 43.4718L63.1628 43.4685L63.2017 43.4449C64.4669 42.6763 65.6373 41.7723 66.694 40.7523C59.2566 30.1723 56.3079 20.2916 53.0233 7.45347C52.9025 6.97962 52.6274 6.55948 52.2413 6.2594C51.8552 5.9593 51.3801 5.79639 50.8911 5.79639L50.8701 5.79649L50.8491 5.79639C50.3601 5.79639 49.885 5.9593 49.4989 6.2594C49.1128 6.55948 48.8377 6.97962 48.717 7.45347C44.7009 23.1506 41.187 34.4264 29.3563 47.9649L29.307 48.0219ZM50.6878 107.798C51.902 107.799 52.8858 108.784 52.8858 109.998C52.8858 111.213 51.9008 112.198 50.6856 112.198H50.6816C35.3858 111.893 22.6947 100.279 21.0378 85.0706C20.9905 84.6843 21.0465 84.2924 21.2 83.9348C21.3538 83.5768 21.5999 83.266 21.9131 83.0342C22.2264 82.8024 22.5956 82.6579 22.983 82.6156C23.3704 82.5732 23.7622 82.6346 24.1181 82.7933C24.4741 82.952 24.7814 83.2025 25.0088 83.519C25.2359 83.8352 25.3751 84.206 25.4121 84.5935C26.8069 97.582 37.6275 107.516 50.6878 107.798Z" fill="#E0E6EE"/>
<path d="M74.5019 50.4187C73.4101 51.4035 72.25 52.315 71.0288 53.1456C72.4382 54.7839 73.8 56.3982 75.0824 58.0175L78.8433 55.675C77.4571 53.9024 75.9954 52.1604 74.5019 50.4187Z" fill="#E0E6EE"/>
<path d="M103.508 23.5643L103.514 23.5692C103.935 23.9319 104.478 24.1216 105.034 24.1002C105.589 24.0787 106.116 23.8477 106.509 23.4535C106.901 23.0593 107.129 22.5312 107.148 21.9755C107.167 21.4197 106.974 20.8775 106.609 20.4579L98.5985 12.4464C98.1859 12.034 97.6263 11.8022 97.0429 11.8022C96.4594 11.8022 95.8999 12.0339 95.4872 12.4464L87.4859 20.4477L87.4835 20.4502C87.0827 20.8652 86.8609 21.421 86.8659 21.9979C86.8709 22.5748 87.1024 23.1267 87.5103 23.5346C87.9183 23.9426 88.4701 24.174 89.047 24.179C89.624 24.184 90.1798 23.9622 90.5948 23.5614L94.8567 19.3126V37.2854C94.8448 41.3939 93.7752 45.4301 91.751 49.0053C89.7268 52.5804 86.8163 55.5741 83.2996 57.6982L78.545 60.5485C70.0714 65.6664 64.8806 74.8343 64.8516 84.7336V90.0151C64.8516 90.5986 65.0834 91.1582 65.496 91.5709C65.9086 91.9835 66.4683 92.2153 67.0518 92.2153C67.6354 92.2153 68.195 91.9835 68.6076 91.5709C69.0203 91.1582 69.2521 90.5986 69.2521 90.0151V84.7345C69.264 80.626 70.3335 76.5899 72.3577 73.0147C74.382 69.4395 77.2926 66.4457 80.8094 64.3216L85.5577 61.4714C89.7242 58.9567 93.1735 55.4114 95.5728 51.1774C97.9721 46.9434 99.2409 42.1631 99.2572 37.2965V19.3136L103.508 23.5643Z" fill="#E0E6EE"/>
<path d="M85.4336 12.762L85.4393 12.7669C85.8607 13.1297 86.4039 13.3194 86.9596 13.2979C87.5152 13.2765 88.0421 13.0454 88.4344 12.6512C88.8266 12.2571 89.055 11.729 89.0737 11.1733C89.0924 10.6175 88.8999 10.0753 88.5351 9.65565L80.5243 1.64417C80.1116 1.23173 79.5521 1 78.9686 1C78.3852 1 77.8257 1.23169 77.413 1.64414L69.4117 9.64543L69.4093 9.64793C69.0085 10.0629 68.7867 10.6187 68.7917 11.1956C68.7967 11.7726 69.0281 12.3244 69.4361 12.7324C69.844 13.1403 70.3959 13.3717 70.9728 13.3768C71.5497 13.3818 72.1055 13.16 72.5205 12.7592L76.7825 8.51032V26.4832C76.7705 30.5916 75.701 34.6278 73.6768 38.203C71.6526 41.7782 68.7421 44.7719 65.2254 46.8959L60.4708 49.7462C51.9972 54.8642 46.8064 64.032 46.7773 73.9313V79.2128C46.7773 79.7964 47.0092 80.356 47.4218 80.7686C47.8344 81.1813 48.3941 81.4131 48.9776 81.4131C49.5611 81.4131 50.1208 81.1813 50.5334 80.7686C50.9461 80.356 51.1779 79.7964 51.1779 79.2128V73.9323C51.1898 69.8238 52.2593 65.7876 54.2835 62.2124C56.3077 58.6372 59.2184 55.6434 62.7352 53.5194L67.4835 50.6692C71.65 48.1545 75.0993 44.6092 77.4986 40.3752C79.8979 36.1412 81.1667 31.3608 81.183 26.4943V8.51136L85.4336 12.762Z" fill="#E0E6EE"/>
</g>
<defs>
<clipPath id="clip0_851_44824">
<rect width="120" height="120" fill="white"/>
</clipPath>
</defs>
</svg>
