<svg width="120" height="120" viewBox="0 0 120 120" fill="none" xmlns="http://www.w3.org/2000/svg">
<path fill-rule="evenodd" clip-rule="evenodd" d="M116.25 10.7812H104.531V9.60938C104.531 5.08617 100.851 1.40625 96.3281 1.40625C91.8049 1.40625 88.125 5.08617 88.125 9.60938V10.7812H31.875V9.60938C31.875 5.08617 28.1951 1.40625 23.6719 1.40625C19.1487 1.40625 15.4688 5.08617 15.4688 9.60938V10.7812H3.75C2.45555 10.7812 1.40625 11.8305 1.40625 13.125V29.5312H6.09375V15.4688H15.4688V16.6406C15.4688 21.1638 19.1487 24.8438 23.6719 24.8438C28.1951 24.8438 31.875 21.1638 31.875 16.6406V15.4688H88.125V16.6406C88.125 21.4765 92.3161 25.2952 97.1655 24.8013C101.298 24.3806 104.531 20.8795 104.531 16.6406V15.4688H113.906V29.5312H118.594V13.125C118.594 11.8305 117.544 10.7812 116.25 10.7812ZM96.3281 6.09375C94.3894 6.09375 92.8125 7.67086 92.8125 9.60938V13.125V16.6406C92.8125 18.5791 94.3894 20.1562 96.3281 20.1562C98.2666 20.1562 99.8438 18.5791 99.8438 16.6406V9.60938C99.8438 7.67086 98.2666 6.09375 96.3281 6.09375ZM23.6719 6.09375C21.7334 6.09375 20.1562 7.67086 20.1562 9.60938V13.125V16.6406C20.1562 18.5791 21.7334 20.1562 23.6719 20.1562C25.6104 20.1562 27.1875 18.5791 27.1875 16.6406V9.60938C27.1875 7.67086 25.6104 6.09375 23.6719 6.09375Z" fill="#E0E6EE"/>
<path d="M15.4688 15.4688H6.09375V29.5312H113.906V15.4688H104.531V16.6406C104.531 20.8795 101.298 24.3806 97.1655 24.8013C92.3161 25.2952 88.125 21.4765 88.125 16.6406V15.4688H31.875V16.6406C31.875 21.1638 28.1951 24.8438 23.6719 24.8438C19.1487 24.8438 15.4688 21.1638 15.4688 16.6406V15.4688Z" fill="#E0E6EE"/>
<path d="M6.09375 113.906H113.906V34.2188H6.09375V113.906Z" fill="#E0E6EE"/>
<path fill-rule="evenodd" clip-rule="evenodd" d="M1.40625 116.25V34.2188H6.09375V113.906H113.906V34.2188H118.594V116.25C118.594 117.544 117.544 118.594 116.25 118.594H3.75C2.45555 118.594 1.40625 117.544 1.40625 116.25Z" fill="#E0E6EE"/>
<path d="M34.2188 48.2812H36.5625C37.857 48.2812 38.9062 47.232 38.9062 45.9375C38.9062 44.643 37.857 43.5938 36.5625 43.5938H34.2188C32.9243 43.5938 31.875 44.643 31.875 45.9375C31.875 47.232 32.9243 48.2812 34.2188 48.2812ZM50.625 48.2812H52.9688C54.2632 48.2812 55.3125 47.232 55.3125 45.9375C55.3125 44.643 54.2632 43.5938 52.9688 43.5938H50.625C49.3305 43.5938 48.2812 44.643 48.2812 45.9375C48.2812 47.232 49.3305 48.2812 50.625 48.2812ZM67.0312 48.2812H69.375C70.6692 48.2812 71.7188 47.232 71.7188 45.9375C71.7188 44.643 70.6692 43.5938 69.375 43.5938H67.0312C65.7368 43.5938 64.6875 44.643 64.6875 45.9375C64.6875 47.232 65.7368 48.2812 67.0312 48.2812ZM83.4375 48.2812H85.7812C87.0755 48.2812 88.125 47.232 88.125 45.9375C88.125 44.643 87.0755 43.5938 85.7812 43.5938H83.4375C82.143 43.5938 81.0938 44.643 81.0938 45.9375C81.0938 47.232 82.143 48.2812 83.4375 48.2812ZM99.8438 48.2812H102.188C103.482 48.2812 104.531 47.232 104.531 45.9375C104.531 44.643 103.482 43.5938 102.188 43.5938H99.8438C98.5493 43.5938 97.5 44.643 97.5 45.9375C97.5 47.232 98.5493 48.2812 99.8438 48.2812ZM17.8125 62.3438H20.1562C21.4507 62.3438 22.5 61.2942 22.5 60C22.5 58.7055 21.4507 57.6562 20.1562 57.6562H17.8125C16.518 57.6562 15.4688 58.7055 15.4688 60C15.4688 61.2942 16.518 62.3438 17.8125 62.3438ZM34.2188 62.3438H36.5625C37.857 62.3438 38.9062 61.2942 38.9062 60C38.9062 58.7055 37.857 57.6562 36.5625 57.6562H34.2188C32.9243 57.6562 31.875 58.7055 31.875 60C31.875 61.2942 32.9243 62.3438 34.2188 62.3438ZM50.625 62.3438H52.9688C54.2632 62.3438 55.3125 61.2942 55.3125 60C55.3125 58.7055 54.2632 57.6562 52.9688 57.6562H50.625C49.3305 57.6562 48.2812 58.7055 48.2812 60C48.2812 61.2942 49.3305 62.3438 50.625 62.3438ZM67.0312 62.3438H69.375C70.6692 62.3438 71.7188 61.2942 71.7188 60C71.7188 58.7055 70.6692 57.6562 69.375 57.6562H67.0312C65.7368 57.6562 64.6875 58.7055 64.6875 60C64.6875 61.2942 65.7368 62.3438 67.0312 62.3438ZM83.4375 62.3438H85.7812C87.0755 62.3438 88.125 61.2942 88.125 60C88.125 58.7055 87.0755 57.6562 85.7812 57.6562H83.4375C82.143 57.6562 81.0938 58.7055 81.0938 60C81.0938 61.2942 82.143 62.3438 83.4375 62.3438ZM99.8438 62.3438H102.188C103.482 62.3438 104.531 61.2942 104.531 60C104.531 58.7055 103.482 57.6562 102.188 57.6562H99.8438C98.5493 57.6562 97.5 58.7055 97.5 60C97.5 61.2942 98.5493 62.3438 99.8438 62.3438ZM17.8125 76.4062H20.1562C21.4507 76.4062 22.5 75.3567 22.5 74.0625C22.5 72.7683 21.4507 71.7188 20.1562 71.7188H17.8125C16.518 71.7188 15.4688 72.7683 15.4688 74.0625C15.4688 75.3567 16.518 76.4062 17.8125 76.4062ZM34.2188 76.4062H36.5625C37.857 76.4062 38.9062 75.3567 38.9062 74.0625C38.9062 72.7683 37.857 71.7188 36.5625 71.7188H34.2188C32.9243 71.7188 31.875 72.7683 31.875 74.0625C31.875 75.3567 32.9243 76.4062 34.2188 76.4062ZM50.625 76.4062H52.9688C54.2632 76.4062 55.3125 75.3567 55.3125 74.0625C55.3125 72.7683 54.2632 71.7188 52.9688 71.7188H50.625C49.3305 71.7188 48.2812 72.7683 48.2812 74.0625C48.2812 75.3567 49.3305 76.4062 50.625 76.4062ZM67.0312 76.4062H69.375C70.6692 76.4062 71.7188 75.3567 71.7188 74.0625C71.7188 72.7683 70.6692 71.7188 69.375 71.7188H67.0312C65.7368 71.7188 64.6875 72.7683 64.6875 74.0625C64.6875 75.3567 65.7368 76.4062 67.0312 76.4062ZM83.4375 76.4062H85.7812C87.0755 76.4062 88.125 75.3567 88.125 74.0625C88.125 72.7683 87.0755 71.7188 85.7812 71.7188H83.4375C82.143 71.7188 81.0938 72.7683 81.0938 74.0625C81.0938 75.3567 82.143 76.4062 83.4375 76.4062ZM99.8438 76.4062H102.188C103.482 76.4062 104.531 75.3567 104.531 74.0625C104.531 72.7683 103.482 71.7188 102.188 71.7188H99.8438C98.5493 71.7188 97.5 72.7683 97.5 74.0625C97.5 75.3567 98.5493 76.4062 99.8438 76.4062ZM17.8125 90.4688H20.1562C21.4507 90.4688 22.5 89.4192 22.5 88.125C22.5 86.8308 21.4507 85.7812 20.1562 85.7812H17.8125C16.518 85.7812 15.4688 86.8308 15.4688 88.125C15.4688 89.4192 16.518 90.4688 17.8125 90.4688ZM34.2188 90.4688H36.5625C37.857 90.4688 38.9062 89.4192 38.9062 88.125C38.9062 86.8308 37.857 85.7812 36.5625 85.7812H34.2188C32.9243 85.7812 31.875 86.8308 31.875 88.125C31.875 89.4192 32.9243 90.4688 34.2188 90.4688ZM50.625 90.4688H52.9688C54.2632 90.4688 55.3125 89.4192 55.3125 88.125C55.3125 86.8308 54.2632 85.7812 52.9688 85.7812H50.625C49.3305 85.7812 48.2812 86.8308 48.2812 88.125C48.2812 89.4192 49.3305 90.4688 50.625 90.4688ZM67.0312 90.4688H69.375C70.6692 90.4688 71.7188 89.4192 71.7188 88.125C71.7188 86.8308 70.6692 85.7812 69.375 85.7812H67.0312C65.7368 85.7812 64.6875 86.8308 64.6875 88.125C64.6875 89.4192 65.7368 90.4688 67.0312 90.4688ZM83.4375 90.4688H85.7812C87.0755 90.4688 88.125 89.4192 88.125 88.125C88.125 86.8308 87.0755 85.7812 85.7812 85.7812H83.4375C82.143 85.7812 81.0938 86.8308 81.0938 88.125C81.0938 89.4192 82.143 90.4688 83.4375 90.4688ZM99.8438 90.4688H102.188C103.482 90.4688 104.531 89.4192 104.531 88.125C104.531 86.8308 103.482 85.7812 102.188 85.7812H99.8438C98.5493 85.7812 97.5 86.8308 97.5 88.125C97.5 89.4192 98.5493 90.4688 99.8438 90.4688ZM17.8125 104.531H20.1562C21.4507 104.531 22.5 103.482 22.5 102.188C22.5 100.893 21.4507 99.8438 20.1562 99.8438H17.8125C16.518 99.8438 15.4688 100.893 15.4688 102.188C15.4688 103.482 16.518 104.531 17.8125 104.531ZM34.2188 104.531H36.5625C37.857 104.531 38.9062 103.482 38.9062 102.188C38.9062 100.893 37.857 99.8438 36.5625 99.8438H34.2188C32.9243 99.8438 31.875 100.893 31.875 102.188C31.875 103.482 32.9243 104.531 34.2188 104.531ZM50.625 104.531H52.9688C54.2632 104.531 55.3125 103.482 55.3125 102.188C55.3125 100.893 54.2632 99.8438 52.9688 99.8438H50.625C49.3305 99.8438 48.2812 100.893 48.2812 102.188C48.2812 103.482 49.3305 104.531 50.625 104.531ZM67.0312 104.531H69.375C70.6692 104.531 71.7188 103.482 71.7188 102.188C71.7188 100.893 70.6692 99.8438 69.375 99.8438H67.0312C65.7368 99.8438 64.6875 100.893 64.6875 102.188C64.6875 103.482 65.7368 104.531 67.0312 104.531Z" fill="white"/>
</svg>
