<svg width="120" height="120" viewBox="0 0 120 120" fill="none" xmlns="http://www.w3.org/2000/svg">
<path d="M6.20078 57.0725L52.8008 36.3841V43.4233C52.8008 43.4677 52.8021 43.5117 52.8047 43.5555L52.8008 100.8H6.20078V57.0725Z" fill="#E0E6EE"/>
<path d="M41.0289 105.2H52.8008V114.8H6.20078V105.2H19.9727L20.0008 105.2H41.0008L41.0289 105.2Z" fill="#E0E6EE"/>
<path d="M57.2008 33.0481C57.2015 33.0155 57.2015 32.9828 57.2008 32.9501V6.26537L113.801 29.1972V114.8H57.2008L57.2047 42.0005C57.2047 41.9561 57.2034 41.912 57.2008 41.8683V34.5813V33.0481Z" fill="#E0E6EE"/>
<path fill-rule="evenodd" clip-rule="evenodd" d="M61.6032 3.30162C59.5 2.4495 57.2027 3.99611 57.2008 6.26537L113.801 29.1972V114.8H57.2008V119.2H116.001C117.216 119.2 118.201 118.215 118.201 117V27.7148C118.201 26.8188 117.657 26.0123 116.827 25.6758L61.6032 3.30162ZM52.8008 36.3841C52.8008 34.1196 50.4705 32.6045 48.4008 33.5234L3.10809 53.6314C2.31317 53.9843 1.80078 54.7724 1.80078 55.6422V100.8H6.20078V57.0725L52.8008 36.3841ZM6.20078 114.8H52.8008V119.2H4.00078C2.78575 119.2 1.80078 118.215 1.80078 117V105.2L6.20078 105.2V114.8Z" fill="#E0E6EE"/>
<path d="M84 79.0005H69V59.0005H84V79.0005ZM107 79.0005H93V59.0005H107V79.0005Z" fill="white"/>
<path d="M84 28.9398V49.0005H69V25.0005H71.2292L84 28.9398Z" fill="white"/>
<path d="M107 37.7797V49.0005H93V33.0005L107 37.7797Z" fill="white"/>
<path d="M38 94.0005H17V76.0005H38V94.0005Z" fill="white"/>
<path d="M38 51.0005V70.0005H17V57.5913L30.98 51.0005H38Z" fill="white"/>
<path d="M96 119.198H78V91.0003H96V119.198Z" fill="white"/>
</svg>
