<svg width="120" height="120" viewBox="0 0 120 120" fill="none" xmlns="http://www.w3.org/2000/svg">
<path fill-rule="evenodd" clip-rule="evenodd" d="M83.074 7.6218C83.074 6.75664 82.6014 5.9606 81.8418 5.54638C81.0823 5.13216 80.1571 5.16594 79.4298 5.63445L34.6826 34.4592L34.6806 39.1871L78.346 11.9566V107.959L34.6642 79.7911L34.6623 84.5191L79.3987 114.343C80.1241 114.827 81.0568 114.872 81.8255 114.461C82.5941 114.049 83.074 113.248 83.074 112.376V7.6218ZM29.9464 34.4592L4.65305 34.4592C4.02608 34.4592 3.42479 34.7082 2.98146 35.1516C2.53812 35.5949 2.28906 36.1962 2.28906 36.8231V82.1551C2.28906 83.4607 3.34745 84.5191 4.65305 84.5191L29.9464 84.5191V79.7911L7.01703 79.7911V39.1871L29.9464 39.1871V34.4592Z" fill="#E0E6EE"/>
<path d="M29.9464 39.1871L7.01703 39.1871V79.7911L29.9464 79.7911V39.1871Z" fill="#E0E6EE"/>
<path d="M34.6642 79.7911L78.346 107.959V11.9566L34.6806 39.1871L34.6642 79.7911Z" fill="#E0E6EE"/>
<path fill-rule="evenodd" clip-rule="evenodd" d="M92.2902 46.9733C93.7343 45.5291 96.0758 45.5291 97.5199 46.9733L104.806 54.2592L112.092 46.9733C113.536 45.5291 115.877 45.5291 117.322 46.9733C118.766 48.4174 118.766 50.7589 117.322 52.203L110.036 59.489L117.322 66.7749C118.766 68.2191 118.766 70.5605 117.322 72.0047C115.877 73.4489 113.536 73.4489 112.092 72.0047L104.806 64.7188L97.5199 72.0047C96.0758 73.4489 93.7343 73.4489 92.2902 72.0047C90.846 70.5605 90.846 68.2191 92.2902 66.7749L99.5761 59.489L92.2902 52.203C90.846 50.7589 90.846 48.4174 92.2902 46.9733ZM102.615 59.489L93.8098 68.2945C93.2049 68.8994 93.2049 69.8802 93.8098 70.4851C94.4147 71.09 95.3954 71.09 96.0003 70.4851L104.806 61.6795L113.611 70.4851C114.216 71.09 115.197 71.09 115.802 70.4851C116.407 69.8802 116.407 68.8994 115.802 68.2945L106.996 59.489L115.802 50.6834C116.407 50.0785 116.407 49.0978 115.802 48.4929C115.197 47.888 114.216 47.888 113.611 48.4929L104.806 57.2984L96.0003 48.4929C95.3954 47.888 94.4147 47.888 93.8098 48.4929C93.2049 49.0978 93.2049 50.0785 93.8098 50.6834L102.615 59.489Z" fill="#E0E6EE"/>
<path d="M93.8098 70.4851C93.2049 69.8802 93.2049 68.8994 93.8098 68.2945L102.615 59.489L93.8098 50.6834C93.2049 50.0785 93.2049 49.0978 93.8098 48.4929C94.4147 47.888 95.3954 47.888 96.0003 48.4929L104.806 57.2984L113.611 48.4929C114.216 47.888 115.197 47.888 115.802 48.4929C116.407 49.0978 116.407 50.0785 115.802 50.6834L106.996 59.489L115.802 68.2945C116.407 68.8994 116.407 69.8802 115.802 70.4851C115.197 71.09 114.216 71.09 113.611 70.4851L104.806 61.6795L96.0003 70.4851C95.3954 71.09 94.4147 71.09 93.8098 70.4851Z" fill="#E0E6EE"/>
</svg>
