<svg width="24" height="24" viewBox="0 0 24 24" fill="none" xmlns="http://www.w3.org/2000/svg">
<circle cx="12" cy="12" r="12" fill="url(#paint0_linear_1001_9109)"/>
<path fill-rule="evenodd" clip-rule="evenodd" d="M17.5938 7.44107C17.4053 9.54969 16.59 14.6659 16.175 17.0275C15.9994 18.0268 15.654 18.3615 15.319 18.3945C14.5922 18.4653 14.0396 17.8825 13.3354 17.3911C12.2335 16.622 11.6106 16.1429 10.541 15.3924C9.30418 14.525 10.1059 14.0481 10.8108 13.2687C10.9948 13.0645 14.1991 9.96138 14.261 9.68028C14.2688 9.64523 14.2759 9.51395 14.2029 9.44454C14.13 9.37512 14.0215 9.39849 13.9434 9.41773C13.8331 9.44454 12.0721 10.6837 8.66126 13.1353C8.16164 13.5003 7.70914 13.6783 7.30311 13.6693C6.85642 13.659 5.99597 13.3999 5.35691 13.1786C4.57262 12.9071 3.94906 12.7635 4.00329 12.303C4.03169 12.0624 4.34218 11.8171 4.9354 11.5662C8.58574 9.87272 11.0199 8.75586 12.238 8.21702C15.716 6.67679 16.4383 6.40875 16.9095 6.4005C17.0128 6.39844 17.2446 6.42524 17.395 6.55514C17.5215 6.66442 17.5563 6.81219 17.5731 6.91597C17.5899 7.01975 17.6106 7.25618 17.5938 7.44107Z" fill="white"/>
<defs>
<linearGradient id="paint0_linear_1001_9109" x1="12" y1="0" x2="12" y2="24" gradientUnits="userSpaceOnUse">
<stop stop-color="#00B0FD"/>
<stop offset="1" stop-color="#2F89CE"/>
</linearGradient>
</defs>
</svg>
