<svg width="24" height="24" viewBox="0 0 24 24" fill="none" xmlns="http://www.w3.org/2000/svg">
<path d="M12.0418 0C15.2195 0 18.23 1.25 20.4878 3.5C22.7456 5.75 23.9164 8.75 24 11.8333C24 18.4167 18.6481 23.75 12.0418 23.75C10.0348 23.75 8.1115 23.25 6.3554 22.3333L0 24L1.67247 17.8333C0.66899 16.0833 0.0836224 14 0.0836224 11.9167C0.0836224 5.33333 5.43554 0 12.0418 0Z" fill="url(#paint0_linear_1001_9105)"/>
<path d="M17.8121 16.1662C17.5612 16.8329 16.3905 17.4996 15.8051 17.5829C15.3033 17.6662 14.6344 17.6662 13.9654 17.4996C13.5473 17.3329 12.9619 17.1662 12.2929 16.8329C9.28245 15.5829 7.3591 12.5829 7.19186 12.3329C7.02461 12.1662 5.9375 10.7496 5.9375 9.24956C5.9375 7.74956 6.69011 7.08289 6.94098 6.74956C7.19185 6.41622 7.52635 6.41622 7.77722 6.41622C7.94447 6.41622 8.19533 6.41622 8.36258 6.41622C8.52983 6.41622 8.7807 6.33289 9.03157 6.91622C9.28244 7.49956 9.86781 8.99956 9.95143 9.08289C10.0351 9.24956 10.0351 9.41623 9.95143 9.58289C9.86781 9.74956 9.78418 9.91622 9.61694 10.0829C9.44969 10.2496 9.28244 10.4996 9.19882 10.5829C9.03157 10.7496 8.86433 10.9162 9.03157 11.1662C9.19882 11.4996 9.78419 12.4162 10.704 13.2496C11.8748 14.2496 12.7946 14.5829 13.1291 14.7496C13.4636 14.9162 13.6309 14.8329 13.7981 14.6662C13.9654 14.4996 14.5507 13.8329 14.718 13.4996C14.8852 13.1662 15.1361 13.2496 15.387 13.3329C15.6378 13.4162 17.1431 14.1662 17.3939 14.3329C17.7284 14.4996 17.8957 14.5829 17.9793 14.6662C18.0629 14.9162 18.0629 15.4996 17.8121 16.1662Z" fill="white"/>
<defs>
<linearGradient id="paint0_linear_1001_9105" x1="12" y1="0" x2="12" y2="24" gradientUnits="userSpaceOnUse">
<stop stop-color="#42DA5E"/>
<stop offset="1" stop-color="#12AF2C"/>
</linearGradient>
</defs>
</svg>
